# This file uses centimeters as units for non-parametric coordinates.

mtllib halfpipe.mtl
g default
v -6.203171 6.689877 2.405238
v -6.190763 6.025905 2.405238
v -6.107490 5.367059 2.405238
v -5.954304 4.720882 2.405238
v -5.732958 4.094769 2.405238
v -5.445986 3.495887 2.405238
v -5.096673 2.931093 2.405238
v -4.689019 2.406851 2.405238
v -4.227688 1.929163 2.405238
v -3.717963 1.503496 2.405238
v -3.165679 1.134724 2.405238
v -2.577156 0.827067 2.405238
v -1.959132 0.584048 2.405238
v -1.318682 0.408448 2.405238
v -0.663137 0.302278 2.405238
v -0.000000 0.266752 2.405238
v 0.663136 0.302278 2.405238
v 1.318681 0.408448 2.405238
v 1.959131 0.584048 2.405238
v 2.577155 0.827067 2.405238
v 3.165678 1.134724 2.405238
v 3.717963 1.503496 2.405238
v 4.227688 1.929163 2.405238
v 4.689018 2.406851 2.405238
v 5.096673 2.931093 2.405238
v 5.445986 3.495887 2.405238
v 5.732958 4.094768 2.405238
v 5.954304 4.720881 2.405238
v 6.107490 5.367059 2.405238
v 6.190763 6.025904 2.405238
v 6.203171 6.689876 2.405238
v -5.395524 6.661728 2.405238
v -5.384733 6.084206 2.405238
v -5.312301 5.511142 2.405238
v -5.179060 4.949095 2.405238
v -4.986532 4.404502 2.405238
v -4.736924 3.883594 2.405238
v -4.433092 3.392336 2.405238
v -4.078514 2.936349 2.405238
v -3.677248 2.520856 2.405238
v -3.233889 2.150610 2.405238
v -2.753511 1.829852 2.405238
v -2.241613 1.562252 2.405238
v -1.704055 1.350873 2.405238
v -1.146991 1.198136 2.405238
v -0.576797 1.105789 2.405238
v -0.000000 1.074889 2.405238
v 0.576796 1.105789 2.405238
v 1.146990 1.198136 2.405238
v 1.704054 1.350873 2.405238
v 2.241612 1.562251 2.405238
v 2.753510 1.829851 2.405238
v 3.233888 2.150610 2.405238
v 3.677247 2.520855 2.405238
v 4.078513 2.936349 2.405238
v 4.433091 3.392335 2.405238
v 4.736924 3.883594 2.405238
v 4.986532 4.404501 2.405238
v 5.179060 4.949095 2.405238
v 5.312301 5.511141 2.405238
v 5.384733 6.084205 2.405238
v 5.395524 6.661728 2.405238
v -5.395524 6.661728 -2.405238
v -5.384733 6.084206 -2.405238
v -5.312301 5.511142 -2.405238
v -5.179060 4.949095 -2.405238
v -4.986532 4.404502 -2.405238
v -4.736924 3.883594 -2.405238
v -4.433092 3.392336 -2.405238
v -4.078514 2.936349 -2.405238
v -3.677248 2.520856 -2.405238
v -3.233889 2.150610 -2.405238
v -2.753511 1.829852 -2.405238
v -2.241613 1.562252 -2.405238
v -1.704055 1.350873 -2.405238
v -1.146991 1.198136 -2.405238
v -0.576797 1.105789 -2.405238
v -0.000000 1.074889 -2.405238
v 0.576796 1.105789 -2.405238
v 1.146990 1.198136 -2.405238
v 1.704054 1.350873 -2.405238
v 2.241612 1.562251 -2.405238
v 2.753510 1.829851 -2.405238
v 3.233888 2.150610 -2.405238
v 3.677247 2.520855 -2.405238
v 4.078513 2.936349 -2.405238
v 4.433091 3.392335 -2.405238
v 4.736924 3.883594 -2.405238
v 4.986532 4.404501 -2.405238
v 5.179060 4.949095 -2.405238
v 5.312301 5.511141 -2.405238
v 5.384733 6.084205 -2.405238
v 5.395524 6.661728 -2.405238
v -6.203171 6.689877 -2.405238
v -6.190763 6.025905 -2.405238
v -6.107490 5.367059 -2.405238
v -5.954304 4.720882 -2.405238
v -5.732958 4.094769 -2.405238
v -5.445986 3.495887 -2.405238
v -5.096673 2.931093 -2.405238
v -4.689019 2.406851 -2.405238
v -4.227688 1.929163 -2.405238
v -3.717963 1.503496 -2.405238
v -3.165679 1.134724 -2.405238
v -2.577156 0.827067 -2.405238
v -1.959132 0.584048 -2.405238
v -1.318682 0.408448 -2.405238
v -0.663137 0.302278 -2.405238
v -0.000000 0.266752 -2.405238
v 0.663136 0.302278 -2.405238
v 1.318681 0.408448 -2.405238
v 1.959131 0.584048 -2.405238
v 2.577155 0.827067 -2.405238
v 3.165678 1.134724 -2.405238
v 3.717963 1.503496 -2.405238
v 4.227688 1.929163 -2.405238
v 4.689018 2.406851 -2.405238
v 5.096673 2.931093 -2.405238
v 5.445986 3.495887 -2.405238
v 5.732958 4.094768 -2.405238
v 5.954304 4.720881 -2.405238
v 6.107490 5.367059 -2.405238
v 6.190763 6.025904 -2.405238
v 6.203171 6.689876 -2.405238
vt 0.480493 0.004386
vt 0.242216 0.956275
vt 0.480495 0.072880
vt 0.480494 0.044330
vt 0.242214 0.923451
vt 0.480496 0.101430
vt 0.242213 0.890628
vt 0.480497 0.129980
vt 0.242212 0.857804
vt 0.480497 0.158530
vt 0.242211 0.824980
vt 0.480498 0.187080
vt 0.242210 0.792156
vt 0.480499 0.215631
vt 0.242208 0.759333
vt 0.480500 0.244181
vt 0.242207 0.726509
vt 0.480501 0.272731
vt 0.242206 0.693685
vt 0.480502 0.301281
vt 0.242205 0.660861
vt 0.480503 0.329831
vt 0.242204 0.628038
vt 0.480504 0.358381
vt 0.242203 0.595214
vt 0.480505 0.386931
vt 0.242202 0.562390
vt 0.480506 0.415482
vt 0.242201 0.529566
vt 0.480507 0.444032
vt 0.242199 0.496743
vt 0.480508 0.472582
vt 0.242198 0.463919
vt 0.480509 0.501132
vt 0.242197 0.431095
vt 0.480509 0.529682
vt 0.242196 0.398271
vt 0.480510 0.558232
vt 0.242195 0.365448
vt 0.480511 0.586783
vt 0.242193 0.332624
vt 0.480512 0.615332
vt 0.242192 0.299800
vt 0.480513 0.643883
vt 0.242191 0.266976
vt 0.480514 0.672433
vt 0.242190 0.234152
vt 0.480515 0.700983
vt 0.242189 0.201329
vt 0.480516 0.729533
vt 0.242188 0.168505
vt 0.480517 0.758083
vt 0.242187 0.135681
vt 0.480518 0.786633
vt 0.242185 0.102858
vt 0.480519 0.815184
vt 0.242184 0.070034
vt 0.480520 0.843734
vt 0.242183 0.037210
vt 0.480521 0.872284
vt 0.242182 0.004386
vt 0.480521 0.900834
vt 0.510980 0.577145
vt 0.482434 0.577674
vt 0.539305 0.573570
vt 0.567086 0.566989
vt 0.594006 0.557478
vt 0.619754 0.545145
vt 0.644038 0.530131
vt 0.666579 0.512610
vt 0.687119 0.492780
vt 0.705423 0.470869
vt 0.721281 0.447128
vt 0.734512 0.421829
vt 0.744965 0.395261
vt 0.752519 0.367728
vt 0.757088 0.339546
vt 0.758620 0.311037
vt 0.757098 0.282528
vt 0.752538 0.254344
vt 0.744993 0.226809
vt 0.734550 0.200237
vt 0.721328 0.174933
vt 0.705478 0.151187
vt 0.687182 0.129270
vt 0.666648 0.109433
vt 0.644113 0.091904
vt 0.619835 0.076882
vt 0.594090 0.064540
vt 0.567174 0.055020
vt 0.539395 0.048429
vt 0.511071 0.044844
vt 0.242755 0.900842
vt 0.004449 0.956284
vt 0.004450 0.989107
vt 0.004447 0.923460
vt 0.004446 0.890636
vt 0.004445 0.857812
vt 0.004444 0.824989
vt 0.004443 0.792165
vt 0.004442 0.759341
vt 0.004440 0.726517
vt 0.004439 0.693694
vt 0.004438 0.660870
vt 0.004437 0.628046
vt 0.004436 0.595222
vt 0.004435 0.562398
vt 0.004433 0.529575
vt 0.004432 0.496751
vt 0.004431 0.463927
vt 0.004430 0.431103
vt 0.004429 0.398280
vt 0.004428 0.365456
vt 0.004427 0.332632
vt 0.004425 0.299809
vt 0.004424 0.266985
vt 0.004423 0.234161
vt 0.004422 0.201337
vt 0.004421 0.168513
vt 0.004420 0.135690
vt 0.004419 0.102866
vt 0.004417 0.070042
vt 0.004416 0.037219
vt 0.242756 0.940786
vt 0.995567 0.988381
vt 0.994177 0.948462
vt 0.965647 0.415626
vt 0.937323 0.419206
vt 0.909542 0.425790
vt 0.882624 0.435306
vt 0.856877 0.447642
vt 0.832595 0.462659
vt 0.810057 0.480184
vt 0.789520 0.500017
vt 0.771219 0.521930
vt 0.755364 0.545673
vt 0.742137 0.570974
vt 0.731688 0.597544
vt 0.724138 0.625078
vt 0.719573 0.653260
vt 0.718045 0.681769
vt 0.719571 0.710279
vt 0.724135 0.738462
vt 0.731683 0.765996
vt 0.742130 0.792566
vt 0.755356 0.817868
vt 0.771209 0.841612
vt 0.789509 0.863526
vt 0.810045 0.883360
vt 0.832582 0.900887
vt 0.856863 0.915905
vt 0.882610 0.928243
vt 0.909527 0.937760
vt 0.937307 0.944346
vt 0.965632 0.947927
vt 0.962767 0.375787
vt 0.930202 0.379902
vt 0.898263 0.387472
vt 0.867316 0.398412
vt 0.837715 0.412595
vt 0.809799 0.429860
vt 0.783886 0.450008
vt 0.760275 0.472809
vt 0.739235 0.498003
vt 0.721007 0.525300
vt 0.705799 0.554388
vt 0.693787 0.584935
vt 0.685107 0.616590
vt 0.679858 0.648992
vt 0.678101 0.681768
vt 0.679856 0.714545
vt 0.685103 0.746947
vt 0.693781 0.778603
vt 0.705792 0.809150
vt 0.720997 0.838239
vt 0.739224 0.865538
vt 0.760263 0.890732
vt 0.783873 0.913535
vt 0.809784 0.933685
vt 0.837699 0.950951
vt 0.867300 0.965136
vt 0.898246 0.976077
vt 0.930184 0.983650
vt 0.962749 0.987767
vt 0.242727 0.044338
vt 0.481036 0.617593
vt 0.513959 0.005005
vt 0.546523 0.009127
vt 0.578460 0.016704
vt 0.609405 0.027649
vt 0.639004 0.041839
vt 0.666917 0.059109
vt 0.692825 0.079262
vt 0.716432 0.102069
vt 0.737467 0.127266
vt 0.755689 0.154567
vt 0.770891 0.183659
vt 0.782897 0.214208
vt 0.791571 0.245864
vt 0.796813 0.278267
vt 0.798564 0.311044
vt 0.796802 0.343821
vt 0.791549 0.376221
vt 0.782864 0.407875
vt 0.770847 0.438420
vt 0.755636 0.467506
vt 0.737404 0.494801
vt 0.716360 0.519991
vt 0.692746 0.542789
vt 0.666831 0.562934
vt 0.638912 0.580195
vt 0.609308 0.594374
vt 0.578360 0.605309
vt 0.546420 0.612875
vt 0.513854 0.616985
vt 0.242754 0.872292
vt 0.242753 0.843741
vt 0.242752 0.815191
vt 0.242751 0.786641
vt 0.242750 0.758091
vt 0.242749 0.729541
vt 0.242748 0.700991
vt 0.242747 0.672441
vt 0.242746 0.643891
vt 0.242745 0.615340
vt 0.242744 0.586790
vt 0.242743 0.558240
vt 0.242743 0.529690
vt 0.242742 0.501140
vt 0.242741 0.472590
vt 0.242740 0.444040
vt 0.242739 0.415489
vt 0.242738 0.386939
vt 0.242737 0.358389
vt 0.242736 0.329839
vt 0.242735 0.301289
vt 0.242734 0.272739
vt 0.242733 0.244188
vt 0.242732 0.215639
vt 0.242731 0.187088
vt 0.242731 0.158538
vt 0.242730 0.129988
vt 0.242729 0.101438
vt 0.242728 0.072888
vt 0.242726 0.004394
vt 0.242217 0.989099
vt 0.481141 0.004386
vt 0.995585 0.375174
vt 0.482526 0.044306
vt 0.994193 0.415094
vt 0.004415 0.004395
vt 0.480523 0.940777
vn 0.000000 0.000000 1.000000
vn -0.000000 0.000000 1.000000
vn 0.000000 0.000000 1.000000
vn 0.000000 0.000000 1.000000
vn 0.000000 0.000000 1.000000
vn -0.000000 0.000000 1.000000
vn 0.000000 0.000000 1.000000
vn 0.000000 0.000000 1.000000
vn 0.000000 0.000000 1.000000
vn 0.000000 0.000000 1.000000
vn 0.000000 0.000000 1.000000
vn 0.000000 0.000000 1.000000
vn 0.000000 0.000000 1.000000
vn 0.000000 0.000000 1.000000
vn 0.000000 0.000000 1.000000
vn 0.000000 0.000000 1.000000
vn -0.000000 0.000000 1.000000
vn -0.000000 0.000000 1.000000
vn -0.000000 0.000000 1.000000
vn -0.000000 0.000000 1.000000
vn -0.000000 0.000000 1.000000
vn -0.000000 0.000000 1.000000
vn -0.000000 0.000000 1.000000
vn -0.000000 0.000000 1.000000
vn -0.000000 0.000000 1.000000
vn -0.000000 0.000000 1.000000
vn 0.000000 0.000000 1.000000
vn 0.000000 0.000000 1.000000
vn 0.000000 0.000000 1.000000
vn 0.000000 0.000000 1.000000
vn 0.000000 0.000000 1.000000
vn 0.000000 0.000000 1.000000
vn 0.000000 0.000000 1.000000
vn 0.000000 0.000000 1.000000
vn 0.000000 0.000000 1.000000
vn 0.000000 0.000000 1.000000
vn 0.000000 0.000000 1.000000
vn 0.000000 0.000000 1.000000
vn 0.000000 0.000000 1.000000
vn 0.000000 0.000000 1.000000
vn 0.000000 0.000000 1.000000
vn 0.000000 0.000000 1.000000
vn 0.000000 0.000000 1.000000
vn 0.000000 0.000000 1.000000
vn 0.000000 0.000000 1.000000
vn 0.000000 0.000000 1.000000
vn 0.000000 0.000000 1.000000
vn 0.000000 0.000000 1.000000
vn 0.000000 0.000000 1.000000
vn 0.000000 0.000000 1.000000
vn 0.000000 0.000000 1.000000
vn 0.000000 0.000000 1.000000
vn 0.000000 0.000000 1.000000
vn 0.000000 0.000000 1.000000
vn 0.000000 0.000000 1.000000
vn -0.000000 0.000000 1.000000
vn -0.000000 0.000000 1.000000
vn -0.000000 0.000000 1.000000
vn -0.000000 0.000000 1.000000
vn -0.000000 0.000000 1.000000
vn -0.000000 0.000000 1.000000
vn -0.000000 0.000000 1.000000
vn 0.999825 0.018683 0.000000
vn 0.997394 0.072143 0.000000
vn 0.997394 0.072143 0.000000
vn 0.999825 0.018683 0.000000
vn 0.983978 0.178289 0.000000
vn 0.983978 0.178289 0.000000
vn 0.959298 0.282395 0.000000
vn 0.959298 0.282395 0.000000
vn 0.923637 0.383268 0.000000
vn 0.923637 0.383268 0.000000
vn 0.877403 0.479753 0.000000
vn 0.877403 0.479753 0.000000
vn 0.821126 0.570747 0.000000
vn 0.821126 0.570747 0.000000
vn 0.755448 0.655208 0.000000
vn 0.755448 0.655208 0.000000
vn 0.681123 0.732169 0.000000
vn 0.681123 0.732169 0.000000
vn 0.599001 0.800748 0.000000
vn 0.599001 0.800748 0.000000
vn 0.510023 0.860161 0.000000
vn 0.510023 0.860161 0.000000
vn 0.415206 0.909728 0.000000
vn 0.415206 0.909728 0.000000
vn 0.315636 0.948880 0.000000
vn 0.315636 0.948880 0.000000
vn 0.212453 0.977171 0.000000
vn 0.212453 0.977171 0.000000
vn 0.106838 0.994277 0.000000
vn 0.106838 0.994277 0.000000
vn 0.000000 1.000000 0.000000
vn 0.000000 1.000000 0.000000
vn -0.106838 0.994276 0.000000
vn -0.106838 0.994276 0.000000
vn -0.212453 0.977171 0.000000
vn -0.212453 0.977171 0.000000
vn -0.315636 0.948880 0.000000
vn -0.315636 0.948880 0.000000
vn -0.415206 0.909728 0.000000
vn -0.415206 0.909728 0.000000
vn -0.510023 0.860161 0.000000
vn -0.510023 0.860161 0.000000
vn -0.599001 0.800748 0.000000
vn -0.599001 0.800748 0.000000
vn -0.681123 0.732169 0.000000
vn -0.681123 0.732169 0.000000
vn -0.755448 0.655208 0.000000
vn -0.755448 0.655208 0.000000
vn -0.821125 0.570748 0.000000
vn -0.821125 0.570748 0.000000
vn -0.877403 0.479754 0.000000
vn -0.877403 0.479754 0.000000
vn -0.923637 0.383268 0.000000
vn -0.923637 0.383268 0.000000
vn -0.959298 0.282395 0.000000
vn -0.959298 0.282395 0.000000
vn -0.983978 0.178289 0.000000
vn -0.983978 0.178289 0.000000
vn -0.997394 0.072143 0.000000
vn -0.997394 0.072143 0.000000
vn -0.999825 0.018683 0.000000
vn -0.999825 0.018683 0.000000
vn 0.000000 0.000000 -1.000000
vn 0.000000 0.000000 -1.000000
vn -0.000000 0.000000 -1.000000
vn 0.000000 0.000000 -1.000000
vn -0.000000 0.000000 -1.000000
vn 0.000000 0.000000 -1.000000
vn 0.000000 0.000000 -1.000000
vn 0.000000 0.000000 -1.000000
vn 0.000000 0.000000 -1.000000
vn 0.000000 0.000000 -1.000000
vn 0.000000 0.000000 -1.000000
vn 0.000000 0.000000 -1.000000
vn 0.000000 0.000000 -1.000000
vn 0.000000 0.000000 -1.000000
vn 0.000000 0.000000 -1.000000
vn 0.000000 0.000000 -1.000000
vn 0.000000 0.000000 -1.000000
vn 0.000000 0.000000 -1.000000
vn 0.000000 0.000000 -1.000000
vn 0.000000 0.000000 -1.000000
vn 0.000000 0.000000 -1.000000
vn 0.000000 0.000000 -1.000000
vn 0.000000 0.000000 -1.000000
vn -0.000000 0.000000 -1.000000
vn -0.000000 0.000000 -1.000000
vn -0.000000 0.000000 -1.000000
vn 0.000000 0.000000 -1.000000
vn 0.000000 0.000000 -1.000000
vn 0.000000 0.000000 -1.000000
vn 0.000000 0.000000 -1.000000
vn 0.000000 0.000000 -1.000000
vn 0.000000 0.000000 -1.000000
vn 0.000000 0.000000 -1.000000
vn 0.000000 0.000000 -1.000000
vn 0.000000 0.000000 -1.000000
vn 0.000000 0.000000 -1.000000
vn 0.000000 0.000000 -1.000000
vn 0.000000 0.000000 -1.000000
vn -0.000000 0.000000 -1.000000
vn -0.000000 0.000000 -1.000000
vn -0.000000 0.000000 -1.000000
vn -0.000000 0.000000 -1.000000
vn 0.000000 0.000000 -1.000000
vn 0.000000 0.000000 -1.000000
vn 0.000000 0.000000 -1.000000
vn 0.000000 0.000000 -1.000000
vn 0.000000 0.000000 -1.000000
vn 0.000000 0.000000 -1.000000
vn -0.000000 0.000000 -1.000000
vn -0.000000 0.000000 -1.000000
vn -0.000000 0.000000 -1.000000
vn -0.000000 0.000000 -1.000000
vn 0.000000 0.000000 -1.000000
vn 0.000000 0.000000 -1.000000
vn -0.000000 0.000000 -1.000000
vn -0.000000 0.000000 -1.000000
vn -0.000000 0.000000 -1.000000
vn -0.000000 0.000000 -1.000000
vn -0.000000 0.000000 -1.000000
vn -0.000000 0.000000 -1.000000
vn -0.000000 0.000000 -1.000000
vn -0.000000 0.000000 -1.000000
vn -0.999825 -0.018683 0.000000
vn -0.997394 -0.072143 0.000000
vn -0.997394 -0.072143 0.000000
vn -0.999825 -0.018683 0.000000
vn -0.983978 -0.178289 0.000000
vn -0.983978 -0.178289 0.000000
vn -0.959298 -0.282395 0.000000
vn -0.959298 -0.282395 0.000000
vn -0.923637 -0.383268 0.000000
vn -0.923637 -0.383268 0.000000
vn -0.877403 -0.479754 0.000000
vn -0.877403 -0.479754 0.000000
vn -0.821125 -0.570748 0.000000
vn -0.821125 -0.570748 0.000000
vn -0.755448 -0.655208 0.000000
vn -0.755448 -0.655208 0.000000
vn -0.681123 -0.732169 0.000000
vn -0.681123 -0.732169 0.000000
vn -0.599001 -0.800748 0.000000
vn -0.599001 -0.800748 0.000000
vn -0.510023 -0.860161 0.000000
vn -0.510023 -0.860161 0.000000
vn -0.415206 -0.909728 0.000000
vn -0.415206 -0.909728 0.000000
vn -0.315636 -0.948880 0.000000
vn -0.315636 -0.948880 0.000000
vn -0.212453 -0.977171 0.000000
vn -0.212453 -0.977171 0.000000
vn -0.106838 -0.994277 0.000000
vn -0.106838 -0.994277 0.000000
vn -0.000000 -1.000000 0.000000
vn -0.000000 -1.000000 0.000000
vn 0.106838 -0.994276 0.000000
vn 0.106838 -0.994276 0.000000
vn 0.212453 -0.977171 0.000000
vn 0.212453 -0.977171 0.000000
vn 0.315636 -0.948880 0.000000
vn 0.315636 -0.948880 0.000000
vn 0.415206 -0.909728 0.000000
vn 0.415206 -0.909728 0.000000
vn 0.510022 -0.860161 0.000000
vn 0.510022 -0.860161 0.000000
vn 0.599001 -0.800748 0.000000
vn 0.599001 -0.800748 0.000000
vn 0.681123 -0.732169 0.000000
vn 0.681123 -0.732169 0.000000
vn 0.755448 -0.655208 0.000000
vn 0.755448 -0.655208 0.000000
vn 0.821125 -0.570748 0.000000
vn 0.821125 -0.570748 0.000000
vn 0.877403 -0.479754 0.000000
vn 0.877403 -0.479754 0.000000
vn 0.923637 -0.383268 0.000000
vn 0.923637 -0.383268 0.000000
vn 0.959298 -0.282395 0.000000
vn 0.959298 -0.282395 0.000000
vn 0.983978 -0.178289 0.000000
vn 0.983978 -0.178289 0.000000
vn 0.997394 -0.072143 0.000000
vn 0.997394 -0.072143 0.000000
vn 0.999825 -0.018683 0.000000
vn 0.999825 -0.018683 0.000000
vn -0.034830 0.999393 0.000000
vn -0.034830 0.999393 0.000000
vn -0.034830 0.999393 0.000000
vn -0.034830 0.999393 0.000000
vn 0.034831 0.999393 0.000000
vn 0.034831 0.999393 0.000000
vn 0.034831 0.999393 0.000000
vn 0.034831 0.999393 0.000000
s 1
g pCube1
usemtl initialShadingGroup
f 1/125/1 2/184/2 33/155/3 32/126/4
f 2/184/2 3/183/5 34/154/6 33/155/3
f 3/183/5 4/182/7 35/153/8 34/154/6
f 4/182/7 5/181/9 36/152/10 35/153/8
f 5/181/9 6/180/11 37/151/12 36/152/10
f 6/180/11 7/179/13 38/150/14 37/151/12
f 7/179/13 8/178/15 39/149/16 38/150/14
f 8/178/15 9/177/17 40/148/18 39/149/16
f 9/177/17 10/176/19 41/147/20 40/148/18
f 10/176/19 11/175/21 42/146/22 41/147/20
f 11/175/21 12/174/23 43/145/24 42/146/22
f 12/174/23 13/173/25 44/144/26 43/145/24
f 13/173/25 14/172/27 45/143/28 44/144/26
f 14/172/27 15/171/29 46/142/30 45/143/28
f 15/171/29 16/170/31 47/141/32 46/142/30
f 16/170/31 17/169/33 48/140/34 47/141/32
f 17/169/33 18/168/35 49/139/36 48/140/34
f 18/168/35 19/167/37 50/138/38 49/139/36
f 19/167/37 20/166/39 51/137/40 50/138/38
f 20/166/39 21/165/41 52/136/42 51/137/40
f 21/165/41 22/164/43 53/135/44 52/136/42
f 22/164/43 23/163/45 54/134/46 53/135/44
f 23/163/45 24/162/47 55/133/48 54/134/46
f 24/162/47 25/161/49 56/132/50 55/133/48
f 25/161/49 26/160/51 57/131/52 56/132/50
f 26/160/51 27/159/53 58/130/54 57/131/52
f 27/159/53 28/158/55 59/129/56 58/130/54
f 28/158/55 29/157/57 60/128/58 59/129/56
f 29/157/57 30/156/59 61/127/60 60/128/58
f 30/156/59 31/248/61 62/250/62 61/127/60
s 2
f 32/4/63 33/3/64 64/244/65 63/185/66
f 33/3/64 34/6/67 65/243/68 64/244/65
f 34/6/67 35/8/69 66/242/70 65/243/68
f 35/8/69 36/10/71 67/241/72 66/242/70
f 36/10/71 37/12/73 68/240/74 67/241/72
f 37/12/73 38/14/75 69/239/76 68/240/74
f 38/14/75 39/16/77 70/238/78 69/239/76
f 39/16/77 40/18/79 71/237/80 70/238/78
f 40/18/79 41/20/81 72/236/82 71/237/80
f 41/20/81 42/22/83 73/235/84 72/236/82
f 42/22/83 43/24/85 74/234/86 73/235/84
f 43/24/85 44/26/87 75/233/88 74/234/86
f 44/26/87 45/28/89 76/232/90 75/233/88
f 45/28/89 46/30/91 77/231/92 76/232/90
f 46/30/91 47/32/93 78/230/94 77/231/92
f 47/32/93 48/34/95 79/229/96 78/230/94
f 48/34/95 49/36/97 80/228/98 79/229/96
f 49/36/97 50/38/99 81/227/100 80/228/98
f 50/38/99 51/40/101 82/226/102 81/227/100
f 51/40/101 52/42/103 83/225/104 82/226/102
f 52/42/103 53/44/105 84/224/106 83/225/104
f 53/44/105 54/46/107 85/223/108 84/224/106
f 54/46/107 55/48/109 86/222/110 85/223/108
f 55/48/109 56/50/111 87/221/112 86/222/110
f 56/50/111 57/52/113 88/220/114 87/221/112
f 57/52/113 58/54/115 89/219/116 88/220/114
f 58/54/115 59/56/117 90/218/118 89/219/116
f 59/56/117 60/58/119 91/217/120 90/218/118
f 60/58/119 61/60/121 92/216/122 91/217/120
f 61/60/121 62/62/123 93/93/124 92/216/122
s 3
f 63/64/125 64/63/126 95/215/127 94/186/128
f 64/63/126 65/65/129 96/214/130 95/215/127
f 65/65/129 66/66/131 97/213/132 96/214/130
f 66/66/131 67/67/133 98/212/134 97/213/132
f 67/67/133 68/68/135 99/211/136 98/212/134
f 68/68/135 69/69/137 100/210/138 99/211/136
f 69/69/137 70/70/139 101/209/140 100/210/138
f 70/70/139 71/71/141 102/208/142 101/209/140
f 71/71/141 72/72/143 103/207/144 102/208/142
f 72/72/143 73/73/145 104/206/146 103/207/144
f 73/73/145 74/74/147 105/205/148 104/206/146
f 74/74/147 75/75/149 106/204/150 105/205/148
f 75/75/149 76/76/151 107/203/152 106/204/150
f 76/76/151 77/77/153 108/202/154 107/203/152
f 77/77/153 78/78/155 109/201/156 108/202/154
f 78/78/155 79/79/157 110/200/158 109/201/156
f 79/79/157 80/80/159 111/199/160 110/200/158
f 80/80/159 81/81/161 112/198/162 111/199/160
f 81/81/161 82/82/163 113/197/164 112/198/162
f 82/82/163 83/83/165 114/196/166 113/197/164
f 83/83/165 84/84/167 115/195/168 114/196/166
f 84/84/167 85/85/169 116/194/170 115/195/168
f 85/85/169 86/86/171 117/193/172 116/194/170
f 86/86/171 87/87/173 118/192/174 117/193/172
f 87/87/173 88/88/175 119/191/176 118/192/174
f 88/88/175 89/89/177 120/190/178 119/191/176
f 89/89/177 90/90/179 121/189/180 120/190/178
f 90/90/179 91/91/181 122/188/182 121/189/180
f 91/91/181 92/92/183 123/187/184 122/188/182
f 92/92/183 93/249/185 124/247/186 123/187/184
s 4
f 94/95/187 95/94/188 2/2/189 1/246/190
f 95/94/188 96/96/191 3/5/192 2/2/189
f 96/96/191 97/97/193 4/7/194 3/5/192
f 97/97/193 98/98/195 5/9/196 4/7/194
f 98/98/195 99/99/197 6/11/198 5/9/196
f 99/99/197 100/100/199 7/13/200 6/11/198
f 100/100/199 101/101/201 8/15/202 7/13/200
f 101/101/201 102/102/203 9/17/204 8/15/202
f 102/102/203 103/103/205 10/19/206 9/17/204
f 103/103/205 104/104/207 11/21/208 10/19/206
f 104/104/207 105/105/209 12/23/210 11/21/208
f 105/105/209 106/106/211 13/25/212 12/23/210
f 106/106/211 107/107/213 14/27/214 13/25/212
f 107/107/213 108/108/215 15/29/216 14/27/214
f 108/108/215 109/109/217 16/31/218 15/29/216
f 109/109/217 110/110/219 17/33/220 16/31/218
f 110/110/219 111/111/221 18/35/222 17/33/220
f 111/111/221 112/112/223 19/37/224 18/35/222
f 112/112/223 113/113/225 20/39/226 19/37/224
f 113/113/225 114/114/227 21/41/228 20/39/226
f 114/114/227 115/115/229 22/43/230 21/41/228
f 115/115/229 116/116/231 23/45/232 22/43/230
f 116/116/231 117/117/233 24/47/234 23/45/232
f 117/117/233 118/118/235 25/49/236 24/47/234
f 118/118/235 119/119/237 26/51/238 25/49/236
f 119/119/237 120/120/239 27/53/240 26/51/238
f 120/120/239 121/121/241 28/55/242 27/53/240
f 121/121/241 122/122/243 29/57/244 28/55/242
f 122/122/243 123/123/245 30/59/246 29/57/244
f 123/123/245 124/251/247 31/61/248 30/59/246
s off
f 31/252/249 124/124/250 93/93/251 62/62/252
f 94/245/253 1/1/254 32/4/255 63/185/256
