# This file uses centimeters as units for non-parametric coordinates.

mtllib highramp.mtl
g default
v -3.342161 -26.216419 18.638510
v 3.342161 -26.216419 18.638510
v -3.342161 -26.209139 18.222623
v 3.342161 -26.209139 18.222623
v -3.342161 -26.166145 17.808903
v 3.342161 -26.166145 17.808903
v -3.342161 -26.087751 17.400406
v 3.342161 -26.087751 17.400406
v -3.342161 -25.974540 17.000158
v 3.342161 -25.974540 17.000158
v -3.342161 -25.827350 16.611122
v 3.342161 -25.827350 16.611122
v -3.342161 -25.647268 16.236175
v 3.342161 -25.647268 16.236175
v -3.342161 -25.435625 15.878094
v 3.342161 -25.435625 15.878094
v -3.342161 -25.193995 15.539525
v 3.342161 -25.193995 15.539525
v -3.342161 -24.924159 15.222977
v 3.342161 -24.924159 15.222977
v -3.342161 -24.628116 14.930791
v 3.342161 -24.628116 14.930791
v -3.342161 -24.308058 14.665129
v 3.342161 -24.308058 14.665129
v -3.342161 -23.966350 14.427958
v 3.342161 -23.966350 14.427958
v -3.342161 -23.605524 14.221032
v 3.342161 -23.605524 14.221032
v -3.342161 -23.228248 14.045883
v 3.342161 -23.228248 14.045883
v -3.342161 -22.837315 13.903806
v 3.342161 -22.837315 13.903806
v -3.342161 -22.435618 13.795852
v 3.342161 -22.435618 13.795852
v -3.342161 -22.026128 13.722824
v 3.342161 -22.026128 13.722824
v -3.342161 -21.611880 13.685256
v 3.342161 -21.611880 13.685256
v -3.342161 -19.570074 13.678833
v 3.342161 -19.570074 13.678833
v -3.342161 -17.485366 13.547170
v 3.342161 -17.485366 13.547170
v -3.342161 -15.426313 13.195502
v 3.342161 -15.426313 13.195502
v -3.342161 -13.416075 12.627779
v 3.342161 -13.416075 12.627779
v -3.342161 -11.477257 11.850388
v 3.342161 -11.477257 11.850388
v -3.342161 -9.631655 10.872068
v 3.342161 -9.631655 10.872068
v -3.342161 -7.900023 9.703821
v 3.342161 -7.900023 9.703821
v -3.342161 -6.301827 8.358779
v 3.342161 -6.301827 8.358779
v -3.342161 -4.855040 6.852069
v 3.342161 -4.855040 6.852069
v -3.342161 -3.575935 5.200631
v 3.342161 -3.575935 5.200631
v -3.342161 -2.478885 3.423037
v 3.342161 -2.478885 3.423037
v -3.342161 -1.576234 1.539271
v 3.342161 -1.576234 1.539271
v -3.342161 -0.878124 -0.429487
v 3.342161 -0.878124 -0.429487
v -3.342161 -0.392409 -2.461098
v 3.342161 -0.392409 -2.461098
v -3.342161 -0.124549 -4.532721
v 3.342161 -0.124549 -4.532721
v -3.342161 -0.077557 -6.621058
v 3.342161 -0.077557 -6.621058
v -3.342161 -0.251958 -8.702633
v 3.342161 -0.251958 -8.702633
v -3.342161 -0.645797 -10.754037
v 3.342161 -0.645797 -10.754037
v -3.342161 -1.254639 -12.752207
v 3.342161 -1.254639 -12.752207
v -3.342161 -2.071647 -14.674675
v 3.342161 -2.071647 -14.674675
v -3.342161 -3.087623 -16.499816
v 3.342161 -3.087623 -16.499816
v -3.342161 -4.291154 -18.207118
v 3.342161 -4.291154 -18.207118
v -3.342161 -5.668698 -19.777381
v 3.342161 -5.668698 -19.777381
v -3.342161 -7.204760 -21.192940
v 3.342161 -7.204760 -21.192940
v -3.342161 -7.751647 -20.532407
v 3.342161 -7.751647 -20.532407
v -3.342161 -9.112794 -18.888405
v 3.342161 -9.112794 -18.888405
v -3.342161 -10.066811 -17.736138
v 3.342161 -10.066811 -17.736138
v -3.342161 -8.880684 -16.643062
v 3.342161 -8.880684 -16.643062
v -3.342161 -7.816968 -15.430531
v 3.342161 -7.816968 -15.430531
v -3.342161 -6.887626 -14.112182
v 3.342161 -6.887626 -14.112182
v -3.342161 -6.103106 -12.702835
v 3.342161 -6.103106 -12.702835
v -3.342161 -5.472233 -11.218345
v 3.342161 -5.472233 -11.218345
v -3.342161 -5.002097 -9.675398
v 3.342161 -5.002097 -9.675398
v -3.342161 -4.697984 -8.091339
v 3.342161 -4.697984 -8.091339
v -3.342161 -4.563315 -6.483987
v 3.342161 -4.563315 -6.483987
v -3.342161 -4.599601 -4.871408
v 3.342161 -4.599601 -4.871408
v -3.342161 -4.806441 -3.271740
v 3.342161 -4.806441 -3.271740
v -3.342161 -5.181503 -1.702966
v 3.342161 -5.181503 -1.702966
v -3.342161 -5.720571 -0.182729
v 3.342161 -5.720571 -0.182729
v -3.342161 -6.417585 1.271881
v 3.342161 -6.417585 1.271881
v -3.342161 -7.264706 2.644508
v 3.342161 -7.264706 2.644508
v -3.342161 -8.252411 3.919715
v 3.342161 -8.252411 3.919715
v -3.342161 -9.369594 5.083168
v 3.342161 -9.369594 5.083168
v -3.342161 -10.603690 6.121782
v 3.342161 -10.603690 6.121782
v -3.342161 -11.940825 7.023880
v 3.342161 -11.940825 7.023880
v -3.342161 -13.365970 7.779321
v 3.342161 -13.365970 7.779321
v -3.342161 -14.863090 8.379607
v 3.342161 -14.863090 8.379607
v -3.342161 -16.415359 8.817989
v 3.342161 -16.415359 8.817989
v -3.342161 -18.005321 9.089540
v 3.342161 -18.005321 9.089540
v -3.342161 -19.615096 9.191206
v 3.342161 -19.615096 9.191206
v -3.342161 -21.824591 9.202447
v 3.342161 -21.824591 9.202447
v -3.342161 -22.623323 9.274882
v 3.342161 -22.623323 9.274882
v -3.342161 -23.412877 9.415695
v 3.342161 -23.412877 9.415695
v -3.342161 -24.187407 9.623844
v 3.342161 -24.187407 9.623844
v -3.342161 -24.941183 9.897788
v 3.342161 -24.941183 9.897788
v -3.342161 -25.668627 10.235504
v 3.342161 -25.668627 10.235504
v -3.342161 -26.364350 10.634489
v 3.342161 -26.364350 10.634489
v -3.342161 -27.023211 11.091791
v 3.342161 -27.023211 11.091791
v -3.342161 -27.640333 11.604027
v 3.342161 -27.640333 11.604027
v -3.342161 -28.211145 12.167405
v 3.342161 -28.211145 12.167405
v -3.342161 -28.731428 12.777757
v 3.342161 -28.731428 12.777757
v -3.342161 -29.197333 13.430566
v 3.342161 -29.197333 13.430566
v -3.342161 -29.605407 14.121002
v 3.342161 -29.605407 14.121002
v -3.342161 -29.952627 14.843954
v 3.342161 -29.952627 14.843954
v -3.342161 -30.236433 15.594074
v 3.342161 -30.236433 15.594074
v -3.342161 -30.454722 16.365808
v 3.342161 -30.454722 16.365808
v -3.342161 -30.605875 17.153447
v 3.342161 -30.605875 17.153447
v -3.342161 -30.688773 17.951166
v 3.342161 -30.688773 17.951166
v -3.342161 -30.702812 18.753048
v 3.342161 -30.702812 18.753048
v -3.342161 -29.207346 18.714868
v 3.342161 -29.207346 18.714868
v -3.342161 -27.073689 18.660398
v 3.342161 -27.073689 18.660398
v 3.342161 -29.195563 18.041647
v 3.342161 -27.065119 18.170752
v 3.342161 -29.125963 17.371929
v 3.342161 -27.014499 17.683655
v 3.342161 -28.999065 16.710671
v 3.342161 -26.922202 17.202711
v 3.342161 -28.815802 16.062763
v 3.342161 -26.788914 16.731480
v 3.342161 -28.577535 15.433006
v 3.342161 -26.615618 16.273445
v 3.342161 -28.286025 14.826056
v 3.342161 -26.403597 15.832002
v 3.342161 -27.943428 14.246405
v 3.342161 -26.154422 15.410413
v 3.342161 -27.552283 13.698343
v 3.342161 -25.869936 15.011799
v 3.342161 -27.115480 13.185925
v 3.342161 -25.552244 14.639111
v 3.342161 -26.636258 12.712945
v 3.342161 -25.203697 14.295104
v 3.342161 -26.118157 12.282901
v 3.342161 -24.826875 13.982327
v 3.342161 -25.565012 11.898975
v 3.342161 -24.424564 13.703092
v 3.342161 -24.980920 11.564010
v 3.342161 -23.999745 13.459466
v 3.342161 -24.370200 11.280485
v 3.342161 -23.555559 13.253254
v 3.342161 -23.737372 11.050496
v 3.342161 -23.095291 13.085979
v 3.342161 -23.087119 10.875745
v 3.342161 -22.622353 12.958881
v 3.342161 -22.424254 10.757528
v 3.342161 -22.140243 12.872899
v 3.342161 -21.753682 10.696717
v 3.342161 -21.652524 12.828670
v 3.342161 -19.600079 10.687081
v 3.342161 -19.578675 12.821325
v 3.342161 -17.831992 10.575416
v 3.342161 -17.584716 12.695395
v 3.342161 -16.085667 10.277158
v 3.342161 -15.615300 12.359035
v 3.342161 -14.380742 9.795660
v 3.342161 -13.692571 11.816027
v 3.342161 -12.736389 9.136338
v 3.342161 -11.838155 11.072477
v 3.342161 -11.171096 8.306605
v 3.342161 -10.072896 10.136746
v 3.342161 -9.702462 7.315790
v 3.342161 -8.416645 9.019354
v 3.342161 -8.346999 6.175031
v 3.342161 -6.888022 7.732866
v 3.342161 -7.119948 4.897159
v 3.342161 -5.504217 6.291745
v 3.342161 -6.035109 3.496539
v 3.342161 -4.280792 4.712197
v 3.342161 -5.104681 1.988923
v 3.342161 -3.231501 3.011986
v 3.342161 -4.339122 0.391263
v 3.342161 -2.368142 1.210225
v 3.342161 -3.747041 -1.278482
v 3.342161 -1.700423 -0.672829
v 3.342161 -3.335095 -3.001536
v 3.342161 -1.235853 -2.616001
v 3.342161 -3.107919 -4.758522
v 3.342161 -0.979653 -4.597440
v 3.342161 -3.068063 -6.529688
v 3.342161 -0.934706 -6.594872
v 3.342161 -3.215975 -8.295112
v 3.342161 -1.101516 -8.585829
v 3.342161 -3.549998 -10.034952
v 3.342161 -1.478210 -10.547932
v 3.342161 -4.066373 -11.729641
v 3.342161 -2.060550 -12.459116
v 3.342161 -4.759292 -13.360126
v 3.342161 -2.841989 -14.297893
v 3.342161 -5.620964 -14.908065
v 3.342161 -3.813739 -16.043582
v 3.342161 -6.641704 -16.356068
v 3.342161 -4.964877 -17.676567
v 3.342161 -7.810028 -17.687845
v 3.342161 -6.282455 -19.178470
v -3.342161 -29.195563 18.041647
v -3.342161 -27.065119 18.170752
v -3.342161 -29.125963 17.371929
v -3.342161 -27.014499 17.683655
v -3.342161 -28.999065 16.710671
v -3.342161 -26.922202 17.202711
v -3.342161 -28.815802 16.062763
v -3.342161 -26.788914 16.731480
v -3.342161 -28.577535 15.433006
v -3.342161 -26.615616 16.273447
v -3.342161 -28.286025 14.826056
v -3.342161 -26.403597 15.832002
v -3.342161 -27.943428 14.246406
v -3.342161 -26.154422 15.410413
v -3.342161 -27.552283 13.698343
v -3.342161 -25.869936 15.011800
v -3.342161 -27.115480 13.185926
v -3.342161 -25.552244 14.639111
v -3.342161 -26.636258 12.712945
v -3.342161 -25.203697 14.295105
v -3.342161 -26.118157 12.282901
v -3.342161 -24.826875 13.982327
v -3.342161 -25.565012 11.898976
v -3.342161 -24.424564 13.703092
v -3.342161 -24.980920 11.564011
v -3.342161 -23.999745 13.459466
v -3.342161 -24.370200 11.280485
v -3.342161 -23.555559 13.253254
v -3.342161 -23.737372 11.050496
v -3.342161 -23.095291 13.085979
v -3.342161 -23.087119 10.875746
v -3.342161 -22.622353 12.958881
v -3.342161 -22.424254 10.757528
v -3.342161 -22.140243 12.872899
v -3.342161 -21.753682 10.696717
v -3.342161 -21.652524 12.828671
v -3.342161 -19.600079 10.687081
v -3.342161 -19.578675 12.821326
v -3.342161 -17.831992 10.575417
v -3.342161 -17.584716 12.695395
v -3.342161 -16.085667 10.277158
v -3.342161 -15.615300 12.359036
v -3.342161 -14.380742 9.795660
v -3.342161 -13.692571 11.816027
v -3.342161 -12.736389 9.136339
v -3.342161 -11.838154 11.072477
v -3.342161 -11.171095 8.306605
v -3.342161 -10.072896 10.136747
v -3.342161 -9.702462 7.315790
v -3.342161 -8.416645 9.019355
v -3.342161 -8.346998 6.175032
v -3.342161 -6.888022 7.732866
v -3.342161 -7.119948 4.897159
v -3.342161 -5.504217 6.291746
v -3.342161 -6.035109 3.496539
v -3.342161 -4.280792 4.712198
v -3.342161 -5.104681 1.988923
v -3.342161 -3.231501 3.011987
v -3.342161 -4.339122 0.391264
v -3.342161 -2.368142 1.210225
v -3.342161 -3.747041 -1.278482
v -3.342161 -1.700423 -0.672829
v -3.342161 -3.335095 -3.001536
v -3.342161 -1.235853 -2.616001
v -3.342161 -3.107917 -4.758522
v -3.342161 -0.979652 -4.597440
v -3.342161 -3.068063 -6.529688
v -3.342161 -0.934705 -6.594872
v -3.342161 -3.215975 -8.295112
v -3.342161 -1.101516 -8.585829
v -3.342161 -3.549998 -10.034952
v -3.342161 -1.478210 -10.547932
v -3.342161 -4.066371 -11.729641
v -3.342161 -2.060548 -12.459116
v -3.342161 -4.759292 -13.360126
v -3.342161 -2.841989 -14.297893
v -3.342161 -5.620963 -14.908065
v -3.342161 -3.813739 -16.043582
v -3.342161 -6.641704 -16.356068
v -3.342161 -4.964877 -17.676567
v -3.342161 -7.810028 -17.687845
v -3.342161 -6.282455 -19.178470
v -3.342161 -30.702812 23.054526
v 3.342161 -30.702812 23.054526
v 3.342161 -29.207346 23.016347
v -3.342161 -29.207346 23.016347
v 3.342161 -27.073689 22.961871
v -3.342161 -27.073689 22.961871
v 3.342161 -26.216419 22.939988
v -3.342161 -26.216419 22.939988
vt 0.395883 0.192338
vt 0.062216 0.111948
vt 0.195404 0.397547
vt 0.396357 0.196582
vt 0.199591 0.398385
vt 0.397195 0.200770
vt 0.203691 0.399579
vt 0.398389 0.204870
vt 0.207673 0.401121
vt 0.399931 0.208852
vt 0.211508 0.403000
vt 0.401810 0.212687
vt 0.215168 0.405201
vt 0.404012 0.216346
vt 0.218624 0.407709
vt 0.406519 0.219803
vt 0.221853 0.410504
vt 0.409315 0.223031
vt 0.224829 0.413567
vt 0.412378 0.226007
vt 0.227530 0.416874
vt 0.415685 0.228709
vt 0.229938 0.420401
vt 0.419212 0.231116
vt 0.232033 0.424122
vt 0.422933 0.233212
vt 0.233801 0.428009
vt 0.426820 0.234980
vt 0.235229 0.432034
vt 0.430845 0.236407
vt 0.236305 0.436166
vt 0.434978 0.237483
vt 0.237022 0.440376
vt 0.439187 0.238200
vt 0.237375 0.444632
vt 0.443443 0.238553
vt 0.237360 0.448902
vt 0.447714 0.238538
vt 0.235462 0.469779
vt 0.468590 0.236639
vt 0.234803 0.491214
vt 0.490026 0.235979
vt 0.236417 0.512599
vt 0.511411 0.237593
vt 0.240286 0.533692
vt 0.532505 0.241462
vt 0.246367 0.554258
vt 0.553070 0.247543
vt 0.254592 0.574063
vt 0.572876 0.255767
vt 0.264867 0.592887
vt 0.591700 0.266042
vt 0.277078 0.610516
vt 0.609330 0.278253
vt 0.291088 0.626754
vt 0.625568 0.292262
vt 0.306737 0.641417
vt 0.640231 0.307912
vt 0.323852 0.654340
vt 0.653155 0.325026
vt 0.342238 0.665378
vt 0.664194 0.343413
vt 0.361690 0.674408
vt 0.673224 0.362865
vt 0.381989 0.681326
vt 0.680143 0.383164
vt 0.402906 0.686057
vt 0.684874 0.404081
vt 0.424207 0.688546
vt 0.687364 0.425382
vt 0.445651 0.688765
vt 0.687584 0.446826
vt 0.466999 0.686713
vt 0.685531 0.468174
vt 0.488008 0.682412
vt 0.681231 0.489184
vt 0.508445 0.675910
vt 0.674729 0.509620
vt 0.528077 0.667281
vt 0.666100 0.529254
vt 0.546686 0.656621
vt 0.655441 0.547863
vt 0.564062 0.644051
vt 0.642871 0.565238
vt 0.580008 0.629712
vt 0.628532 0.581185
vt 0.573783 0.623487
vt 0.622307 0.574960
vt 0.558288 0.607992
vt 0.606812 0.559465
vt 0.547428 0.597133
vt 0.595952 0.548606
vt 0.535114 0.608205
vt 0.607024 0.536291
vt 0.521697 0.617911
vt 0.616730 0.522874
vt 0.507327 0.626143
vt 0.624961 0.508504
vt 0.492167 0.632806
vt 0.631624 0.493344
vt 0.476387 0.637827
vt 0.636645 0.477563
vt 0.460163 0.641148
vt 0.639966 0.461340
vt 0.443680 0.642733
vt 0.641550 0.444856
vt 0.427121 0.642563
vt 0.641380 0.428296
vt 0.410673 0.640641
vt 0.639458 0.411848
vt 0.394521 0.636988
vt 0.635805 0.395696
vt 0.378846 0.631646
vt 0.630462 0.380022
vt 0.363826 0.624673
vt 0.623489 0.365001
vt 0.349628 0.616150
vt 0.614965 0.350803
vt 0.336413 0.606171
vt 0.604986 0.337588
vt 0.324328 0.594848
vt 0.593663 0.325504
vt 0.313511 0.582310
vt 0.581124 0.314686
vt 0.304082 0.568697
vt 0.567511 0.305258
vt 0.296147 0.554162
vt 0.552975 0.297323
vt 0.289796 0.538868
vt 0.537681 0.290973
vt 0.285100 0.522988
vt 0.521801 0.286277
vt 0.282112 0.506700
vt 0.505513 0.283289
vt 0.280866 0.490187
vt 0.489000 0.282043
vt 0.281375 0.473635
vt 0.472448 0.282553
vt 0.283386 0.451040
vt 0.449852 0.284564
vt 0.283413 0.442806
vt 0.441618 0.284592
vt 0.282734 0.434600
vt 0.433412 0.283912
vt 0.281351 0.426483
vt 0.425295 0.282530
vt 0.279276 0.418515
vt 0.417327 0.280455
vt 0.276524 0.410755
vt 0.409566 0.277703
vt 0.273115 0.403260
vt 0.402071 0.274294
vt 0.269074 0.396085
vt 0.394897 0.270253
vt 0.264432 0.389285
vt 0.388096 0.265611
vt 0.259222 0.382908
vt 0.381719 0.260402
vt 0.253484 0.377003
vt 0.375814 0.254664
vt 0.247260 0.371613
vt 0.370424 0.248439
vt 0.240595 0.366778
vt 0.365588 0.241775
vt 0.233539 0.362533
vt 0.361344 0.234719
vt 0.226145 0.358911
vt 0.357721 0.227325
vt 0.218467 0.355937
vt 0.354747 0.219646
vt 0.210561 0.353635
vt 0.352445 0.211741
vt 0.202487 0.352020
vt 0.350830 0.203667
vt 0.194304 0.351105
vt 0.205777 0.158454
vt 0.174549 0.127228
vt 0.150337 0.346968
vt 0.149289 0.362290
vt 0.163689 0.116368
vt 0.147793 0.384152
vt 0.148194 0.100873
vt 0.093444 0.143175
vt 0.391745 0.148371
vt 0.193256 0.366428
vt 0.200126 0.367196
vt 0.191761 0.388289
vt 0.196757 0.388848
vt 0.206905 0.368551
vt 0.201687 0.389834
vt 0.213542 0.370485
vt 0.206515 0.391240
vt 0.219988 0.372981
vt 0.211203 0.393055
vt 0.226196 0.376022
vt 0.215718 0.395267
vt 0.232119 0.379586
vt 0.220026 0.397859
vt 0.237715 0.383645
vt 0.224096 0.400812
vt 0.242940 0.388170
vt 0.227897 0.404103
vt 0.247758 0.393128
vt 0.231401 0.407708
vt 0.252131 0.398481
vt 0.234582 0.411602
vt 0.256029 0.404191
vt 0.237416 0.415755
vt 0.259421 0.410214
vt 0.239883 0.420135
vt 0.262283 0.416506
vt 0.241965 0.424712
vt 0.264594 0.423021
vt 0.243646 0.429451
vt 0.266336 0.429711
vt 0.244913 0.434316
vt 0.267496 0.436526
vt 0.245757 0.439273
vt 0.268067 0.443415
vt 0.246172 0.444283
vt 0.268044 0.450327
vt 0.246155 0.449311
vt 0.266071 0.472350
vt 0.244235 0.470516
vt 0.265512 0.490529
vt 0.243605 0.491018
vt 0.266880 0.508666
vt 0.245148 0.511472
vt 0.270162 0.526556
vt 0.248849 0.531647
vt 0.275320 0.543998
vt 0.254666 0.551317
vt 0.282295 0.560796
vt 0.262532 0.570260
vt 0.291010 0.576760
vt 0.272360 0.588265
vt 0.301367 0.591712
vt 0.284040 0.605127
vt 0.313248 0.605484
vt 0.297439 0.620657
vt 0.326521 0.617919
vt 0.312408 0.634682
vt 0.341036 0.628880
vt 0.328777 0.647042
vt 0.356630 0.638242
vt 0.346363 0.657600
vt 0.373128 0.645900
vt 0.364969 0.666237
vt 0.390344 0.651768
vt 0.384384 0.672854
vt 0.408084 0.655780
vt 0.404390 0.677379
vt 0.426150 0.657891
vt 0.424764 0.679759
vt 0.444337 0.658077
vt 0.445275 0.679969
vt 0.462442 0.656336
vt 0.465692 0.678006
vt 0.480261 0.652688
vt 0.485788 0.673892
vt 0.497593 0.647174
vt 0.505334 0.667674
vt 0.514244 0.639855
vt 0.524113 0.659420
vt 0.530027 0.630815
vt 0.541911 0.649224
vt 0.544763 0.620154
vt 0.558530 0.637202
vt 0.365238 0.194435
vt 0.366006 0.201305
vt 0.387099 0.192939
vt 0.387658 0.197936
vt 0.367361 0.208084
vt 0.388644 0.202866
vt 0.369295 0.214721
vt 0.390050 0.207693
vt 0.371791 0.221167
vt 0.391866 0.212382
vt 0.374833 0.227375
vt 0.394078 0.216897
vt 0.378396 0.233298
vt 0.396670 0.221205
vt 0.382456 0.238894
vt 0.399622 0.225275
vt 0.386981 0.244119
vt 0.402914 0.229075
vt 0.391939 0.248937
vt 0.406519 0.232579
vt 0.397292 0.253310
vt 0.410413 0.235760
vt 0.403002 0.257208
vt 0.414566 0.238595
vt 0.409025 0.260600
vt 0.418947 0.241062
vt 0.415318 0.263462
vt 0.423523 0.243143
vt 0.421833 0.265772
vt 0.428262 0.244824
vt 0.428523 0.267514
vt 0.433127 0.246091
vt 0.435337 0.268675
vt 0.438084 0.246935
vt 0.442227 0.269245
vt 0.443095 0.247350
vt 0.449139 0.269222
vt 0.448122 0.247333
vt 0.471162 0.267248
vt 0.469327 0.245413
vt 0.489342 0.266689
vt 0.489830 0.244781
vt 0.507479 0.268057
vt 0.510284 0.246325
vt 0.525369 0.271339
vt 0.530459 0.250025
vt 0.542811 0.276496
vt 0.550130 0.255841
vt 0.559609 0.283471
vt 0.569074 0.263708
vt 0.575574 0.292186
vt 0.587078 0.273536
vt 0.590526 0.302542
vt 0.603941 0.285215
vt 0.604298 0.314424
vt 0.619472 0.298614
vt 0.616734 0.327696
vt 0.633496 0.313582
vt 0.627695 0.342211
vt 0.645858 0.329952
vt 0.637058 0.357805
vt 0.656416 0.347538
vt 0.644716 0.374303
vt 0.665053 0.366143
vt 0.650584 0.391519
vt 0.671671 0.385558
vt 0.654597 0.409259
vt 0.676196 0.405565
vt 0.656708 0.427325
vt 0.678577 0.425939
vt 0.656895 0.445512
vt 0.678788 0.446450
vt 0.655154 0.463618
vt 0.676825 0.466868
vt 0.651507 0.481437
vt 0.672711 0.486963
vt 0.645993 0.498770
vt 0.666493 0.506510
vt 0.638674 0.515421
vt 0.658239 0.525289
vt 0.629634 0.531204
vt 0.648044 0.543088
vt 0.618973 0.545941
vt 0.636021 0.559707
vt 0.141969 0.094648
vt 0.110740 0.063422
vt 0.349915 0.195484
vt 0.211600 0.164276
vt 0.217422 0.170098
vt 0.223245 0.175920
vt 0.229067 0.181742
vt 0.234889 0.187564
vt 0.240712 0.193386
vt 0.246534 0.199208
vt 0.252357 0.205031
vt 0.258179 0.210853
vt 0.264002 0.216675
vt 0.269824 0.222497
vt 0.275647 0.228319
vt 0.281469 0.234141
vt 0.287292 0.239963
vt 0.293114 0.245786
vt 0.298937 0.251608
vt 0.304759 0.257430
vt 0.310582 0.263252
vt 0.326622 0.279292
vt 0.338332 0.291001
vt 0.350042 0.302710
vt 0.361752 0.314419
vt 0.373462 0.326129
vt 0.385172 0.337838
vt 0.396882 0.349547
vt 0.408592 0.361257
vt 0.420302 0.372966
vt 0.432012 0.384675
vt 0.443722 0.396385
vt 0.455432 0.408094
vt 0.467142 0.419803
vt 0.478852 0.431512
vt 0.490562 0.443222
vt 0.502272 0.454931
vt 0.513982 0.466640
vt 0.525692 0.478350
vt 0.537402 0.490059
vt 0.549112 0.501768
vt 0.560822 0.513478
vt 0.572532 0.525187
vt 0.584242 0.536896
vt 0.643697 0.596349
vt 0.658861 0.611513
vt 0.674026 0.626677
vt 0.689190 0.641841
vt 0.704355 0.657006
vt 0.719519 0.672170
vt 0.734684 0.687333
vt 0.749848 0.702497
vt 0.765013 0.717661
vt 0.780177 0.732825
vt 0.795342 0.747990
vt 0.810506 0.763154
vt 0.825671 0.778317
vt 0.840835 0.793481
vt 0.856000 0.808645
vt 0.871164 0.823809
vt 0.886329 0.838973
vt 0.901493 0.854137
vt 0.916658 0.869301
vt 0.931822 0.884465
vt 0.946986 0.899629
vt 0.962151 0.914793
vt 0.977315 0.929957
vt 0.992138 0.944780
vt 0.059406 0.012089
vt 0.062425 0.015109
vt 0.065445 0.018128
vt 0.068465 0.021148
vt 0.071484 0.024167
vt 0.074504 0.027187
vt 0.077524 0.030207
vt 0.080544 0.033226
vt 0.083563 0.036246
vt 0.086583 0.039265
vt 0.089603 0.042285
vt 0.092622 0.045304
vt 0.095642 0.048324
vt 0.098662 0.051343
vt 0.101682 0.054363
vt 0.104701 0.057382
vt 0.107721 0.060402
vt 0.099670 0.149400
vt 0.147192 0.392935
vt 0.191160 0.397073
vt 0.115164 0.164894
vt 0.126025 0.175754
vt 0.157253 0.206980
vt 0.163076 0.212803
vt 0.168898 0.218625
vt 0.174720 0.224447
vt 0.180543 0.230269
vt 0.186365 0.236091
vt 0.192188 0.241913
vt 0.198010 0.247735
vt 0.203833 0.253558
vt 0.209655 0.259380
vt 0.215478 0.265202
vt 0.221300 0.271024
vt 0.227122 0.276846
vt 0.232945 0.282668
vt 0.238767 0.288490
vt 0.244590 0.294312
vt 0.250412 0.300135
vt 0.256235 0.305957
vt 0.262057 0.311779
vt 0.278098 0.327819
vt 0.289808 0.339528
vt 0.301518 0.351237
vt 0.313228 0.362946
vt 0.324938 0.374656
vt 0.336648 0.386365
vt 0.348358 0.398074
vt 0.360068 0.409784
vt 0.371778 0.421493
vt 0.383488 0.433202
vt 0.395198 0.444911
vt 0.406908 0.456621
vt 0.418618 0.468330
vt 0.430328 0.480039
vt 0.442038 0.491749
vt 0.453748 0.503458
vt 0.465458 0.515167
vt 0.477168 0.526877
vt 0.488878 0.538586
vt 0.500587 0.550295
vt 0.512298 0.562005
vt 0.524007 0.573714
vt 0.535717 0.585423
vt 0.595172 0.644875
vt 0.610337 0.660039
vt 0.625501 0.675204
vt 0.640666 0.690367
vt 0.655830 0.705531
vt 0.670995 0.720695
vt 0.686159 0.735859
vt 0.701324 0.751023
vt 0.716488 0.766187
vt 0.731653 0.781351
vt 0.746817 0.796515
vt 0.761982 0.811679
vt 0.777146 0.826843
vt 0.792311 0.842007
vt 0.807475 0.857171
vt 0.822640 0.872335
vt 0.837804 0.887499
vt 0.852969 0.902663
vt 0.868133 0.917827
vt 0.883298 0.932991
vt 0.898462 0.948155
vt 0.913627 0.963319
vt 0.928791 0.978483
vt 0.007862 0.057596
vt 0.010881 0.060616
vt 0.013901 0.063635
vt 0.016920 0.066655
vt 0.019940 0.069674
vt 0.022960 0.072694
vt 0.025980 0.075714
vt 0.028999 0.078733
vt 0.032019 0.081753
vt 0.035039 0.084772
vt 0.038059 0.087792
vt 0.041078 0.090812
vt 0.044098 0.093831
vt 0.047118 0.096851
vt 0.050137 0.099870
vt 0.053157 0.102890
vt 0.056177 0.105909
vt 0.059196 0.108929
vt 0.382961 0.148972
vt 0.361099 0.150468
vt 0.345777 0.151516
vt 0.056386 0.009070
vt 0.943614 0.993306
vn 0.000000 0.999847 0.017502
vn 0.000000 0.999847 0.017502
vn 0.000000 0.998169 0.060489
vn 0.000000 0.998169 0.060489
vn 0.000000 0.989277 0.146052
vn 0.000000 0.989277 0.146052
vn 0.000000 0.973064 0.230535
vn 0.000000 0.973064 0.230535
vn 0.000000 0.949651 0.313309
vn 0.000000 0.949651 0.313309
vn 0.000000 0.919210 0.393768
vn 0.000000 0.919210 0.393768
vn 0.000000 0.881964 0.471316
vn 0.000000 0.881964 0.471316
vn 0.000000 0.838196 0.545370
vn 0.000000 0.838196 0.545370
vn 0.000000 0.788225 0.615387
vn 0.000000 0.788225 0.615387
vn 0.000000 0.732418 0.680855
vn 0.000000 0.732418 0.680855
vn 0.000000 0.671193 0.741283
vn 0.000000 0.671193 0.741283
vn 0.000000 0.605000 0.796225
vn 0.000000 0.605000 0.796225
vn 0.000000 0.534330 0.845276
vn 0.000000 0.534330 0.845276
vn 0.000000 0.459706 0.888071
vn 0.000000 0.459706 0.888071
vn 0.000000 0.381681 0.924294
vn 0.000000 0.381681 0.924294
vn 0.000000 0.300832 0.953677
vn 0.000000 0.300832 0.953677
vn 0.000000 0.217754 0.976004
vn 0.000000 0.217754 0.976004
vn 0.000000 0.133067 0.991107
vn 0.000000 0.133067 0.991107
vn 0.000000 0.017908 0.999840
vn 0.000000 0.017908 0.999840
vn 0.000000 0.033444 0.999441
vn 0.000000 0.033444 0.999441
vn 0.000000 0.115855 0.993266
vn 0.000000 0.115855 0.993266
vn 0.000000 0.220379 0.975414
vn 0.000000 0.220379 0.975414
vn 0.000000 0.322426 0.946595
vn 0.000000 0.322426 0.946595
vn 0.000000 0.420847 0.907132
vn 0.000000 0.420847 0.907132
vn 0.000000 0.514536 0.857469
vn 0.000000 0.514536 0.857469
vn 0.000000 0.602439 0.798165
vn 0.000000 0.602439 0.798165
vn 0.000000 0.683569 0.729886
vn 0.000000 0.683569 0.729886
vn 0.000000 0.757013 0.653400
vn 0.000000 0.757013 0.653400
vn 0.000000 0.821944 0.569568
vn 0.000000 0.821944 0.569568
vn 0.000000 0.877634 0.479332
vn 0.000000 0.877634 0.479332
vn 0.000000 0.923456 0.383705
vn 0.000000 0.923456 0.383705
vn 0.000000 0.958894 0.283764
vn 0.000000 0.958894 0.283764
vn 0.000000 0.983551 0.180633
vn 0.000000 0.983551 0.180633
vn 0.000000 0.997148 0.075471
vn 0.000000 0.997148 0.075471
vn 0.000000 0.999533 -0.030540
vn 0.000000 0.999533 -0.030540
vn 0.000000 0.990680 -0.136208
vn 0.000000 0.990680 -0.136208
vn 0.000000 0.970688 -0.240344
vn 0.000000 0.970688 -0.240344
vn 0.000000 0.939781 -0.341778
vn 0.000000 0.939781 -0.341778
vn 0.000000 0.898307 -0.439369
vn 0.000000 0.898307 -0.439369
vn 0.000000 0.846732 -0.532019
vn 0.000000 0.846732 -0.532019
vn 0.000000 0.785637 -0.618688
vn 0.000000 0.785637 -0.618688
vn 0.000000 0.715709 -0.698399
vn 0.000000 0.715709 -0.698399
vn 0.000000 0.677674 -0.735363
vn 0.000000 0.677674 -0.735363
vn 0.000000 -0.770258 -0.637733
vn 0.000000 -0.770258 -0.637733
vn 0.000000 -0.770258 -0.637733
vn 0.000000 -0.770258 -0.637733
vn 0.000000 -0.770258 -0.637733
vn 0.000000 -0.770258 -0.637733
vn 0.000000 -0.770258 -0.637733
vn 0.000000 -0.770258 -0.637733
vn 0.000000 -0.677674 0.735363
vn 0.000000 -0.677674 0.735363
vn 0.000000 -0.715709 0.698399
vn 0.000000 -0.715709 0.698399
vn 0.000000 -0.785638 0.618687
vn 0.000000 -0.785638 0.618687
vn 0.000000 -0.846733 0.532018
vn 0.000000 -0.846733 0.532018
vn 0.000000 -0.898307 0.439368
vn 0.000000 -0.898307 0.439368
vn 0.000000 -0.939781 0.341777
vn 0.000000 -0.939781 0.341777
vn 0.000000 -0.970688 0.240343
vn 0.000000 -0.970688 0.240343
vn 0.000000 -0.990680 0.136207
vn 0.000000 -0.990680 0.136207
vn 0.000000 -0.999534 0.030540
vn 0.000000 -0.999534 0.030540
vn 0.000000 -0.997148 -0.075471
vn 0.000000 -0.997148 -0.075471
vn 0.000000 -0.983550 -0.180634
vn 0.000000 -0.983550 -0.180634
vn 0.000000 -0.958894 -0.283765
vn 0.000000 -0.958894 -0.283765
vn 0.000000 -0.923455 -0.383706
vn 0.000000 -0.923455 -0.383706
vn 0.000000 -0.877634 -0.479332
vn 0.000000 -0.877634 -0.479332
vn 0.000000 -0.821944 -0.569569
vn 0.000000 -0.821944 -0.569569
vn 0.000000 -0.757012 -0.653401
vn 0.000000 -0.757012 -0.653401
vn 0.000000 -0.683568 -0.729887
vn 0.000000 -0.683568 -0.729887
vn 0.000000 -0.602438 -0.798165
vn 0.000000 -0.602438 -0.798165
vn 0.000000 -0.514535 -0.857469
vn 0.000000 -0.514535 -0.857469
vn 0.000000 -0.420846 -0.907132
vn 0.000000 -0.420846 -0.907132
vn 0.000000 -0.322425 -0.946595
vn 0.000000 -0.322425 -0.946595
vn 0.000000 -0.220378 -0.975415
vn 0.000000 -0.220378 -0.975415
vn 0.000000 -0.115854 -0.993266
vn 0.000000 -0.115854 -0.993266
vn 0.000000 -0.029550 -0.999563
vn 0.000000 -0.029550 -0.999563
vn 0.000000 -0.027805 -0.999613
vn 0.000000 -0.027805 -0.999613
vn 0.000000 -0.133069 -0.991107
vn 0.000000 -0.133069 -0.991107
vn 0.000000 -0.217755 -0.976003
vn 0.000000 -0.217755 -0.976003
vn 0.000000 -0.300831 -0.953677
vn 0.000000 -0.300831 -0.953677
vn 0.000000 -0.381682 -0.924294
vn 0.000000 -0.381682 -0.924294
vn 0.000000 -0.459708 -0.888070
vn 0.000000 -0.459708 -0.888070
vn 0.000000 -0.534332 -0.845275
vn 0.000000 -0.534332 -0.845275
vn 0.000000 -0.605001 -0.796225
vn 0.000000 -0.605001 -0.796225
vn 0.000000 -0.671193 -0.741282
vn 0.000000 -0.671193 -0.741282
vn 0.000000 -0.732419 -0.680854
vn 0.000000 -0.732419 -0.680854
vn 0.000000 -0.788223 -0.615389
vn 0.000000 -0.788223 -0.615389
vn 0.000000 -0.838196 -0.545370
vn 0.000000 -0.838196 -0.545370
vn 0.000000 -0.881967 -0.471311
vn 0.000000 -0.881967 -0.471311
vn 0.000000 -0.919211 -0.393766
vn 0.000000 -0.919211 -0.393766
vn 0.000000 -0.949650 -0.313312
vn 0.000000 -0.949650 -0.313312
vn 0.000000 -0.973064 -0.230536
vn 0.000000 -0.973064 -0.230536
vn 0.000000 -0.989277 -0.146050
vn 0.000000 -0.989277 -0.146050
vn 0.000000 -0.998169 -0.060489
vn 0.000000 -0.998169 -0.060489
vn 0.000000 -0.999847 -0.017505
vn 0.000000 -0.999847 -0.017505
vn 0.000000 0.025522 0.999674
vn 0.000000 0.025522 0.999674
vn 0.000000 0.025523 0.999674
vn 0.000000 0.025523 0.999674
vn 0.000000 0.025522 0.999674
vn 0.000000 0.025522 0.999674
vn 0.000000 0.025518 0.999674
vn 0.000000 0.025518 0.999674
vn 1.000000 0.000000 0.000000
vn 1.000000 0.000000 0.000000
vn 1.000000 0.000000 0.000000
vn 1.000000 0.000000 0.000000
vn 1.000000 0.000000 0.000000
vn 1.000000 0.000000 0.000000
vn 1.000000 0.000000 0.000000
vn 1.000000 0.000000 0.000000
vn 1.000000 0.000000 0.000000
vn 1.000000 0.000000 0.000000
vn 1.000000 0.000000 0.000000
vn 1.000000 0.000000 0.000000
vn 1.000000 0.000000 0.000000
vn 1.000000 0.000000 0.000000
vn 1.000000 0.000000 0.000000
vn 1.000000 0.000000 0.000000
vn 1.000000 0.000000 0.000000
vn 1.000000 0.000000 0.000000
vn 1.000000 0.000000 0.000000
vn 1.000000 0.000000 0.000000
vn 1.000000 0.000000 0.000000
vn 1.000000 0.000000 0.000000
vn 1.000000 0.000000 0.000000
vn 1.000000 0.000000 0.000000
vn 1.000000 0.000000 0.000000
vn 1.000000 0.000000 0.000000
vn 1.000000 0.000000 0.000000
vn 1.000000 0.000000 0.000000
vn 1.000000 0.000000 0.000000
vn 1.000000 0.000000 0.000000
vn 1.000000 0.000000 0.000000
vn 1.000000 0.000000 0.000000
vn 1.000000 0.000000 0.000000
vn 1.000000 0.000000 0.000000
vn 1.000000 0.000000 0.000000
vn 1.000000 0.000000 0.000000
vn 1.000000 0.000000 0.000000
vn 1.000000 0.000000 0.000000
vn 1.000000 0.000000 0.000000
vn 1.000000 0.000000 0.000000
vn 1.000000 0.000000 0.000000
vn 1.000000 0.000000 0.000000
vn 1.000000 0.000000 0.000000
vn 1.000000 0.000000 0.000000
vn 1.000000 0.000000 0.000000
vn 1.000000 0.000000 0.000000
vn 1.000000 0.000000 0.000000
vn 1.000000 0.000000 0.000000
vn 1.000000 0.000000 0.000000
vn 1.000000 0.000000 0.000000
vn 1.000000 0.000000 0.000000
vn 1.000000 0.000000 0.000000
vn 1.000000 0.000000 0.000000
vn 1.000000 0.000000 0.000000
vn 1.000000 0.000000 0.000000
vn 1.000000 0.000000 0.000000
vn 1.000000 0.000000 0.000000
vn 1.000000 0.000000 0.000000
vn 1.000000 0.000000 0.000000
vn 1.000000 0.000000 0.000000
vn 1.000000 0.000000 0.000000
vn 1.000000 0.000000 0.000000
vn 1.000000 0.000000 0.000000
vn 1.000000 0.000000 0.000000
vn 1.000000 0.000000 0.000000
vn 1.000000 0.000000 0.000000
vn 1.000000 0.000000 0.000000
vn 1.000000 0.000000 0.000000
vn 1.000000 0.000000 0.000000
vn 1.000000 0.000000 0.000000
vn 1.000000 0.000000 0.000000
vn 1.000000 0.000000 0.000000
vn 1.000000 0.000000 0.000000
vn 1.000000 0.000000 0.000000
vn 1.000000 0.000000 0.000000
vn 1.000000 0.000000 0.000000
vn 1.000000 0.000000 0.000000
vn 1.000000 0.000000 0.000000
vn 1.000000 0.000000 0.000000
vn 1.000000 0.000000 0.000000
vn 1.000000 0.000000 0.000000
vn 1.000000 0.000000 0.000000
vn 1.000000 0.000000 0.000000
vn 1.000000 0.000000 0.000000
vn 1.000000 0.000000 0.000000
vn 1.000000 0.000000 0.000000
vn 1.000000 0.000000 0.000000
vn 1.000000 0.000000 0.000000
vn 1.000000 0.000000 0.000000
vn 1.000000 0.000000 0.000000
vn 1.000000 0.000000 0.000000
vn 1.000000 0.000000 0.000000
vn 1.000000 0.000000 0.000000
vn 1.000000 0.000000 0.000000
vn 1.000000 0.000000 0.000000
vn 1.000000 0.000000 0.000000
vn 1.000000 0.000000 0.000000
vn 1.000000 0.000000 0.000000
vn 1.000000 0.000000 0.000000
vn 1.000000 0.000000 0.000000
vn 1.000000 0.000000 0.000000
vn 1.000000 0.000000 0.000000
vn 1.000000 0.000000 0.000000
vn 1.000000 0.000000 0.000000
vn 1.000000 0.000000 0.000000
vn 1.000000 0.000000 0.000000
vn 1.000000 0.000000 0.000000
vn 1.000000 0.000000 0.000000
vn 1.000000 0.000000 0.000000
vn 1.000000 0.000000 0.000000
vn 1.000000 0.000000 0.000000
vn 1.000000 0.000000 0.000000
vn 1.000000 0.000000 0.000000
vn 1.000000 0.000000 0.000000
vn 1.000000 0.000000 0.000000
vn 1.000000 0.000000 0.000000
vn 1.000000 0.000000 0.000000
vn 1.000000 0.000000 0.000000
vn 1.000000 0.000000 0.000000
vn 1.000000 0.000000 0.000000
vn 1.000000 0.000000 0.000000
vn 1.000000 0.000000 0.000000
vn 1.000000 0.000000 0.000000
vn 1.000000 0.000000 0.000000
vn 1.000000 0.000000 0.000000
vn 1.000000 0.000000 0.000000
vn 1.000000 0.000000 0.000000
vn 1.000000 0.000000 0.000000
vn 1.000000 0.000000 0.000000
vn 1.000000 0.000000 0.000000
vn 1.000000 0.000000 0.000000
vn 1.000000 0.000000 0.000000
vn 1.000000 0.000000 0.000000
vn 1.000000 0.000000 0.000000
vn 1.000000 0.000000 0.000000
vn 1.000000 0.000000 0.000000
vn 1.000000 0.000000 0.000000
vn 1.000000 0.000000 0.000000
vn 1.000000 0.000000 0.000000
vn 1.000000 0.000000 0.000000
vn 1.000000 0.000000 0.000000
vn 1.000000 0.000000 0.000000
vn 1.000000 0.000000 0.000000
vn 1.000000 0.000000 0.000000
vn 1.000000 0.000000 0.000000
vn 1.000000 0.000000 0.000000
vn 1.000000 0.000000 0.000000
vn 1.000000 0.000000 0.000000
vn 1.000000 0.000000 0.000000
vn 1.000000 0.000000 0.000000
vn 1.000000 0.000000 0.000000
vn 1.000000 0.000000 0.000000
vn 1.000000 0.000000 0.000000
vn 1.000000 0.000000 0.000000
vn 1.000000 0.000000 0.000000
vn 1.000000 0.000000 0.000000
vn 1.000000 0.000000 0.000000
vn 1.000000 0.000000 0.000000
vn 1.000000 0.000000 0.000000
vn 1.000000 0.000000 0.000000
vn 1.000000 0.000000 0.000000
vn 1.000000 0.000000 0.000000
vn 1.000000 0.000000 0.000000
vn 1.000000 0.000000 0.000000
vn 1.000000 0.000000 0.000000
vn 1.000000 0.000000 0.000000
vn 1.000000 0.000000 0.000000
vn 1.000000 0.000000 0.000000
vn 1.000000 0.000000 0.000000
vn 1.000000 0.000000 0.000000
vn 1.000000 0.000000 0.000000
vn 1.000000 0.000000 0.000000
vn -1.000000 0.000000 0.000000
vn -1.000000 0.000000 0.000000
vn -1.000000 0.000000 0.000000
vn -1.000000 0.000000 0.000000
vn -1.000000 0.000000 0.000000
vn -1.000000 0.000000 0.000000
vn -1.000000 0.000000 0.000000
vn -1.000000 0.000000 0.000000
vn -1.000000 0.000000 0.000000
vn -1.000000 0.000000 0.000000
vn -1.000000 0.000000 0.000000
vn -1.000000 0.000000 0.000000
vn -1.000000 0.000000 0.000000
vn -1.000000 0.000000 0.000000
vn -1.000000 0.000000 0.000000
vn -1.000000 0.000000 0.000000
vn -1.000000 0.000000 0.000000
vn -1.000000 0.000000 0.000000
vn -1.000000 0.000000 0.000000
vn -1.000000 0.000000 0.000000
vn -1.000000 0.000000 0.000000
vn -1.000000 0.000000 0.000000
vn -1.000000 0.000000 0.000000
vn -1.000000 0.000000 0.000000
vn -1.000000 0.000000 0.000000
vn -1.000000 0.000000 0.000000
vn -1.000000 0.000000 0.000000
vn -1.000000 0.000000 0.000000
vn -1.000000 0.000000 0.000000
vn -1.000000 0.000000 0.000000
vn -1.000000 0.000000 0.000000
vn -1.000000 0.000000 0.000000
vn -1.000000 0.000000 0.000000
vn -1.000000 0.000000 0.000000
vn -1.000000 0.000000 0.000000
vn -1.000000 0.000000 0.000000
vn -1.000000 0.000000 0.000000
vn -1.000000 0.000000 0.000000
vn -1.000000 0.000000 0.000000
vn -1.000000 0.000000 0.000000
vn -1.000000 0.000000 0.000000
vn -1.000000 0.000000 0.000000
vn -1.000000 0.000000 0.000000
vn -1.000000 0.000000 0.000000
vn -1.000000 0.000000 0.000000
vn -1.000000 0.000000 0.000000
vn -1.000000 0.000000 0.000000
vn -1.000000 0.000000 0.000000
vn -1.000000 0.000000 0.000000
vn -1.000000 0.000000 0.000000
vn -1.000000 0.000000 0.000000
vn -1.000000 0.000000 0.000000
vn -1.000000 0.000000 0.000000
vn -1.000000 0.000000 0.000000
vn -1.000000 0.000000 0.000000
vn -1.000000 0.000000 0.000000
vn -1.000000 0.000000 0.000000
vn -1.000000 0.000000 0.000000
vn -1.000000 0.000000 0.000000
vn -1.000000 0.000000 0.000000
vn -1.000000 0.000000 0.000000
vn -1.000000 0.000000 0.000000
vn -1.000000 0.000000 0.000000
vn -1.000000 0.000000 0.000000
vn -1.000000 0.000000 0.000000
vn -1.000000 0.000000 0.000000
vn -1.000000 0.000000 0.000000
vn -1.000000 0.000000 0.000000
vn -1.000000 0.000000 0.000000
vn -1.000000 0.000000 0.000000
vn -1.000000 0.000000 0.000000
vn -1.000000 0.000000 0.000000
vn -1.000000 0.000000 0.000000
vn -1.000000 0.000000 0.000000
vn -1.000000 0.000000 0.000000
vn -1.000000 0.000000 0.000000
vn -1.000000 0.000000 0.000000
vn -1.000000 0.000000 0.000000
vn -1.000000 0.000000 0.000000
vn -1.000000 0.000000 0.000000
vn -1.000000 0.000000 0.000000
vn -1.000000 0.000000 0.000000
vn -1.000000 0.000000 0.000000
vn -1.000000 0.000000 0.000000
vn -1.000000 0.000000 0.000000
vn -1.000000 0.000000 0.000000
vn -1.000000 0.000000 0.000000
vn -1.000000 0.000000 0.000000
vn -1.000000 0.000000 0.000000
vn -1.000000 0.000000 0.000000
vn -1.000000 0.000000 0.000000
vn -1.000000 0.000000 0.000000
vn -1.000000 0.000000 0.000000
vn -1.000000 0.000000 0.000000
vn -1.000000 0.000000 0.000000
vn -1.000000 0.000000 0.000000
vn -1.000000 0.000000 0.000000
vn -1.000000 0.000000 0.000000
vn -1.000000 0.000000 0.000000
vn -1.000000 0.000000 0.000000
vn -1.000000 0.000000 0.000000
vn -1.000000 0.000000 0.000000
vn -1.000000 0.000000 0.000000
vn -1.000000 0.000000 0.000000
vn -1.000000 0.000000 0.000000
vn -1.000000 0.000000 0.000000
vn -1.000000 0.000000 0.000000
vn -1.000000 0.000000 0.000000
vn -1.000000 0.000000 0.000000
vn -1.000000 0.000000 0.000000
vn -1.000000 0.000000 0.000000
vn -1.000000 0.000000 0.000000
vn -1.000000 0.000000 0.000000
vn -1.000000 0.000000 0.000000
vn -1.000000 0.000000 0.000000
vn -1.000000 0.000000 0.000000
vn -1.000000 0.000000 0.000000
vn -1.000000 0.000000 0.000000
vn -1.000000 0.000000 0.000000
vn -1.000000 0.000000 0.000000
vn -1.000000 0.000000 0.000000
vn -1.000000 0.000000 0.000000
vn -1.000000 0.000000 0.000000
vn -1.000000 0.000000 0.000000
vn -1.000000 0.000000 0.000000
vn -1.000000 0.000000 0.000000
vn -1.000000 0.000000 0.000000
vn -1.000000 0.000000 0.000000
vn -1.000000 0.000000 0.000000
vn -1.000000 0.000000 0.000000
vn -1.000000 0.000000 0.000000
vn -1.000000 0.000000 0.000000
vn -1.000000 0.000000 0.000000
vn -1.000000 0.000000 0.000000
vn -1.000000 0.000000 0.000000
vn -1.000000 0.000000 0.000000
vn -1.000000 0.000000 0.000000
vn -1.000000 0.000000 0.000000
vn -1.000000 0.000000 0.000000
vn -1.000000 0.000000 0.000000
vn -1.000000 0.000000 0.000000
vn -1.000000 0.000000 0.000000
vn -1.000000 0.000000 0.000000
vn -1.000000 0.000000 0.000000
vn -1.000000 0.000000 0.000000
vn -1.000000 0.000000 0.000000
vn -1.000000 0.000000 0.000000
vn -1.000000 0.000000 0.000000
vn -1.000000 0.000000 0.000000
vn -1.000000 0.000000 0.000000
vn -1.000000 0.000000 0.000000
vn -1.000000 0.000000 0.000000
vn -1.000000 0.000000 0.000000
vn -1.000000 0.000000 0.000000
vn -1.000000 0.000000 0.000000
vn -1.000000 0.000000 0.000000
vn -1.000000 0.000000 0.000000
vn -1.000000 0.000000 0.000000
vn -1.000000 0.000000 0.000000
vn -1.000000 0.000000 0.000000
vn -1.000000 0.000000 0.000000
vn -1.000000 0.000000 0.000000
vn -1.000000 0.000000 0.000000
vn -1.000000 0.000000 0.000000
vn -1.000000 0.000000 0.000000
vn -1.000000 0.000000 0.000000
vn -1.000000 0.000000 0.000000
vn -1.000000 0.000000 0.000000
vn -1.000000 0.000000 0.000000
vn -1.000000 0.000000 0.000000
vn -1.000000 0.000000 0.000000
vn -1.000000 0.000000 0.000000
vn 0.000000 -1.000000 0.000000
vn 0.000000 -1.000000 0.000000
vn 0.000000 -1.000000 0.000000
vn 0.000000 -1.000000 0.000000
vn 1.000000 0.000000 0.000000
vn 1.000000 0.000000 0.000000
vn 1.000000 0.000000 0.000000
vn 1.000000 0.000000 0.000000
vn -1.000000 0.000000 0.000000
vn -1.000000 0.000000 0.000000
vn -1.000000 0.000000 0.000000
vn -1.000000 0.000000 0.000000
vn 1.000000 0.000000 0.000000
vn 1.000000 0.000000 0.000000
vn 1.000000 0.000000 0.000000
vn 1.000000 0.000000 0.000000
vn -1.000000 0.000000 0.000000
vn -1.000000 0.000000 0.000000
vn -1.000000 0.000000 0.000000
vn -1.000000 0.000000 0.000000
vn 1.000000 0.000000 0.000000
vn 1.000000 0.000000 0.000000
vn 1.000000 0.000000 0.000000
vn 1.000000 0.000000 0.000000
vn 0.000000 1.000000 0.000000
vn 0.000000 1.000000 0.000000
vn 0.000000 1.000000 0.000000
vn 0.000000 1.000000 0.000000
vn -1.000000 0.000000 0.000000
vn -1.000000 0.000000 0.000000
vn -1.000000 0.000000 0.000000
vn -1.000000 0.000000 0.000000
s 1
g pCube1
usemtl initialShadingGroup
f 1/354/1 2/2/2 4/525/3 3/437/4
f 3/437/4 4/525/3 6/524/5 5/436/6
f 5/436/6 6/524/5 8/523/7 7/435/8
f 7/435/8 8/523/7 10/522/9 9/434/10
f 9/434/10 10/522/9 12/521/11 11/433/12
f 11/433/12 12/521/11 14/520/13 13/432/14
f 13/432/14 14/520/13 16/519/15 15/431/16
f 15/431/16 16/519/15 18/518/17 17/430/18
f 17/430/18 18/518/17 20/517/19 19/429/20
f 19/429/20 20/517/19 22/516/21 21/428/22
f 21/428/22 22/516/21 24/515/23 23/427/24
f 23/427/24 24/515/23 26/514/25 25/426/26
f 25/426/26 26/514/25 28/513/27 27/425/28
f 27/425/28 28/513/27 30/512/29 29/424/30
f 29/424/30 30/512/29 32/511/31 31/423/32
f 31/423/32 32/511/31 34/510/33 33/422/34
f 33/422/34 34/510/33 36/509/35 35/421/36
f 35/421/36 36/509/35 38/508/37 37/529/38
f 37/420/38 38/530/37 40/507/39 39/419/40
f 39/419/40 40/507/39 42/506/41 41/418/42
f 41/418/42 42/506/41 44/505/43 43/417/44
f 43/417/44 44/505/43 46/504/45 45/416/46
f 45/416/46 46/504/45 48/503/47 47/415/48
f 47/415/48 48/503/47 50/502/49 49/414/50
f 49/414/50 50/502/49 52/501/51 51/413/52
f 51/413/52 52/501/51 54/500/53 53/412/54
f 53/412/54 54/500/53 56/499/55 55/411/56
f 55/411/56 56/499/55 58/498/57 57/410/58
f 57/410/58 58/498/57 60/497/59 59/409/60
f 59/409/60 60/497/59 62/496/61 61/408/62
f 61/408/62 62/496/61 64/495/63 63/407/64
f 63/407/64 64/495/63 66/494/65 65/406/66
f 65/406/66 66/494/65 68/493/67 67/405/68
f 67/405/68 68/493/67 70/492/69 69/404/70
f 69/404/70 70/492/69 72/491/71 71/403/72
f 71/403/72 72/491/71 74/490/73 73/402/74
f 73/402/74 74/490/73 76/489/75 75/401/76
f 75/401/76 76/489/75 78/488/77 77/400/78
f 77/400/78 78/488/77 80/487/79 79/399/80
f 79/399/80 80/487/79 82/486/81 81/398/82
f 81/398/82 82/486/81 84/485/83 83/397/84
f 83/397/84 84/485/83 86/85/85 85/86/86
s 2
f 85/86/87 86/85/88 88/87/89 87/88/90
f 87/88/90 88/87/89 90/89/91 89/90/92
f 89/90/92 90/89/91 92/91/93 91/92/94
s 3
f 91/92/95 92/91/96 94/484/97 93/396/98
f 93/396/98 94/484/97 96/483/99 95/395/100
f 95/395/100 96/483/99 98/482/101 97/394/102
f 97/394/102 98/482/101 100/481/103 99/393/104
f 99/393/104 100/481/103 102/480/105 101/392/106
f 101/392/106 102/480/105 104/479/107 103/391/108
f 103/391/108 104/479/107 106/478/109 105/390/110
f 105/390/110 106/478/109 108/477/111 107/389/112
f 107/389/112 108/477/111 110/476/113 109/388/114
f 109/388/114 110/476/113 112/475/115 111/387/116
f 111/387/116 112/475/115 114/474/117 113/386/118
f 113/386/118 114/474/117 116/473/119 115/385/120
f 115/385/120 116/473/119 118/472/121 117/384/122
f 117/384/122 118/472/121 120/471/123 119/383/124
f 119/383/124 120/471/123 122/470/125 121/382/126
f 121/382/126 122/470/125 124/469/127 123/381/128
f 123/381/128 124/469/127 126/468/129 125/380/130
f 125/380/130 126/468/129 128/467/131 127/379/132
f 127/379/132 128/467/131 130/466/133 129/378/134
f 129/378/134 130/466/133 132/465/135 131/377/136
f 131/377/136 132/465/135 134/464/137 133/376/138
f 133/376/138 134/464/137 136/463/139 135/375/140
f 135/375/140 136/463/139 138/462/141 137/374/142
f 137/374/142 138/462/141 140/461/143 139/373/144
f 139/373/144 140/461/143 142/460/145 141/372/146
f 141/372/146 142/460/145 144/459/147 143/371/148
f 143/371/148 144/459/147 146/458/149 145/370/150
f 145/370/150 146/458/149 148/457/151 147/369/152
f 147/369/152 148/457/151 150/456/153 149/368/154
f 149/368/154 150/456/153 152/455/155 151/367/156
f 151/367/156 152/455/155 154/454/157 153/366/158
f 153/366/158 154/454/157 156/453/159 155/365/160
f 155/365/160 156/453/159 158/452/161 157/364/162
f 157/364/162 158/452/161 160/451/163 159/363/164
f 159/363/164 160/451/163 162/450/165 161/362/166
f 161/362/166 162/450/165 164/449/167 163/361/168
f 163/361/168 164/449/167 166/448/169 165/360/170
f 165/360/170 166/448/169 168/447/171 167/359/172
f 167/359/172 168/447/171 170/446/173 169/358/174
f 169/358/174 170/446/173 172/445/175 171/357/176
f 171/357/176 172/445/175 174/444/177 173/356/178
f 173/356/178 174/444/177 176/443/179 175/176/180
s 4
f 345/177/181 346/442/182 347/441/183 348/180/184
f 348/180/184 347/441/183 349/438/185 350/182/186
f 350/182/186 349/438/185 351/183/187 352/353/188
s 5
f 178/185/189 176/175/190 174/173/191 181/186/192
f 180/187/193 178/185/189 181/186/192 182/188/194
f 2/440/195 180/187/193 182/188/194 4/3/196
f 181/186/192 174/173/191 172/171/197 183/189/198
f 182/188/194 181/186/192 183/189/198 184/190/199
f 4/3/196 182/188/194 184/190/199 6/5/200
f 183/189/198 172/171/197 170/169/201 185/191/202
f 184/190/199 183/189/198 185/191/202 186/192/203
f 6/5/200 184/190/199 186/192/203 8/7/204
f 185/191/202 170/169/201 168/167/205 187/193/206
f 186/192/203 185/191/202 187/193/206 188/194/207
f 8/7/204 186/192/203 188/194/207 10/9/208
f 187/193/206 168/167/205 166/165/209 189/195/210
f 188/194/207 187/193/206 189/195/210 190/196/211
f 10/9/208 188/194/207 190/196/211 12/11/212
f 189/195/210 166/165/209 164/163/213 191/197/214
f 190/196/211 189/195/210 191/197/214 192/198/215
f 12/11/212 190/196/211 192/198/215 14/13/216
f 191/197/214 164/163/213 162/161/217 193/199/218
f 192/198/215 191/197/214 193/199/218 194/200/219
f 14/13/216 192/198/215 194/200/219 16/15/220
f 193/199/218 162/161/217 160/159/221 195/201/222
f 194/200/219 193/199/218 195/201/222 196/202/223
f 16/15/220 194/200/219 196/202/223 18/17/224
f 195/201/222 160/159/221 158/157/225 197/203/226
f 196/202/223 195/201/222 197/203/226 198/204/227
f 18/17/224 196/202/223 198/204/227 20/19/228
f 197/203/226 158/157/225 156/155/229 199/205/230
f 198/204/227 197/203/226 199/205/230 200/206/231
f 20/19/228 198/204/227 200/206/231 22/21/232
f 199/205/230 156/155/229 154/153/233 201/207/234
f 200/206/231 199/205/230 201/207/234 202/208/235
f 22/21/232 200/206/231 202/208/235 24/23/236
f 201/207/234 154/153/233 152/151/237 203/209/238
f 202/208/235 201/207/234 203/209/238 204/210/239
f 24/23/236 202/208/235 204/210/239 26/25/240
f 203/209/238 152/151/237 150/149/241 205/211/242
f 204/210/239 203/209/238 205/211/242 206/212/243
f 26/25/240 204/210/239 206/212/243 28/27/244
f 205/211/242 150/149/241 148/147/245 207/213/246
f 206/212/243 205/211/242 207/213/246 208/214/247
f 28/27/244 206/212/243 208/214/247 30/29/248
f 207/213/246 148/147/245 146/145/249 209/215/250
f 208/214/247 207/213/246 209/215/250 210/216/251
f 30/29/248 208/214/247 210/216/251 32/31/252
f 209/215/250 146/145/249 144/143/253 211/217/254
f 210/216/251 209/215/250 211/217/254 212/218/255
f 32/31/252 210/216/251 212/218/255 34/33/256
f 211/217/254 144/143/253 142/141/257 213/219/258
f 212/218/255 211/217/254 213/219/258 214/220/259
f 34/33/256 212/218/255 214/220/259 36/35/260
f 213/219/258 142/141/257 140/139/261 215/221/262
f 214/220/259 213/219/258 215/221/262 216/222/263
f 36/35/260 214/220/259 216/222/263 38/37/264
f 215/221/262 140/139/261 138/137/265 217/223/266
f 216/222/263 215/221/262 217/223/266 218/224/267
f 38/37/264 216/222/263 218/224/267
f 38/37/264 218/224/267 40/39/268
f 217/223/266 138/137/265 136/135/269 219/225/270
f 218/224/267 217/223/266 219/225/270 220/226/271
f 40/39/268 218/224/267 220/226/271 42/41/272
f 219/225/270 136/135/269 134/133/273 221/227/274
f 220/226/271 219/225/270 221/227/274 222/228/275
f 42/41/272 220/226/271 222/228/275 44/43/276
f 221/227/274 134/133/273 132/131/277 223/229/278
f 222/228/275 221/227/274 223/229/278 224/230/279
f 44/43/276 222/228/275 224/230/279 46/45/280
f 223/229/278 132/131/277 130/129/281 225/231/282
f 224/230/279 223/229/278 225/231/282 226/232/283
f 46/45/280 224/230/279 226/232/283 48/47/284
f 225/231/282 130/129/281 128/127/285 227/233/286
f 226/232/283 225/231/282 227/233/286 228/234/287
f 48/47/284 226/232/283 228/234/287 50/49/288
f 227/233/286 128/127/285 126/125/289 229/235/290
f 228/234/287 227/233/286 229/235/290 230/236/291
f 50/49/288 228/234/287 230/236/291 52/51/292
f 229/235/290 126/125/289 124/123/293 231/237/294
f 230/236/291 229/235/290 231/237/294 232/238/295
f 52/51/292 230/236/291 232/238/295 54/53/296
f 231/237/294 124/123/293 122/121/297 233/239/298
f 232/238/295 231/237/294 233/239/298 234/240/299
f 54/53/296 232/238/295 234/240/299 56/55/300
f 233/239/298 122/121/297 120/119/301 235/241/302
f 234/240/299 233/239/298 235/241/302 236/242/303
f 56/55/300 234/240/299 236/242/303 58/57/304
f 235/241/302 120/119/301 118/117/305 237/243/306
f 236/242/303 235/241/302 237/243/306 238/244/307
f 58/57/304 236/242/303 238/244/307 60/59/308
f 237/243/306 118/117/305 116/115/309 239/245/310
f 238/244/307 237/243/306 239/245/310 240/246/311
f 60/59/308 238/244/307 240/246/311 62/61/312
f 239/245/310 116/115/309 114/113/313 241/247/314
f 240/246/311 239/245/310 241/247/314 242/248/315
f 62/61/312 240/246/311 242/248/315 64/63/316
f 241/247/314 114/113/313 112/111/317 243/249/318
f 242/248/315 241/247/314 243/249/318 244/250/319
f 64/63/316 242/248/315 244/250/319 66/65/320
f 243/249/318 112/111/317 110/109/321 245/251/322
f 244/250/319 243/249/318 245/251/322 246/252/323
f 66/65/320 244/250/319 246/252/323 68/67/324
f 245/251/322 110/109/321 108/107/325 247/253/326
f 246/252/323 245/251/322 247/253/326 248/254/327
f 68/67/324 246/252/323 248/254/327 70/69/328
f 247/253/326 108/107/325 106/105/329 249/255/330
f 248/254/327 247/253/326 249/255/330 250/256/331
f 70/69/328 248/254/327 250/256/331 72/71/332
f 249/255/330 106/105/329 104/103/333 251/257/334
f 250/256/331 249/255/330 251/257/334 252/258/335
f 72/71/332 250/256/331 252/258/335 74/73/336
f 251/257/334 104/103/333 102/101/337 253/259/338
f 252/258/335 251/257/334 253/259/338 254/260/339
f 74/73/336 252/258/335 254/260/339 76/75/340
f 253/259/338 102/101/337 100/99/341 255/261/342
f 254/260/339 253/259/338 255/261/342 256/262/343
f 76/75/340 254/260/339 256/262/343 78/77/344
f 255/261/342 100/99/341 98/97/345 257/263/346
f 256/262/343 255/261/342 257/263/346 258/264/347
f 78/77/344 256/262/343 258/264/347 80/79/348
f 257/263/346 98/97/345 96/95/349 259/265/350
f 258/264/347 257/263/346 259/265/350 260/266/351
f 80/79/348 258/264/347 260/266/351 82/81/352
f 259/265/350 96/95/349 94/93/353 261/267/354
f 260/266/351 259/265/350 261/267/354 262/268/355
f 82/81/352 260/266/351 262/268/355 84/83/356
f 261/267/354 94/93/353 92/91/357 90/89/358
f 262/268/355 261/267/354 90/89/358 88/87/359
f 84/83/356 262/268/355 88/87/359 86/85/360
s 6
f 175/355/361 177/269/362 263/270/363 173/174/364
f 177/269/362 179/271/365 264/272/366 263/270/363
f 179/271/365 1/1/367 3/4/368 264/272/366
f 173/174/364 263/270/363 265/273/369 171/172/370
f 263/270/363 264/272/366 266/274/371 265/273/369
f 264/272/366 3/4/368 5/6/372 266/274/371
f 171/172/370 265/273/369 267/275/373 169/170/374
f 265/273/369 266/274/371 268/276/375 267/275/373
f 266/274/371 5/6/372 7/8/376 268/276/375
f 169/170/374 267/275/373 269/277/377 167/168/378
f 267/275/373 268/276/375 270/278/379 269/277/377
f 268/276/375 7/8/376 9/10/380 270/278/379
f 167/168/378 269/277/377 271/279/381 165/166/382
f 269/277/377 270/278/379 272/280/383 271/279/381
f 270/278/379 9/10/380 11/12/384 272/280/383
f 165/166/382 271/279/381 273/281/385 163/164/386
f 271/279/381 272/280/383 274/282/387 273/281/385
f 272/280/383 11/12/384 13/14/388 274/282/387
f 163/164/386 273/281/385 275/283/389 161/162/390
f 273/281/385 274/282/387 276/284/391 275/283/389
f 274/282/387 13/14/388 15/16/392 276/284/391
f 161/162/390 275/283/389 277/285/393 159/160/394
f 275/283/389 276/284/391 278/286/395 277/285/393
f 276/284/391 15/16/392 17/18/396 278/286/395
f 159/160/394 277/285/393 279/287/397 157/158/398
f 277/285/393 278/286/395 280/288/399 279/287/397
f 278/286/395 17/18/396 19/20/400 280/288/399
f 157/158/398 279/287/397 281/289/401 155/156/402
f 279/287/397 280/288/399 282/290/403 281/289/401
f 280/288/399 19/20/400 21/22/404 282/290/403
f 155/156/402 281/289/401 283/291/405 153/154/406
f 281/289/401 282/290/403 284/292/407 283/291/405
f 282/290/403 21/22/404 23/24/408 284/292/407
f 153/154/406 283/291/405 285/293/409 151/152/410
f 283/291/405 284/292/407 286/294/411 285/293/409
f 284/292/407 23/24/408 25/26/412 286/294/411
f 151/152/410 285/293/409 287/295/413 149/150/414
f 285/293/409 286/294/411 288/296/415 287/295/413
f 286/294/411 25/26/412 27/28/416 288/296/415
f 149/150/414 287/295/413 289/297/417 147/148/418
f 287/295/413 288/296/415 290/298/419 289/297/417
f 288/296/415 27/28/416 29/30/420 290/298/419
f 147/148/418 289/297/417 291/299/421 145/146/422
f 289/297/417 290/298/419 292/300/423 291/299/421
f 290/298/419 29/30/420 31/32/424 292/300/423
f 145/146/422 291/299/421 293/301/425 143/144/426
f 291/299/421 292/300/423 294/302/427 293/301/425
f 292/300/423 31/32/424 33/34/428 294/302/427
f 143/144/426 293/301/425 295/303/429 141/142/430
f 293/301/425 294/302/427 296/304/431 295/303/429
f 294/302/427 33/34/428 35/36/432 296/304/431
f 141/142/430 295/303/429 297/305/433 139/140/434
f 295/303/429 296/304/431 298/306/435 297/305/433
f 296/304/431 35/36/432 37/38/436 298/306/435
f 139/140/434 297/305/433 299/307/437 137/138/438
f 297/305/433 298/306/435 300/308/439 299/307/437
f 298/306/435 37/38/436 300/308/439
f 300/308/439 37/38/436 39/40/440
f 137/138/438 299/307/437 301/309/441 135/136/442
f 299/307/437 300/308/439 302/310/443 301/309/441
f 300/308/439 39/40/440 41/42/444 302/310/443
f 135/136/442 301/309/441 303/311/445 133/134/446
f 301/309/441 302/310/443 304/312/447 303/311/445
f 302/310/443 41/42/444 43/44/448 304/312/447
f 133/134/446 303/311/445 305/313/449 131/132/450
f 303/311/445 304/312/447 306/314/451 305/313/449
f 304/312/447 43/44/448 45/46/452 306/314/451
f 131/132/450 305/313/449 307/315/453 129/130/454
f 305/313/449 306/314/451 308/316/455 307/315/453
f 306/314/451 45/46/452 47/48/456 308/316/455
f 129/130/454 307/315/453 309/317/457 127/128/458
f 307/315/453 308/316/455 310/318/459 309/317/457
f 308/316/455 47/48/456 49/50/460 310/318/459
f 127/128/458 309/317/457 311/319/461 125/126/462
f 309/317/457 310/318/459 312/320/463 311/319/461
f 310/318/459 49/50/460 51/52/464 312/320/463
f 125/126/462 311/319/461 313/321/465 123/124/466
f 311/319/461 312/320/463 314/322/467 313/321/465
f 312/320/463 51/52/464 53/54/468 314/322/467
f 123/124/466 313/321/465 315/323/469 121/122/470
f 313/321/465 314/322/467 316/324/471 315/323/469
f 314/322/467 53/54/468 55/56/472 316/324/471
f 121/122/470 315/323/469 317/325/473 119/120/474
f 315/323/469 316/324/471 318/326/475 317/325/473
f 316/324/471 55/56/472 57/58/476 318/326/475
f 119/120/474 317/325/473 319/327/477 117/118/478
f 317/325/473 318/326/475 320/328/479 319/327/477
f 318/326/475 57/58/476 59/60/480 320/328/479
f 117/118/478 319/327/477 321/329/481 115/116/482
f 319/327/477 320/328/479 322/330/483 321/329/481
f 320/328/479 59/60/480 61/62/484 322/330/483
f 115/116/482 321/329/481 323/331/485 113/114/486
f 321/329/481 322/330/483 324/332/487 323/331/485
f 322/330/483 61/62/484 63/64/488 324/332/487
f 113/114/486 323/331/485 325/333/489 111/112/490
f 323/331/485 324/332/487 326/334/491 325/333/489
f 324/332/487 63/64/488 65/66/492 326/334/491
f 111/112/490 325/333/489 327/335/493 109/110/494
f 325/333/489 326/334/491 328/336/495 327/335/493
f 326/334/491 65/66/492 67/68/496 328/336/495
f 109/110/494 327/335/493 329/337/497 107/108/498
f 327/335/493 328/336/495 330/338/499 329/337/497
f 328/336/495 67/68/496 69/70/500 330/338/499
f 107/108/498 329/337/497 331/339/501 105/106/502
f 329/337/497 330/338/499 332/340/503 331/339/501
f 330/338/499 69/70/500 71/72/504 332/340/503
f 105/106/502 331/339/501 333/341/505 103/104/506
f 331/339/501 332/340/503 334/342/507 333/341/505
f 332/340/503 71/72/504 73/74/508 334/342/507
f 103/104/506 333/341/505 335/343/509 101/102/510
f 333/341/505 334/342/507 336/344/511 335/343/509
f 334/342/507 73/74/508 75/76/512 336/344/511
f 101/102/510 335/343/509 337/345/513 99/100/514
f 335/343/509 336/344/511 338/346/515 337/345/513
f 336/344/511 75/76/512 77/78/516 338/346/515
f 99/100/514 337/345/513 339/347/517 97/98/518
f 337/345/513 338/346/515 340/348/519 339/347/517
f 338/346/515 77/78/516 79/80/520 340/348/519
f 97/98/518 339/347/517 341/349/521 95/96/522
f 339/347/517 340/348/519 342/350/523 341/349/521
f 340/348/519 79/80/520 81/82/524 342/350/523
f 95/96/522 341/349/521 343/351/525 93/94/526
f 341/349/521 342/350/523 344/352/527 343/351/525
f 342/350/523 81/82/524 83/84/528 344/352/527
f 93/94/526 343/351/525 89/90/529 91/92/530
f 343/351/525 344/352/527 87/88/531 89/90/529
f 344/352/527 83/84/528 85/86/532 87/88/531
s off
f 175/176/533 176/443/534 346/442/535 345/177/536
f 176/175/537 178/185/538 347/179/539 346/178/540
f 177/269/541 175/355/542 345/528/543 348/527/544
f 178/185/545 180/187/546 349/181/547 347/179/548
f 179/271/549 177/269/550 348/527/551 350/526/552
f 180/187/553 2/440/554 351/439/555 349/181/556
f 2/2/557 1/354/558 352/353/559 351/183/560
f 1/1/561 179/271/562 350/526/563 352/184/564
