# This file uses centimeters as units for non-parametric coordinates.

mtllib longcurvedramp.mtl
g default
v -2.327662 3.316180 13.576952
v 2.327662 3.316180 13.576952
v -2.327662 3.814770 12.710113
v 2.327662 3.814770 12.710113
v -2.327662 3.162956 12.270662
v 2.327662 3.162956 12.270662
v -2.327662 2.580135 11.743122
v 2.327662 2.580135 11.743122
v -2.327662 2.078114 11.138180
v 2.327662 2.078114 11.138180
v -2.327662 1.667064 10.468093
v 2.327662 1.667064 10.468093
v -2.327662 1.355311 9.746436
v 2.327662 1.355311 9.746436
v -2.327662 1.149173 8.987827
v 2.327662 1.149173 8.987827
v -2.327662 1.052825 8.207638
v 2.327662 1.052825 8.207638
v -2.327662 1.045461 7.375577
v 2.327662 1.045461 7.375577
v -2.327662 1.045461 6.517570
v 2.327662 1.045461 6.517570
v -2.327662 1.045461 5.659559
v 2.327662 1.045461 5.659559
v -2.327662 1.045461 4.801551
v 2.327662 1.045461 4.801551
v -2.327662 1.045461 3.943543
v 2.327662 1.045461 3.943543
v -2.327662 1.045461 3.085534
v 2.327662 1.045461 3.085534
v -2.327662 1.045461 2.227526
v 2.327662 1.045461 2.227526
v -2.327662 1.045461 1.369518
v 2.327662 1.045461 1.369518
v -2.327662 1.045461 0.511510
v 2.327662 1.045461 0.511510
v -2.327662 1.045461 -0.346499
v 2.327662 1.045461 -0.346499
v -2.327662 1.045461 -1.204508
v 2.327662 1.045461 -1.204508
v -2.327662 1.045461 -2.062515
v 2.327662 1.045461 -2.062515
v -2.327662 1.045461 -2.920523
v 2.327662 1.045461 -2.920523
v -2.327662 1.045461 -3.778532
v 2.327662 1.045461 -3.778532
v -2.327662 1.045461 -4.636540
v 2.327662 1.045461 -4.636540
v -2.327662 1.045461 -5.494549
v 2.327662 1.045461 -5.494549
v -2.327662 1.045461 -6.352557
v 2.327662 1.045461 -6.352557
v -2.327662 1.045461 -7.210566
v 2.327662 1.045461 -7.210566
v -2.327662 1.045461 -8.068574
v 2.327662 1.045461 -8.068574
v -2.327662 1.045461 -8.926582
v 2.327662 1.045461 -8.926582
v -2.327662 1.045461 -9.784590
v 2.327662 1.045461 -9.784590
v -2.327662 1.045461 -10.642599
v 2.327662 1.045461 -10.642599
v -2.327662 1.045461 -11.500607
v 2.327662 1.045461 -11.500607
v -2.327662 1.045461 -12.358616
v 2.327662 1.045461 -12.358616
v -2.327662 1.045461 -13.216622
v 2.327662 1.045461 -13.216622
v -2.327662 1.045461 -14.074633
v 2.327662 1.045461 -14.074633
v -2.327662 1.045461 -14.932640
v 2.327662 1.045461 -14.932640
v -2.327662 1.045461 -15.790648
v 2.327662 1.045461 -15.790648
v -2.327662 1.045461 -16.648657
v 2.327662 1.045461 -16.648657
v -2.327662 1.045461 -17.506664
v 2.327662 1.045461 -17.506664
v -2.327662 1.045461 -18.364673
v 2.327662 1.045461 -18.364673
v -2.327662 1.045461 -19.222683
v 2.327662 1.045461 -19.222683
v -2.327662 1.045461 -20.080692
v 2.327662 1.045461 -20.080692
v -2.327662 1.045461 -20.938700
v 2.327662 1.045461 -20.938700
v -2.327662 1.045461 -21.796710
v 2.327662 1.045461 -21.796710
v -2.327662 1.045461 -22.654717
v 2.327662 1.045461 -22.654717
v -2.327662 1.045461 -23.512725
v 2.327662 1.045461 -23.512725
v -2.327662 1.045461 -24.370735
v 2.327662 1.045461 -24.370735
v -2.327662 1.045461 -25.228745
v 2.327662 1.045461 -25.228745
v -2.327662 1.045461 -26.086753
v 2.327662 1.045461 -26.086753
v -2.327662 1.045461 -26.944760
v 2.327662 1.045461 -26.944760
v -2.327662 1.045461 -27.802770
v 2.327662 1.045461 -27.802770
v -2.327662 1.045461 -28.660772
v 2.327662 1.045461 -28.660772
v -2.327662 0.045461 -28.660772
v 2.327662 0.045461 -28.660772
v -2.327662 0.045461 -27.802763
v 2.327662 0.045461 -27.802763
v -2.327662 0.045461 -26.944753
v 2.327662 0.045461 -26.944753
v -2.327662 0.045461 -26.086745
v 2.327662 0.045461 -26.086745
v -2.327662 0.045461 -25.228737
v 2.327662 0.045461 -25.228737
v -2.327662 0.045461 -24.370727
v 2.327662 0.045461 -24.370727
v -2.327662 0.045461 -23.512717
v 2.327662 0.045461 -23.512717
v -2.327662 0.045461 -22.654710
v 2.327662 0.045461 -22.654710
v -2.327662 0.045461 -21.796702
v 2.327662 0.045461 -21.796702
v -2.327662 0.045461 -20.938692
v 2.327662 0.045461 -20.938692
v -2.327662 0.045461 -20.080684
v 2.327662 0.045461 -20.080684
v -2.327662 0.045461 -19.222675
v 2.327662 0.045461 -19.222675
v -2.327662 0.045461 -18.364665
v 2.327662 0.045461 -18.364665
v -2.327662 0.045461 -17.506657
v 2.327662 0.045461 -17.506657
v -2.327662 0.045461 -16.648649
v 2.327662 0.045461 -16.648649
v -2.327662 0.045461 -15.790640
v 2.327662 0.045461 -15.790640
v -2.327662 0.045461 -14.932633
v 2.327662 0.045461 -14.932633
v -2.327662 0.045461 -14.074625
v 2.327662 0.045461 -14.074625
v -2.327662 0.045461 -13.216615
v 2.327662 0.045461 -13.216615
v -2.327662 0.045461 -12.358609
v 2.327662 0.045461 -12.358609
v -2.327662 0.045461 -11.500600
v 2.327662 0.045461 -11.500600
v -2.327662 0.045461 -10.642591
v 2.327662 0.045461 -10.642591
v -2.327662 0.045461 -9.784583
v 2.327662 0.045461 -9.784583
v -2.327662 0.045461 -8.926574
v 2.327662 0.045461 -8.926574
v -2.327662 0.045461 -8.068566
v 2.327662 0.045461 -8.068566
v -2.327662 0.045461 -7.210558
v 2.327662 0.045461 -7.210558
v -2.327662 0.045461 -6.352549
v 2.327662 0.045461 -6.352549
v -2.327662 0.045461 -5.494541
v 2.327662 0.045461 -5.494541
v -2.327662 0.045461 -4.636533
v 2.327662 0.045461 -4.636533
v -2.327662 0.045461 -3.778524
v 2.327662 0.045461 -3.778524
v -2.327662 0.045461 -2.920516
v 2.327662 0.045461 -2.920516
v -2.327662 0.045461 -2.062507
v 2.327662 0.045461 -2.062507
v -2.327662 0.045461 -1.204500
v 2.327662 0.045461 -1.204500
v -2.327662 0.045461 -0.346491
v 2.327662 0.045461 -0.346491
v -2.327662 0.045461 0.511517
v 2.327662 0.045461 0.511517
v -2.327662 0.045461 1.369525
v 2.327662 0.045461 1.369525
v -2.327662 0.045461 2.227534
v 2.327662 0.045461 2.227534
v -2.327662 0.045461 3.085542
v 2.327662 0.045461 3.085542
v -2.327662 0.045461 3.943551
v 2.327662 0.045461 3.943551
v -2.327662 0.045461 4.801558
v 2.327662 0.045461 4.801558
v -2.327662 0.045461 5.659567
v 2.327662 0.045461 5.659567
v -2.327662 0.045461 6.517577
v 2.327662 0.045461 6.517577
v -2.327662 0.045461 7.375585
v 2.327662 0.045461 7.375585
v -2.327662 0.054158 8.259268
v 2.327662 0.054158 8.259268
v -2.327662 0.167953 9.180718
v 2.327662 0.167953 9.180718
v -2.327662 0.411415 10.076680
v 2.327662 0.411415 10.076680
v -2.327662 0.779614 10.928999
v 2.327662 0.779614 10.928999
v -2.327662 1.265090 11.720412
v 2.327662 1.265090 11.720412
v -2.327662 1.858008 12.434884
v 2.327662 1.858008 12.434884
v -2.327662 2.546355 13.057939
v 2.327662 2.546355 13.057939
vt 0.161303 0.986152
vt 0.339848 0.972805
vt 0.411882 0.909578
vt 0.511266 0.940253
vt 0.395510 0.903217
vt 0.158199 0.956931
vt 0.380208 0.894596
vt 0.168298 0.942561
vt 0.366285 0.883889
vt 0.176253 0.926903
vt 0.354022 0.871315
vt 0.181905 0.910273
vt 0.343670 0.857127
vt 0.185139 0.893010
vt 0.335436 0.841613
vt 0.185890 0.875462
vt 0.329488 0.825087
vt 0.184141 0.857986
vt 0.325224 0.806992
vt 0.180197 0.839818
vt 0.320992 0.788295
vt 0.175965 0.821121
vt 0.316760 0.769598
vt 0.171733 0.802424
vt 0.312528 0.750901
vt 0.167501 0.783728
vt 0.308296 0.732204
vt 0.163270 0.765031
vt 0.304064 0.713507
vt 0.159038 0.746334
vt 0.299832 0.694811
vt 0.154806 0.727637
vt 0.295600 0.676114
vt 0.150574 0.708940
vt 0.291368 0.657417
vt 0.146341 0.690243
vt 0.287136 0.638720
vt 0.142110 0.671546
vt 0.282904 0.620023
vt 0.137878 0.652849
vt 0.278672 0.601326
vt 0.133646 0.634153
vt 0.274440 0.582629
vt 0.129414 0.615456
vt 0.270208 0.563932
vt 0.125182 0.596759
vt 0.265976 0.545236
vt 0.120950 0.578062
vt 0.261744 0.526539
vt 0.116718 0.559365
vt 0.257512 0.507842
vt 0.112486 0.540668
vt 0.253280 0.489145
vt 0.108254 0.521971
vt 0.249048 0.470448
vt 0.104022 0.503275
vt 0.244816 0.451751
vt 0.099790 0.484578
vt 0.240584 0.433054
vt 0.095558 0.465881
vt 0.236352 0.414357
vt 0.091326 0.447184
vt 0.232120 0.395661
vt 0.087094 0.428487
vt 0.227888 0.376964
vt 0.082862 0.409790
vt 0.223656 0.358267
vt 0.078630 0.391093
vt 0.219424 0.339570
vt 0.074398 0.372396
vt 0.215192 0.320873
vt 0.070166 0.353699
vt 0.210960 0.302176
vt 0.065934 0.335002
vt 0.206728 0.283479
vt 0.061702 0.316306
vt 0.202496 0.264782
vt 0.057470 0.297609
vt 0.198264 0.246086
vt 0.053238 0.278912
vt 0.194032 0.227389
vt 0.049006 0.260215
vt 0.189800 0.208692
vt 0.044774 0.241518
vt 0.185568 0.189995
vt 0.040542 0.222821
vt 0.181336 0.171298
vt 0.036310 0.204124
vt 0.177104 0.152601
vt 0.032078 0.185427
vt 0.172872 0.133904
vt 0.027846 0.166731
vt 0.168640 0.115207
vt 0.023614 0.148034
vt 0.164408 0.096510
vt 0.019382 0.129337
vt 0.160176 0.077814
vt 0.015150 0.110640
vt 0.155944 0.059117
vt 0.010918 0.091943
vt 0.151712 0.040420
vt 0.006686 0.073246
vt 0.147480 0.021723
vt 0.019313 0.027826
vt 0.125689 0.026655
vt 0.024245 0.049617
vt 0.129921 0.045352
vt 0.028477 0.068314
vt 0.134153 0.064049
vt 0.032709 0.087011
vt 0.138385 0.082746
vt 0.036941 0.105708
vt 0.142617 0.101443
vt 0.041173 0.124405
vt 0.146849 0.120140
vt 0.045405 0.143101
vt 0.151081 0.138837
vt 0.049637 0.161798
vt 0.155313 0.157534
vt 0.053869 0.180495
vt 0.159545 0.176230
vt 0.058101 0.199192
vt 0.163777 0.194927
vt 0.062333 0.217889
vt 0.168009 0.213624
vt 0.066565 0.236586
vt 0.172241 0.232321
vt 0.070797 0.255283
vt 0.176473 0.251018
vt 0.075029 0.273980
vt 0.180705 0.269715
vt 0.079261 0.292677
vt 0.184937 0.288412
vt 0.083493 0.311373
vt 0.189169 0.307109
vt 0.087725 0.330070
vt 0.193401 0.325806
vt 0.091957 0.348767
vt 0.197633 0.344502
vt 0.096189 0.367464
vt 0.201865 0.363199
vt 0.100421 0.386161
vt 0.206097 0.381896
vt 0.104653 0.404858
vt 0.210329 0.400593
vt 0.108885 0.423555
vt 0.214561 0.419290
vt 0.113117 0.442252
vt 0.218793 0.437987
vt 0.117349 0.460949
vt 0.223025 0.456684
vt 0.121581 0.479645
vt 0.227257 0.475381
vt 0.125813 0.498342
vt 0.231489 0.494077
vt 0.130045 0.517039
vt 0.235721 0.512774
vt 0.134277 0.535736
vt 0.239953 0.531471
vt 0.138509 0.554433
vt 0.244185 0.550168
vt 0.142741 0.573130
vt 0.248417 0.568865
vt 0.146973 0.591827
vt 0.252649 0.587562
vt 0.151205 0.610524
vt 0.256881 0.606259
vt 0.155437 0.629220
vt 0.261113 0.624956
vt 0.159669 0.647917
vt 0.265345 0.643653
vt 0.163901 0.666614
vt 0.269577 0.662349
vt 0.168133 0.685311
vt 0.273809 0.681046
vt 0.172365 0.704008
vt 0.278041 0.699743
vt 0.176597 0.722705
vt 0.282273 0.718440
vt 0.180829 0.741402
vt 0.286505 0.737137
vt 0.185060 0.760099
vt 0.290737 0.755834
vt 0.189293 0.778795
vt 0.294969 0.774530
vt 0.193525 0.797492
vt 0.299201 0.793227
vt 0.197757 0.816189
vt 0.303433 0.811924
vt 0.201989 0.834886
vt 0.307981 0.831138
vt 0.206158 0.854185
vt 0.315005 0.850656
vt 0.208223 0.874826
vt 0.324730 0.868979
vt 0.207337 0.895551
vt 0.336957 0.885736
vt 0.203517 0.915940
vt 0.351440 0.900587
vt 0.196842 0.935580
vt 0.367884 0.913232
vt 0.187445 0.954073
vt 0.385957 0.923413
vt 0.175519 0.971046
vt 0.685422 0.023332
vt 0.691076 0.005015
vt 0.784806 0.054007
vt 0.790460 0.035690
vt 0.679768 0.041649
vt 0.779152 0.072324
vt 0.674115 0.059966
vt 0.773499 0.090641
vt 0.668461 0.078283
vt 0.767845 0.108958
vt 0.662808 0.096601
vt 0.762192 0.127276
vt 0.657154 0.114918
vt 0.756538 0.145593
vt 0.651500 0.133235
vt 0.750884 0.163910
vt 0.645847 0.151552
vt 0.745231 0.182227
vt 0.640193 0.169869
vt 0.739577 0.200544
vt 0.634539 0.188187
vt 0.733924 0.218862
vt 0.628886 0.206504
vt 0.728270 0.237179
vt 0.623232 0.224821
vt 0.722616 0.255496
vt 0.617579 0.243138
vt 0.716963 0.273813
vt 0.611925 0.261455
vt 0.711309 0.292130
vt 0.606271 0.279773
vt 0.705655 0.310448
vt 0.600618 0.298090
vt 0.700002 0.328765
vt 0.594964 0.316407
vt 0.694348 0.347082
vt 0.589310 0.334724
vt 0.688695 0.365399
vt 0.583657 0.353041
vt 0.683041 0.383716
vt 0.578003 0.371359
vt 0.677387 0.402034
vt 0.572350 0.389676
vt 0.671734 0.420351
vt 0.566696 0.407993
vt 0.666080 0.438668
vt 0.561042 0.426310
vt 0.660427 0.456985
vt 0.555389 0.444627
vt 0.654773 0.475302
vt 0.549735 0.462945
vt 0.649119 0.493620
vt 0.544082 0.481262
vt 0.643466 0.511937
vt 0.538428 0.499579
vt 0.637812 0.530254
vt 0.532774 0.517896
vt 0.632159 0.548571
vt 0.527121 0.536213
vt 0.626505 0.566888
vt 0.521467 0.554531
vt 0.620851 0.585205
vt 0.515813 0.572848
vt 0.615198 0.603523
vt 0.510160 0.591165
vt 0.609544 0.621840
vt 0.504506 0.609482
vt 0.603890 0.640157
vt 0.498853 0.627799
vt 0.598237 0.658474
vt 0.493199 0.646117
vt 0.592583 0.676792
vt 0.487546 0.664434
vt 0.586930 0.695109
vt 0.481892 0.682751
vt 0.581276 0.713426
vt 0.476238 0.701068
vt 0.575622 0.731743
vt 0.470585 0.719385
vt 0.569969 0.750060
vt 0.464931 0.737702
vt 0.564315 0.768377
vt 0.459277 0.756020
vt 0.558661 0.786695
vt 0.453624 0.774337
vt 0.553008 0.805012
vt 0.448141 0.792101
vt 0.547525 0.822776
vt 0.442961 0.808883
vt 0.542345 0.839558
vt 0.437781 0.825666
vt 0.537165 0.856341
vt 0.432601 0.842448
vt 0.531985 0.873123
vt 0.427421 0.859230
vt 0.526805 0.889905
vt 0.422241 0.876013
vt 0.521625 0.906688
vt 0.417061 0.892795
vt 0.516446 0.923470
vt 0.335268 0.952573
vt 0.405292 0.930926
vt 0.233824 0.975535
vt 0.504676 0.961601
vt 0.330689 0.932341
vt 0.229245 0.955303
vt 0.326109 0.912109
vt 0.224665 0.935071
vt 0.321530 0.891877
vt 0.220086 0.914839
vt 0.316950 0.871645
vt 0.215506 0.894607
vt 0.312371 0.851414
vt 0.210927 0.874375
vt 0.307792 0.831182
vt 0.206347 0.854143
vt 0.002454 0.054549
vt 0.146163 0.969722
vt 0.120757 0.004864
vt 0.238403 0.995766
vn 0.000000 0.866838 0.498589
vn 0.000000 0.866838 0.498589
vn 0.000000 0.866838 0.498589
vn 0.000000 0.866838 0.498589
vn 0.000000 0.559015 -0.829158
vn 0.000000 0.559015 -0.829158
vn 0.000000 0.616607 -0.787271
vn 0.000000 0.616607 -0.787271
vn 0.000000 0.722133 -0.691754
vn 0.000000 0.722133 -0.691754
vn 0.000000 0.813028 -0.582224
vn 0.000000 0.813028 -0.582224
vn 0.000000 0.887453 -0.460899
vn 0.000000 0.887453 -0.460899
vn 0.000000 0.943899 -0.330235
vn 0.000000 0.943899 -0.330235
vn 0.000000 0.981222 -0.192882
vn 0.000000 0.981222 -0.192882
vn 0.000000 0.997937 -0.064195
vn 0.000000 0.997937 -0.064195
vn 0.000000 0.999991 -0.004357
vn 0.000000 0.999991 -0.004357
vn 0.000000 1.000000 0.000000
vn 0.000000 1.000000 0.000000
vn 0.000000 1.000000 0.000000
vn 0.000000 1.000000 0.000000
vn 0.000000 1.000000 0.000000
vn 0.000000 1.000000 0.000000
vn 0.000000 1.000000 0.000000
vn 0.000000 1.000000 0.000000
vn 0.000000 1.000000 0.000000
vn 0.000000 1.000000 0.000000
vn 0.000000 1.000000 0.000000
vn 0.000000 1.000000 0.000000
vn 0.000000 1.000000 0.000000
vn 0.000000 1.000000 0.000000
vn 0.000000 1.000000 0.000000
vn 0.000000 1.000000 0.000000
vn 0.000000 1.000000 0.000000
vn 0.000000 1.000000 0.000000
vn 0.000000 1.000000 0.000000
vn 0.000000 1.000000 0.000000
vn 0.000000 1.000000 0.000000
vn 0.000000 1.000000 0.000000
vn 0.000000 1.000000 0.000000
vn 0.000000 1.000000 0.000000
vn 0.000000 1.000000 0.000000
vn 0.000000 1.000000 0.000000
vn 0.000000 1.000000 0.000000
vn 0.000000 1.000000 0.000000
vn 0.000000 1.000000 0.000000
vn 0.000000 1.000000 0.000000
vn 0.000000 1.000000 0.000000
vn 0.000000 1.000000 0.000000
vn 0.000000 1.000000 0.000000
vn 0.000000 1.000000 0.000000
vn 0.000000 1.000000 0.000000
vn 0.000000 1.000000 0.000000
vn 0.000000 1.000000 0.000000
vn 0.000000 1.000000 0.000000
vn 0.000000 1.000000 0.000000
vn 0.000000 1.000000 0.000000
vn 0.000000 1.000000 0.000000
vn 0.000000 1.000000 0.000000
vn 0.000000 1.000000 0.000000
vn 0.000000 1.000000 0.000000
vn 0.000000 1.000000 0.000000
vn 0.000000 1.000000 0.000000
vn 0.000000 1.000000 0.000000
vn 0.000000 1.000000 0.000000
vn 0.000000 1.000000 0.000000
vn 0.000000 1.000000 0.000000
vn 0.000000 1.000000 0.000000
vn 0.000000 1.000000 0.000000
vn 0.000000 1.000000 0.000000
vn 0.000000 1.000000 0.000000
vn 0.000000 1.000000 0.000000
vn 0.000000 1.000000 0.000000
vn 0.000000 1.000000 0.000000
vn 0.000000 1.000000 0.000000
vn 0.000000 1.000000 0.000000
vn 0.000000 1.000000 0.000000
vn 0.000000 1.000000 0.000000
vn 0.000000 1.000000 0.000000
vn 0.000000 1.000000 0.000000
vn 0.000000 1.000000 0.000000
vn 0.000000 1.000000 0.000000
vn 0.000000 1.000000 0.000000
vn 0.000000 1.000000 0.000000
vn 0.000000 1.000000 0.000000
vn 0.000000 1.000000 0.000000
vn 0.000000 1.000000 0.000000
vn 0.000000 1.000000 0.000000
vn 0.000000 1.000000 0.000000
vn 0.000000 1.000000 0.000000
vn 0.000000 1.000000 0.000000
vn 0.000000 1.000000 0.000000
vn 0.000000 1.000000 0.000000
vn 0.000000 1.000000 0.000000
vn 0.000000 1.000000 0.000000
vn 0.000000 1.000000 0.000000
vn 0.000000 1.000000 0.000000
vn 0.000000 1.000000 0.000000
vn 0.000000 1.000000 0.000000
vn 0.000000 1.000000 0.000000
vn 0.000000 1.000000 0.000000
vn 0.000000 0.000000 -1.000000
vn 0.000000 0.000000 -1.000000
vn 0.000000 0.000000 -1.000000
vn 0.000000 0.000000 -1.000000
vn 0.000000 -1.000000 0.000000
vn 0.000000 -1.000000 0.000000
vn 0.000000 -1.000000 0.000000
vn 0.000000 -1.000000 0.000000
vn 0.000000 -1.000000 0.000000
vn 0.000000 -1.000000 0.000000
vn 0.000000 -1.000000 0.000000
vn 0.000000 -1.000000 0.000000
vn 0.000000 -1.000000 0.000000
vn 0.000000 -1.000000 0.000000
vn 0.000000 -1.000000 0.000000
vn 0.000000 -1.000000 0.000000
vn 0.000000 -1.000000 0.000000
vn 0.000000 -1.000000 0.000000
vn 0.000000 -1.000000 0.000000
vn 0.000000 -1.000000 0.000000
vn 0.000000 -1.000000 0.000000
vn 0.000000 -1.000000 0.000000
vn 0.000000 -1.000000 0.000000
vn 0.000000 -1.000000 0.000000
vn 0.000000 -1.000000 0.000000
vn 0.000000 -1.000000 0.000000
vn 0.000000 -1.000000 0.000000
vn 0.000000 -1.000000 0.000000
vn 0.000000 -1.000000 0.000000
vn 0.000000 -1.000000 0.000000
vn 0.000000 -1.000000 0.000000
vn 0.000000 -1.000000 0.000000
vn 0.000000 -1.000000 0.000000
vn 0.000000 -1.000000 0.000000
vn 0.000000 -1.000000 0.000000
vn 0.000000 -1.000000 0.000000
vn 0.000000 -1.000000 0.000000
vn 0.000000 -1.000000 0.000000
vn 0.000000 -1.000000 0.000000
vn 0.000000 -1.000000 0.000000
vn 0.000000 -1.000000 0.000000
vn 0.000000 -1.000000 0.000000
vn 0.000000 -1.000000 0.000000
vn 0.000000 -1.000000 0.000000
vn 0.000000 -1.000000 0.000000
vn 0.000000 -1.000000 0.000000
vn 0.000000 -1.000000 0.000000
vn 0.000000 -1.000000 0.000000
vn 0.000000 -1.000000 0.000000
vn 0.000000 -1.000000 0.000000
vn 0.000000 -1.000000 0.000000
vn 0.000000 -1.000000 0.000000
vn 0.000000 -1.000000 0.000000
vn 0.000000 -1.000000 0.000000
vn 0.000000 -1.000000 0.000000
vn 0.000000 -1.000000 0.000000
vn 0.000000 -1.000000 0.000000
vn 0.000000 -1.000000 0.000000
vn 0.000000 -1.000000 0.000000
vn 0.000000 -1.000000 0.000000
vn 0.000000 -1.000000 0.000000
vn 0.000000 -1.000000 0.000000
vn 0.000000 -1.000000 0.000000
vn 0.000000 -1.000000 0.000000
vn 0.000000 -1.000000 0.000000
vn 0.000000 -1.000000 0.000000
vn 0.000000 -1.000000 0.000000
vn 0.000000 -1.000000 0.000000
vn 0.000000 -1.000000 0.000000
vn 0.000000 -1.000000 0.000000
vn 0.000000 -1.000000 0.000000
vn 0.000000 -1.000000 0.000000
vn 0.000000 -1.000000 0.000000
vn 0.000000 -1.000000 0.000000
vn 0.000000 -1.000000 0.000000
vn 0.000000 -1.000000 0.000000
vn 0.000000 -1.000000 0.000000
vn 0.000000 -1.000000 0.000000
vn 0.000000 -1.000000 0.000000
vn 0.000000 -1.000000 0.000000
vn 0.000000 -1.000000 0.000000
vn 0.000000 -1.000000 0.000000
vn 0.000000 -1.000000 0.000000
vn 0.000000 -1.000000 0.000000
vn 0.000000 -1.000000 0.000000
vn 0.000000 -1.000000 0.000000
vn 0.000000 -1.000000 0.000000
vn 0.000000 -1.000000 0.000000
vn 0.000000 -0.999988 0.004994
vn 0.000000 -0.999988 0.004994
vn 0.000000 -0.997706 0.067702
vn 0.000000 -0.997706 0.067702
vn 0.000000 -0.981222 0.192883
vn 0.000000 -0.981222 0.192883
vn 0.000000 -0.943898 0.330237
vn 0.000000 -0.943898 0.330237
vn 0.000000 -0.887452 0.460900
vn 0.000000 -0.887452 0.460900
vn 0.000000 -0.813028 0.582225
vn 0.000000 -0.813028 0.582225
vn 0.000000 -0.722132 0.691756
vn 0.000000 -0.722132 0.691756
vn 0.000000 -0.616606 0.787272
vn 0.000000 -0.616606 0.787272
vn 0.000000 -0.559014 0.829158
vn 0.000000 -0.559014 0.829158
vn 1.000000 0.000000 0.000000
vn 1.000000 0.000000 0.000000
vn 1.000000 0.000000 0.000000
vn 1.000000 0.000000 0.000000
vn 1.000000 0.000000 0.000000
vn 1.000000 0.000000 0.000000
vn 1.000000 0.000000 0.000000
vn 1.000000 0.000000 0.000000
vn 1.000000 0.000000 0.000000
vn 1.000000 0.000000 0.000000
vn 1.000000 0.000000 0.000000
vn 1.000000 0.000000 0.000000
vn 1.000000 0.000000 0.000000
vn 1.000000 0.000000 0.000000
vn 1.000000 0.000000 0.000000
vn 1.000000 0.000000 0.000000
vn 1.000000 0.000000 0.000000
vn 1.000000 0.000000 0.000000
vn 1.000000 0.000000 0.000000
vn 1.000000 0.000000 0.000000
vn 1.000000 0.000000 0.000000
vn 1.000000 0.000000 0.000000
vn 1.000000 0.000000 0.000000
vn 1.000000 0.000000 0.000000
vn 1.000000 0.000000 0.000000
vn 1.000000 0.000000 0.000000
vn 1.000000 0.000000 0.000000
vn 1.000000 0.000000 0.000000
vn 1.000000 0.000000 0.000000
vn 1.000000 0.000000 0.000000
vn 1.000000 0.000000 0.000000
vn 1.000000 0.000000 0.000000
vn 1.000000 0.000000 0.000000
vn 1.000000 0.000000 0.000000
vn 1.000000 0.000000 0.000000
vn 1.000000 0.000000 0.000000
vn 1.000000 0.000000 0.000000
vn 1.000000 0.000000 0.000000
vn 1.000000 0.000000 0.000000
vn 1.000000 0.000000 0.000000
vn 1.000000 0.000000 0.000000
vn 1.000000 0.000000 0.000000
vn 1.000000 0.000000 0.000000
vn 1.000000 0.000000 0.000000
vn 1.000000 0.000000 0.000000
vn 1.000000 0.000000 0.000000
vn 1.000000 0.000000 0.000000
vn 1.000000 0.000000 0.000000
vn 1.000000 0.000000 0.000000
vn 1.000000 0.000000 0.000000
vn 1.000000 0.000000 0.000000
vn 1.000000 0.000000 0.000000
vn 1.000000 0.000000 0.000000
vn 1.000000 0.000000 0.000000
vn 1.000000 0.000000 0.000000
vn 1.000000 0.000000 0.000000
vn 1.000000 0.000000 0.000000
vn 1.000000 0.000000 0.000000
vn 1.000000 0.000000 0.000000
vn 1.000000 0.000000 0.000000
vn 1.000000 0.000000 0.000000
vn 1.000000 0.000000 0.000000
vn 1.000000 0.000000 0.000000
vn 1.000000 0.000000 0.000000
vn 1.000000 0.000000 0.000000
vn 1.000000 0.000000 0.000000
vn 1.000000 0.000000 0.000000
vn 1.000000 0.000000 0.000000
vn 1.000000 0.000000 0.000000
vn 1.000000 0.000000 0.000000
vn 1.000000 0.000000 0.000000
vn 1.000000 0.000000 0.000000
vn 1.000000 0.000000 0.000000
vn 1.000000 0.000000 0.000000
vn 1.000000 0.000000 0.000000
vn 1.000000 0.000000 0.000000
vn 1.000000 0.000000 0.000000
vn 1.000000 0.000000 0.000000
vn 1.000000 0.000000 0.000000
vn 1.000000 0.000000 0.000000
vn 1.000000 0.000000 0.000000
vn 1.000000 0.000000 0.000000
vn 1.000000 0.000000 0.000000
vn 1.000000 0.000000 0.000000
vn 1.000000 0.000000 0.000000
vn 1.000000 0.000000 0.000000
vn 1.000000 0.000000 0.000000
vn 1.000000 0.000000 0.000000
vn 1.000000 0.000000 0.000000
vn 1.000000 0.000000 0.000000
vn 1.000000 0.000000 0.000000
vn 1.000000 0.000000 0.000000
vn 1.000000 0.000000 0.000000
vn 1.000000 0.000000 0.000000
vn 1.000000 0.000000 0.000000
vn 1.000000 0.000000 0.000000
vn 1.000000 0.000000 0.000000
vn 1.000000 0.000000 0.000000
vn 1.000000 0.000000 0.000000
vn 1.000000 0.000000 0.000000
vn 1.000000 0.000000 0.000000
vn 1.000000 0.000000 0.000000
vn -1.000000 0.000000 0.000000
vn -1.000000 0.000000 0.000000
vn -1.000000 0.000000 0.000000
vn -1.000000 0.000000 0.000000
vn -1.000000 0.000000 0.000000
vn -1.000000 0.000000 0.000000
vn -1.000000 0.000000 0.000000
vn -1.000000 0.000000 0.000000
vn -1.000000 0.000000 0.000000
vn -1.000000 0.000000 0.000000
vn -1.000000 0.000000 0.000000
vn -1.000000 0.000000 0.000000
vn -1.000000 0.000000 0.000000
vn -1.000000 0.000000 0.000000
vn -1.000000 0.000000 0.000000
vn -1.000000 0.000000 0.000000
vn -1.000000 0.000000 0.000000
vn -1.000000 0.000000 0.000000
vn -1.000000 0.000000 0.000000
vn -1.000000 0.000000 0.000000
vn -1.000000 0.000000 0.000000
vn -1.000000 0.000000 0.000000
vn -1.000000 0.000000 0.000000
vn -1.000000 0.000000 0.000000
vn -1.000000 0.000000 0.000000
vn -1.000000 0.000000 0.000000
vn -1.000000 0.000000 0.000000
vn -1.000000 0.000000 0.000000
vn -1.000000 0.000000 0.000000
vn -1.000000 0.000000 0.000000
vn -1.000000 0.000000 0.000000
vn -1.000000 0.000000 0.000000
vn -1.000000 0.000000 0.000000
vn -1.000000 0.000000 0.000000
vn -1.000000 0.000000 0.000000
vn -1.000000 0.000000 0.000000
vn -1.000000 0.000000 0.000000
vn -1.000000 0.000000 0.000000
vn -1.000000 0.000000 0.000000
vn -1.000000 0.000000 0.000000
vn -1.000000 0.000000 0.000000
vn -1.000000 0.000000 0.000000
vn -1.000000 0.000000 0.000000
vn -1.000000 0.000000 0.000000
vn -1.000000 0.000000 0.000000
vn -1.000000 0.000000 0.000000
vn -1.000000 0.000000 0.000000
vn -1.000000 0.000000 0.000000
vn -1.000000 0.000000 0.000000
vn -1.000000 0.000000 0.000000
vn -1.000000 0.000000 0.000000
vn -1.000000 0.000000 0.000000
vn -1.000000 0.000000 0.000000
vn -1.000000 0.000000 0.000000
vn -1.000000 0.000000 0.000000
vn -1.000000 0.000000 0.000000
vn -1.000000 0.000000 0.000000
vn -1.000000 0.000000 0.000000
vn -1.000000 0.000000 0.000000
vn -1.000000 0.000000 0.000000
vn -1.000000 0.000000 0.000000
vn -1.000000 0.000000 0.000000
vn -1.000000 0.000000 0.000000
vn -1.000000 0.000000 0.000000
vn -1.000000 0.000000 0.000000
vn -1.000000 0.000000 0.000000
vn -1.000000 0.000000 0.000000
vn -1.000000 0.000000 0.000000
vn -1.000000 0.000000 0.000000
vn -1.000000 0.000000 0.000000
vn -1.000000 0.000000 0.000000
vn -1.000000 0.000000 0.000000
vn -1.000000 0.000000 0.000000
vn -1.000000 0.000000 0.000000
vn -1.000000 0.000000 0.000000
vn -1.000000 0.000000 0.000000
vn -1.000000 0.000000 0.000000
vn -1.000000 0.000000 0.000000
vn -1.000000 0.000000 0.000000
vn -1.000000 0.000000 0.000000
vn -1.000000 0.000000 0.000000
vn -1.000000 0.000000 0.000000
vn -1.000000 0.000000 0.000000
vn -1.000000 0.000000 0.000000
vn -1.000000 0.000000 0.000000
vn -1.000000 0.000000 0.000000
vn -1.000000 0.000000 0.000000
vn -1.000000 0.000000 0.000000
vn -1.000000 0.000000 0.000000
vn -1.000000 0.000000 0.000000
vn -1.000000 0.000000 0.000000
vn -1.000000 0.000000 0.000000
vn -1.000000 0.000000 0.000000
vn -1.000000 0.000000 0.000000
vn -1.000000 0.000000 0.000000
vn -1.000000 0.000000 0.000000
vn -1.000000 0.000000 0.000000
vn -1.000000 0.000000 0.000000
vn -1.000000 0.000000 0.000000
vn -1.000000 0.000000 0.000000
vn -1.000000 0.000000 0.000000
vn -1.000000 0.000000 0.000000
s off
g pCube1
usemtl initialShadingGroup
f 1/308/1 2/306/2 4/3/3 3/4/4
s 1
f 3/4/5 4/3/6 6/303/7 5/304/8
f 5/304/8 6/303/7 8/301/9 7/302/10
f 7/302/10 8/301/9 10/299/11 9/300/12
f 9/300/12 10/299/11 12/297/13 11/298/14
f 11/298/14 12/297/13 14/295/15 13/296/16
f 13/296/16 14/295/15 16/293/17 15/294/18
f 15/294/18 16/293/17 18/291/19 17/292/20
f 17/292/20 18/291/19 20/289/21 19/290/22
f 19/290/22 20/289/21 22/287/23 21/288/24
f 21/288/24 22/287/23 24/285/25 23/286/26
f 23/286/26 24/285/25 26/283/27 25/284/28
f 25/284/28 26/283/27 28/281/29 27/282/30
f 27/282/30 28/281/29 30/279/31 29/280/32
f 29/280/32 30/279/31 32/277/33 31/278/34
f 31/278/34 32/277/33 34/275/35 33/276/36
f 33/276/36 34/275/35 36/273/37 35/274/38
f 35/274/38 36/273/37 38/271/39 37/272/40
f 37/272/40 38/271/39 40/269/41 39/270/42
f 39/270/42 40/269/41 42/267/43 41/268/44
f 41/268/44 42/267/43 44/265/45 43/266/46
f 43/266/46 44/265/45 46/263/47 45/264/48
f 45/264/48 46/263/47 48/261/49 47/262/50
f 47/262/50 48/261/49 50/259/51 49/260/52
f 49/260/52 50/259/51 52/257/53 51/258/54
f 51/258/54 52/257/53 54/255/55 53/256/56
f 53/256/56 54/255/55 56/253/57 55/254/58
f 55/254/58 56/253/57 58/251/59 57/252/60
f 57/252/60 58/251/59 60/249/61 59/250/62
f 59/250/62 60/249/61 62/247/63 61/248/64
f 61/248/64 62/247/63 64/245/65 63/246/66
f 63/246/66 64/245/65 66/243/67 65/244/68
f 65/244/68 66/243/67 68/241/69 67/242/70
f 67/242/70 68/241/69 70/239/71 69/240/72
f 69/240/72 70/239/71 72/237/73 71/238/74
f 71/238/74 72/237/73 74/235/75 73/236/76
f 73/236/76 74/235/75 76/233/77 75/234/78
f 75/234/78 76/233/77 78/231/79 77/232/80
f 77/232/80 78/231/79 80/229/81 79/230/82
f 79/230/82 80/229/81 82/227/83 81/228/84
f 81/228/84 82/227/83 84/225/85 83/226/86
f 83/226/86 84/225/85 86/223/87 85/224/88
f 85/224/88 86/223/87 88/221/89 87/222/90
f 87/222/90 88/221/89 90/219/91 89/220/92
f 89/220/92 90/219/91 92/217/93 91/218/94
f 91/218/94 92/217/93 94/215/95 93/216/96
f 93/216/96 94/215/95 96/213/97 95/214/98
f 95/214/98 96/213/97 98/211/99 97/212/100
f 97/212/100 98/211/99 100/209/101 99/210/102
f 99/210/102 100/209/101 102/205/103 101/207/104
f 101/207/104 102/205/103 104/206/105 103/208/106
s off
f 103/104/107 104/323/108 106/105/109 105/106/110
s 2
f 105/106/111 106/105/112 108/107/113 107/108/114
f 107/108/114 108/107/113 110/109/115 109/110/116
f 109/110/116 110/109/115 112/111/117 111/112/118
f 111/112/118 112/111/117 114/113/119 113/114/120
f 113/114/120 114/113/119 116/115/121 115/116/122
f 115/116/122 116/115/121 118/117/123 117/118/124
f 117/118/124 118/117/123 120/119/125 119/120/126
f 119/120/126 120/119/125 122/121/127 121/122/128
f 121/122/128 122/121/127 124/123/129 123/124/130
f 123/124/130 124/123/129 126/125/131 125/126/132
f 125/126/132 126/125/131 128/127/133 127/128/134
f 127/128/134 128/127/133 130/129/135 129/130/136
f 129/130/136 130/129/135 132/131/137 131/132/138
f 131/132/138 132/131/137 134/133/139 133/134/140
f 133/134/140 134/133/139 136/135/141 135/136/142
f 135/136/142 136/135/141 138/137/143 137/138/144
f 137/138/144 138/137/143 140/139/145 139/140/146
f 139/140/146 140/139/145 142/141/147 141/142/148
f 141/142/148 142/141/147 144/143/149 143/144/150
f 143/144/150 144/143/149 146/145/151 145/146/152
f 145/146/152 146/145/151 148/147/153 147/148/154
f 147/148/154 148/147/153 150/149/155 149/150/156
f 149/150/156 150/149/155 152/151/157 151/152/158
f 151/152/158 152/151/157 154/153/159 153/154/160
f 153/154/160 154/153/159 156/155/161 155/156/162
f 155/156/162 156/155/161 158/157/163 157/158/164
f 157/158/164 158/157/163 160/159/165 159/160/166
f 159/160/166 160/159/165 162/161/167 161/162/168
f 161/162/168 162/161/167 164/163/169 163/164/170
f 163/164/170 164/163/169 166/165/171 165/166/172
f 165/166/172 166/165/171 168/167/173 167/168/174
f 167/168/174 168/167/173 170/169/175 169/170/176
f 169/170/176 170/169/175 172/171/177 171/172/178
f 171/172/178 172/171/177 174/173/179 173/174/180
f 173/174/180 174/173/179 176/175/181 175/176/182
f 175/176/182 176/175/181 178/177/183 177/178/184
f 177/178/184 178/177/183 180/179/185 179/180/186
f 179/180/186 180/179/185 182/181/187 181/182/188
f 181/182/188 182/181/187 184/183/189 183/184/190
f 183/184/190 184/183/189 186/185/191 185/186/192
f 185/186/192 186/185/191 188/187/193 187/188/194
f 187/188/194 188/187/193 190/189/195 189/190/196
f 189/190/196 190/189/195 192/319/197 191/320/198
f 191/320/198 192/319/197 194/317/199 193/318/200
f 193/318/200 194/317/199 196/315/201 195/316/202
f 195/316/202 196/315/201 198/313/203 197/314/204
f 197/314/204 198/313/203 200/311/205 199/312/206
f 199/312/206 200/311/205 202/309/207 201/310/208
f 201/310/208 202/309/207 204/305/209 203/307/210
f 203/307/210 204/305/209 2/2/211 1/324/212
s 3
f 108/107/213 106/105/214 104/103/215 102/101/216
f 110/109/217 108/107/213 102/101/216 100/99/218
f 112/111/219 110/109/217 100/99/218 98/97/220
f 114/113/221 112/111/219 98/97/220 96/95/222
f 116/115/223 114/113/221 96/95/222 94/93/224
f 118/117/225 116/115/223 94/93/224 92/91/226
f 120/119/227 118/117/225 92/91/226 90/89/228
f 122/121/229 120/119/227 90/89/228 88/87/230
f 124/123/231 122/121/229 88/87/230 86/85/232
f 126/125/233 124/123/231 86/85/232 84/83/234
f 128/127/235 126/125/233 84/83/234 82/81/236
f 130/129/237 128/127/235 82/81/236 80/79/238
f 132/131/239 130/129/237 80/79/238 78/77/240
f 134/133/241 132/131/239 78/77/240 76/75/242
f 136/135/243 134/133/241 76/75/242 74/73/244
f 138/137/245 136/135/243 74/73/244 72/71/246
f 140/139/247 138/137/245 72/71/246 70/69/248
f 142/141/249 140/139/247 70/69/248 68/67/250
f 144/143/251 142/141/249 68/67/250 66/65/252
f 146/145/253 144/143/251 66/65/252 64/63/254
f 148/147/255 146/145/253 64/63/254 62/61/256
f 150/149/257 148/147/255 62/61/256 60/59/258
f 152/151/259 150/149/257 60/59/258 58/57/260
f 154/153/261 152/151/259 58/57/260 56/55/262
f 156/155/263 154/153/261 56/55/262 54/53/264
f 158/157/265 156/155/263 54/53/264 52/51/266
f 160/159/267 158/157/265 52/51/266 50/49/268
f 162/161/269 160/159/267 50/49/268 48/47/270
f 164/163/271 162/161/269 48/47/270 46/45/272
f 166/165/273 164/163/271 46/45/272 44/43/274
f 168/167/275 166/165/273 44/43/274 42/41/276
f 170/169/277 168/167/275 42/41/276 40/39/278
f 172/171/279 170/169/277 40/39/278 38/37/280
f 174/173/281 172/171/279 38/37/280 36/35/282
f 176/175/283 174/173/281 36/35/282 34/33/284
f 178/177/285 176/175/283 34/33/284 32/31/286
f 180/179/287 178/177/285 32/31/286 30/29/288
f 182/181/289 180/179/287 30/29/288 28/27/290
f 184/183/291 182/181/289 28/27/290 26/25/292
f 186/185/293 184/183/291 26/25/292 24/23/294
f 188/187/295 186/185/293 24/23/294 22/21/296
f 190/189/297 188/187/295 22/21/296 20/19/298
f 192/191/299 190/189/297 20/19/298 18/17/300
f 194/193/301 192/191/299 18/17/300 16/15/302
f 196/195/303 194/193/301 16/15/302 14/13/304
f 198/197/305 196/195/303 14/13/304 12/11/306
f 200/199/307 198/197/305 12/11/306 10/9/308
f 202/201/309 200/199/307 10/9/308 8/7/310
f 204/203/311 202/201/309 8/7/310 6/5/312
f 2/306/313 204/203/311 6/5/312 4/3/314
s 4
f 105/106/315 107/108/316 101/102/317 103/321/318
f 107/108/316 109/110/319 99/100/320 101/102/317
f 109/110/319 111/112/321 97/98/322 99/100/320
f 111/112/321 113/114/323 95/96/324 97/98/322
f 113/114/323 115/116/325 93/94/326 95/96/324
f 115/116/325 117/118/327 91/92/328 93/94/326
f 117/118/327 119/120/329 89/90/330 91/92/328
f 119/120/329 121/122/331 87/88/332 89/90/330
f 121/122/331 123/124/333 85/86/334 87/88/332
f 123/124/333 125/126/335 83/84/336 85/86/334
f 125/126/335 127/128/337 81/82/338 83/84/336
f 127/128/337 129/130/339 79/80/340 81/82/338
f 129/130/339 131/132/341 77/78/342 79/80/340
f 131/132/341 133/134/343 75/76/344 77/78/342
f 133/134/343 135/136/345 73/74/346 75/76/344
f 135/136/345 137/138/347 71/72/348 73/74/346
f 137/138/347 139/140/349 69/70/350 71/72/348
f 139/140/349 141/142/351 67/68/352 69/70/350
f 141/142/351 143/144/353 65/66/354 67/68/352
f 143/144/353 145/146/355 63/64/356 65/66/354
f 145/146/355 147/148/357 61/62/358 63/64/356
f 147/148/357 149/150/359 59/60/360 61/62/358
f 149/150/359 151/152/361 57/58/362 59/60/360
f 151/152/361 153/154/363 55/56/364 57/58/362
f 153/154/363 155/156/365 53/54/366 55/56/364
f 155/156/365 157/158/367 51/52/368 53/54/366
f 157/158/367 159/160/369 49/50/370 51/52/368
f 159/160/369 161/162/371 47/48/372 49/50/370
f 161/162/371 163/164/373 45/46/374 47/48/372
f 163/164/373 165/166/375 43/44/376 45/46/374
f 165/166/375 167/168/377 41/42/378 43/44/376
f 167/168/377 169/170/379 39/40/380 41/42/378
f 169/170/379 171/172/381 37/38/382 39/40/380
f 171/172/381 173/174/383 35/36/384 37/38/382
f 173/174/383 175/176/385 33/34/386 35/36/384
f 175/176/385 177/178/387 31/32/388 33/34/386
f 177/178/387 179/180/389 29/30/390 31/32/388
f 179/180/389 181/182/391 27/28/392 29/30/390
f 181/182/391 183/184/393 25/26/394 27/28/392
f 183/184/393 185/186/395 23/24/396 25/26/394
f 185/186/395 187/188/397 21/22/398 23/24/396
f 187/188/397 189/190/399 19/20/400 21/22/398
f 189/190/399 191/192/401 17/18/402 19/20/400
f 191/192/401 193/194/403 15/16/404 17/18/402
f 193/194/403 195/196/405 13/14/406 15/16/404
f 195/196/405 197/198/407 11/12/408 13/14/406
f 197/198/407 199/200/409 9/10/410 11/12/408
f 199/200/409 201/202/411 7/8/412 9/10/410
f 201/202/411 203/204/413 5/6/414 7/8/412
f 203/204/413 1/1/415 3/322/416 5/6/414
