# This file uses centimeters as units for non-parametric coordinates.

mtllib GM-Arch.mtl
g default
v 0.000000 0.000005 -0.000006
v 0.000000 100.000000 -0.000006
v 0.000000 0.000005 -100.000000
v 0.000000 100.000000 -100.000000
v 100.000000 100.000000 -0.000006
v 100.000000 100.000000 -100.000000
v 100.000000 75.000000 -0.000006
v 25.000000 0.000005 -100.000000
v 100.000000 75.000000 -100.000000
v 83.310928 73.119591 -100.000000
v 67.458717 67.572662 -100.000000
v 53.238266 58.637363 -100.000000
v 41.362637 46.761738 -100.000000
v 32.427334 32.541283 -100.000000
v 26.880407 16.689074 -100.000000
v 25.000000 0.000005 -0.000006
v 26.880407 16.689074 -0.000006
v 32.427334 32.541283 -0.000006
v 41.362637 46.761738 -0.000006
v 53.238266 58.637363 -0.000006
v 67.458717 67.572662 -0.000006
v 83.310928 73.119591 -0.000006
v 75.000000 100.000000 -0.000006
v 50.000000 100.000000 -0.000006
v 25.000000 100.000000 -0.000006
v 25.000000 100.000000 -100.000000
v 50.000000 100.000000 -100.000000
v 75.000000 100.000000 -100.000000
v 0.000000 25.000004 -0.000006
v 0.000000 50.000000 -0.000006
v 0.000000 75.000000 -0.000006
v 0.000000 75.000000 -100.000000
v 0.000000 50.000000 -100.000000
v 0.000000 25.000004 -100.000000
v 47.300453 52.699547 -100.000000
v 47.300453 52.699547 -0.000006
v 12.500000 87.500000 -100.000000
v 12.500000 87.500000 -0.000006
vt 0.727938 0.612140
vt 0.727938 0.272062
vt 0.727938 0.204047
vt 0.659922 0.816187
vt 0.000000 0.272063
vt 0.659922 0.000000
vt 0.342168 0.272063
vt 0.455875 0.272063
vt 0.387860 0.272063
vt 0.455875 0.544125
vt 0.654806 0.045405
vt 0.654806 0.770783
vt 0.639715 0.088533
vt 0.639715 0.727655
vt 0.615405 0.127221
vt 0.205092 0.544125
vt 0.599251 0.672812
vt 0.250784 0.272063
vt 0.583096 0.656657
vt 0.544408 0.183840
vt 0.544408 0.632347
vt 0.501280 0.617256
vt 0.387860 0.544125
vt 0.523891 0.544125
vt 0.659922 0.272062
vt 0.727938 0.544125
vt 0.659922 0.544125
vt 0.000000 0.544125
vt 0.727938 0.068016
vt 0.727938 0.748172
vt 0.727938 0.136031
vt 0.727938 0.680156
vt 0.523891 0.272062
vt 0.591906 0.544125
vt 0.591906 0.272062
vt 0.693930 0.578133
vt 0.693930 0.238055
vt 0.227938 0.272063
vt 0.599251 0.143376
vt 0.205092 0.272063
vt 0.583096 0.159530
vt 0.159400 0.272063
vt 0.113708 0.272063
vt 0.068016 0.272063
vt 0.227938 0.544125
vt 0.615405 0.688966
vt 0.296476 0.272063
vt 0.501280 0.198931
vt 0.342168 0.544125
vt 0.296476 0.544125
vt 0.250784 0.544125
vt 0.159400 0.544125
vt 0.113708 0.544125
vt 0.068016 0.544125
vt 0.455875 0.612141
vt 0.455875 0.204047
vt 0.795953 0.544125
vt 0.863969 0.544125
vt 0.931984 0.544125
vt 0.727938 0.816187
vt 0.795953 0.272062
vt 0.863969 0.272062
vt 0.931984 0.272062
vt 0.727937 0.000000
vt 1.000000 0.272062
vt 1.000000 0.544125
vn 0.000000 1.000000 0.000000
vn 0.000000 1.000000 0.000000
vn 0.000000 1.000000 0.000000
vn 1.000000 0.000000 0.000000
vn 1.000000 0.000000 0.000000
vn 1.000000 0.000000 0.000000
vn 0.000000 -0.000000 1.000000
vn 0.000000 -0.000000 1.000000
vn 0.000000 -0.000000 1.000000
vn 0.000000 -1.000000 0.000000
vn 0.000000 -1.000000 0.000000
vn 0.000000 -1.000000 0.000000
vn 0.111965 -0.993712 0.000000
vn 0.222521 -0.974928 0.000000
vn 0.222521 -0.974928 0.000000
vn 0.222521 -0.974928 0.000000
vn 0.433884 -0.900969 0.000000
vn 0.433884 -0.900969 0.000000
vn 0.433884 -0.900969 0.000000
vn 0.623490 -0.781831 0.000000
vn 0.623490 -0.781832 0.000000
vn 0.707107 -0.707107 0.000000
vn 0.781831 -0.623490 0.000000
vn 0.781831 -0.623490 0.000000
vn 0.781831 -0.623490 0.000000
vn 0.900969 -0.433884 0.000000
vn 0.900969 -0.433884 0.000000
vn 0.900969 -0.433884 0.000000
vn 0.974928 -0.222521 0.000000
vn 0.974928 -0.222521 0.000000
vn 0.974928 -0.222521 0.000000
vn 0.993712 -0.111965 0.000000
vn 0.993712 -0.111965 0.000000
vn 0.000000 0.000000 -1.000000
vn 0.000000 0.000000 -1.000000
vn 0.000000 0.000000 -1.000000
vn -1.000000 0.000000 0.000000
vn -1.000000 0.000000 0.000000
vn -1.000000 0.000000 0.000000
vn 0.000000 1.000000 0.000000
vn 0.000000 1.000000 0.000000
vn 0.000000 1.000000 0.000000
vn 0.000000 1.000000 0.000000
vn 0.000000 1.000000 0.000000
vn 0.000000 1.000000 0.000000
vn 0.000000 1.000000 0.000000
vn 0.000000 1.000000 0.000000
vn 0.000000 1.000000 0.000000
vn -1.000000 0.000000 0.000000
vn -1.000000 0.000000 0.000000
vn -1.000000 0.000000 0.000000
vn -1.000000 0.000000 0.000000
vn -1.000000 0.000000 0.000000
vn -1.000000 0.000000 0.000000
vn -1.000000 0.000000 0.000000
vn -1.000000 0.000000 0.000000
vn -1.000000 0.000000 0.000000
vn 0.000000 0.000000 -1.000000
vn 0.000000 0.000000 -1.000000
vn 0.000000 0.000000 -1.000000
vn 0.000000 0.000000 -1.000000
vn 0.000000 0.000000 -1.000000
vn 0.000000 0.000000 -1.000000
vn 0.000000 0.000000 -1.000000
vn 0.000000 0.000000 -1.000000
vn 0.000000 0.000000 -1.000000
vn 0.000000 0.000000 1.000000
vn 0.000000 0.000000 1.000000
vn 0.000000 0.000000 1.000000
vn 0.000000 0.000000 -1.000000
vn 0.000000 0.000000 -1.000000
vn 0.000000 0.000000 -1.000000
vn 0.000000 0.000000 -1.000000
vn 0.000000 0.000000 -1.000000
vn 0.000000 0.000000 -1.000000
vn 0.000000 0.000000 -1.000000
vn 0.000000 0.000000 -1.000000
vn 0.000000 0.000000 -1.000000
vn 0.000000 0.000000 -1.000000
vn 0.000000 0.000000 -1.000000
vn 0.000000 0.000000 -1.000000
vn 0.000000 0.000000 1.000000
vn 0.000000 0.000000 1.000000
vn 0.000000 0.000000 1.000000
vn 0.000000 -0.000000 1.000000
vn 0.000000 -0.000000 1.000000
vn 0.000000 -0.000000 1.000000
vn 0.000000 -0.000000 1.000000
vn 0.000000 -0.000000 1.000000
vn 0.000000 -0.000000 1.000000
vn 0.000000 0.000000 1.000000
vn 0.000000 0.000000 1.000000
vn 0.000000 0.000000 1.000000
vn 0.000000 0.000000 1.000000
vn 0.000000 0.000000 1.000000
vn 0.000000 0.000000 1.000000
vn 0.000000 0.000000 1.000000
vn 0.000000 0.000000 1.000000
vn 0.000000 0.000000 1.000000
vn 0.000000 0.000000 1.000000
vn 0.000000 0.000000 1.000000
vn 0.000000 0.000000 1.000000
vn 0.000000 0.000000 -1.000000
vn 0.000000 0.000000 -1.000000
vn 0.000000 0.000000 -1.000000
vn 0.623490 -0.781832 0.000000
vn 0.707107 -0.707107 0.000000
vn 0.707107 -0.707107 0.000000
vn 0.000000 1.000000 0.000000
vn 0.000000 1.000000 0.000000
vn 0.000000 1.000000 0.000000
vn 1.000000 0.000000 0.000000
vn 1.000000 0.000000 0.000000
vn 1.000000 0.000000 0.000000
vn 0.000000 0.000000 1.000000
vn 0.000000 0.000000 1.000000
vn 0.000000 0.000000 1.000000
vn 0.000000 -1.000000 0.000000
vn 0.000000 -1.000000 0.000000
vn 0.000000 -1.000000 0.000000
vn 0.111965 -0.993712 0.000000
vn 0.111965 -0.993712 0.000000
vn 0.222521 -0.974928 0.000000
vn 0.222521 -0.974928 0.000000
vn 0.222521 -0.974928 0.000000
vn 0.433884 -0.900969 0.000000
vn 0.433884 -0.900969 0.000000
vn 0.433884 -0.900969 0.000000
vn 0.623490 -0.781831 0.000000
vn 0.707107 -0.707107 0.000000
vn 0.707107 -0.707107 0.000000
vn 0.781831 -0.623490 0.000000
vn 0.781831 -0.623490 0.000000
vn 0.781831 -0.623490 0.000000
vn 0.900969 -0.433884 0.000000
vn 0.900969 -0.433884 0.000000
vn 0.900969 -0.433884 0.000000
vn 0.974928 -0.222521 0.000000
vn 0.974928 -0.222521 0.000000
vn 0.974928 -0.222521 0.000000
vn 0.993712 -0.111965 0.000000
vn 0.000000 0.000000 -1.000000
vn 0.000000 0.000000 -1.000000
vn 0.000000 0.000000 -1.000000
vn -1.000000 0.000000 0.000000
vn -1.000000 0.000000 0.000000
vn -1.000000 0.000000 0.000000
vn 0.000000 1.000000 0.000000
vn 0.000000 1.000000 0.000000
vn 0.000000 1.000000 0.000000
vn 0.000000 1.000000 0.000000
vn 0.000000 1.000000 0.000000
vn 0.000000 1.000000 0.000000
vn 0.000000 1.000000 0.000000
vn 0.000000 1.000000 0.000000
vn 0.000000 1.000000 0.000000
vn -1.000000 0.000000 0.000000
vn -1.000000 0.000000 0.000000
vn -1.000000 0.000000 0.000000
vn -1.000000 0.000000 0.000000
vn -1.000000 0.000000 0.000000
vn -1.000000 0.000000 0.000000
vn -1.000000 0.000000 0.000000
vn -1.000000 0.000000 0.000000
vn -1.000000 0.000000 0.000000
vn 0.000000 0.000000 -1.000000
vn 0.000000 0.000000 -1.000000
vn 0.000000 0.000000 -1.000000
vn 0.000000 0.000000 -1.000000
vn 0.000000 0.000000 -1.000000
vn 0.000000 0.000000 -1.000000
vn 0.000000 0.000000 -1.000000
vn 0.000000 0.000000 -1.000000
vn 0.000000 0.000000 -1.000000
vn 0.000000 0.000000 1.000000
vn 0.000000 0.000000 1.000000
vn 0.000000 0.000000 1.000000
vn 0.000000 0.000000 -1.000000
vn 0.000000 0.000000 -1.000000
vn 0.000000 0.000000 -1.000000
vn 0.000000 0.000000 -1.000000
vn 0.000000 0.000000 -1.000000
vn 0.000000 0.000000 -1.000000
vn 0.000000 0.000000 -1.000000
vn 0.000000 0.000000 -1.000000
vn 0.000000 0.000000 -1.000000
vn 0.000000 0.000000 -1.000000
vn 0.000000 0.000000 -1.000000
vn 0.000000 0.000000 -1.000000
vn 0.000000 0.000000 1.000000
vn 0.000000 0.000000 1.000000
vn 0.000000 0.000000 1.000000
vn 0.000000 0.000000 1.000000
vn 0.000000 0.000000 1.000000
vn 0.000000 0.000000 1.000000
vn 0.000000 0.000000 1.000000
vn 0.000000 0.000000 1.000000
vn 0.000000 0.000000 1.000000
vn 0.000000 0.000000 1.000000
vn 0.000000 0.000000 1.000000
vn 0.000000 0.000000 1.000000
vn 0.000000 -0.000000 1.000000
vn 0.000000 -0.000000 1.000000
vn 0.000000 -0.000000 1.000000
vn 0.000000 0.000000 1.000000
vn 0.000000 0.000000 1.000000
vn 0.000000 0.000000 1.000000
vn 0.000000 -0.000000 1.000000
vn 0.000000 -0.000000 1.000000
vn 0.000000 -0.000000 1.000000
vn 0.000000 0.000000 -1.000000
vn 0.000000 0.000000 -1.000000
vn 0.000000 0.000000 -1.000000
vn 0.623490 -0.781832 0.000000
vn 0.623490 -0.781831 0.000000
vn 0.707107 -0.707107 0.000000
s off
g GMFBXASC045Arch
usemtl GMFBXASC045ArchSG
f 26/57/1 2/2/2 25/61/3
f 9/54/4 5/5/5 7/44/6
f 17/48/7 1/8/8 16/56/9
f 3/10/10 16/9/11 1/8/12
f 9/54/13 22/43/14 10/53/15
f 10/53/16 21/42/17 11/52/18
f 11/52/19 20/40/20 12/16/21
f 35/45/22 19/18/23 13/51/24
f 13/51/25 18/47/26 14/50/27
f 14/50/28 17/7/29 15/49/30
f 15/49/31 16/9/32 8/23/33
f 34/24/34 8/55/35 3/10/36
f 31/25/37 4/26/38 32/27/39
f 6/66/40 23/63/41 5/65/42
f 28/59/43 24/62/44 23/63/45
f 27/58/46 25/61/47 24/62/48
f 1/8/49 34/24/50 3/10/51
f 29/33/52 33/34/53 34/24/54
f 30/35/55 32/27/56 33/34/57
f 6/60/58 10/12/59 28/30/60
f 28/30/61 11/14/62 27/32/63
f 27/32/64 12/46/65 26/1/66
f 18/20/67 29/33/68 17/48/69
f 13/19/70 33/34/71 32/27/72
f 33/34/73 15/22/74 34/24/75
f 4/26/76 37/36/77 32/27/78
f 37/36/79 13/19/80 32/27/81
f 23/29/82 7/6/83 5/64/84
f 24/31/85 22/11/86 23/29/87
f 25/3/88 21/13/89 24/31/90
f 31/25/91 18/20/92 19/41/93
f 38/37/94 20/15/95 25/3/96
f 2/2/97 38/37/98 25/3/99
f 31/25/100 36/39/101 38/37/102
f 26/1/103 35/17/104 37/36/105
f 12/16/106 36/38/107 35/45/108
f 26/57/109 4/26/110 2/2/111
f 9/54/112 6/28/113 5/5/114
f 17/48/115 29/33/116 1/8/117
f 3/10/118 8/23/119 16/9/120
f 9/54/121 7/44/122 22/43/123
f 10/53/124 22/43/125 21/42/126
f 11/52/127 21/42/128 20/40/129
f 35/45/130 36/38/131 19/18/132
f 13/51/133 19/18/134 18/47/135
f 14/50/136 18/47/137 17/7/138
f 15/49/139 17/7/140 16/9/141
f 34/24/142 15/22/143 8/55/144
f 31/25/145 2/2/146 4/26/147
f 6/66/148 28/59/149 23/63/150
f 28/59/151 27/58/152 24/62/153
f 27/58/154 26/57/155 25/61/156
f 1/8/157 29/33/158 34/24/159
f 29/33/160 30/35/161 33/34/162
f 30/35/163 31/25/164 32/27/165
f 6/60/166 9/4/167 10/12/168
f 28/30/169 10/12/170 11/14/171
f 27/32/172 11/14/173 12/46/174
f 18/20/175 30/35/176 29/33/177
f 13/19/178 14/21/179 33/34/180
f 33/34/181 14/21/182 15/22/183
f 4/26/184 26/1/185 37/36/186
f 37/36/187 35/17/188 13/19/189
f 23/29/190 22/11/191 7/6/192
f 24/31/193 21/13/194 22/11/195
f 25/3/196 20/15/197 21/13/198
f 31/25/199 30/35/200 18/20/201
f 38/37/202 36/39/203 20/15/204
f 2/2/205 31/25/206 38/37/207
f 31/25/208 19/41/209 36/39/210
f 26/1/211 12/46/212 35/17/213
f 12/16/214 20/40/215 36/38/216
