# This file uses centimeters as units for non-parametric coordinates.

mtllib GM-Base.mtl
g default
v 0.000000 0.000002 -0.000006
v 25.000000 50.000008 -25.000004
v 0.000000 0.000002 -100.000000
v 25.000000 50.000008 -75.000000
v 100.000000 0.000002 -0.000006
v 75.000000 50.000008 -25.000004
v 100.000000 0.000002 -100.000000
v 75.000000 50.000008 -75.000000
vt 0.118034 0.000000
vt 0.213526 0.404508
vt 1.000000 0.500000
vt 0.404508 0.404509
vt 0.618034 0.500000
vt 0.404509 0.213526
vt 0.500000 0.000000
vt 0.213526 0.213525
vt 0.618034 0.118034
vt 1.000000 0.118034
vt 0.118034 0.618034
vt 0.500000 0.618034
vt 0.000000 0.500000
vt 0.000000 0.118034
vn -0.894427 0.447214 0.000000
vn -0.894427 0.447214 0.000000
vn -0.894427 0.447214 0.000000
vn 0.000000 0.447214 -0.894427
vn 0.000000 0.447214 -0.894427
vn 0.000000 0.447214 -0.894427
vn 0.894427 0.447214 0.000000
vn 0.894427 0.447214 0.000000
vn 0.894427 0.447214 0.000000
vn 0.000000 -1.000000 0.000000
vn 0.000000 -1.000000 0.000000
vn 0.000000 -1.000000 0.000000
vn 0.000000 1.000000 0.000000
vn 0.000000 1.000000 0.000000
vn 0.000000 1.000000 0.000000
vn 0.000000 0.447214 0.894427
vn 0.000000 0.447214 0.894427
vn 0.000000 0.447214 0.894427
vn -0.894427 0.447214 0.000000
vn -0.894427 0.447214 0.000000
vn -0.894427 0.447214 0.000000
vn 0.000000 0.447214 -0.894427
vn 0.000000 0.447214 -0.894427
vn 0.000000 0.447214 -0.894427
vn 0.894427 0.447214 0.000000
vn 0.894427 0.447214 0.000000
vn 0.894427 0.447214 0.000000
vn 0.000000 -1.000000 0.000000
vn 0.000000 -1.000000 0.000000
vn 0.000000 -1.000000 0.000000
vn 0.000000 1.000000 0.000000
vn 0.000000 1.000000 0.000000
vn 0.000000 1.000000 0.000000
vn 0.000000 0.447214 0.894427
vn 0.000000 0.447214 0.894427
vn 0.000000 0.447214 0.894427
s off
g GMFBXASC045Base
usemtl GMFBXASC045BaseSG
f 1/14/1 4/2/2 3/13/3
f 3/11/4 8/4/5 7/12/6
f 7/5/7 6/6/8 5/9/9
f 3/3/10 5/9/11 1/10/12
f 8/4/13 2/8/14 6/6/15
f 5/7/16 2/8/17 1/1/18
f 1/14/19 2/8/20 4/2/21
f 3/11/22 4/2/23 8/4/24
f 7/5/25 8/4/26 6/6/27
f 3/3/28 7/5/29 5/9/30
f 8/4/31 4/2/32 2/8/33
f 5/7/34 6/6/35 2/8/36
