# This file uses centimeters as units for non-parametric coordinates.

mtllib GM-Corner.mtl
g default
v 0.000000 0.000002 -0.000006
v 0.000000 50.000008 -50.000000
v 0.000000 0.000002 -100.000000
v 0.000000 50.000008 -100.000000
v 100.000000 0.000002 -0.000006
v 50.000000 50.000008 -50.000000
v 100.000000 0.000002 -100.000000
v 50.000000 50.000008 -100.000000
vt 0.184700 1.000000
vt 0.184699 0.445903
vt 0.184699 0.630602
vt 0.369398 0.445903
vt 0.630602 0.445903
vt 0.369398 0.261204
vt 0.554098 1.000000
vt 0.184699 0.261204
vt 0.000000 0.076505
vt 0.554097 -0.000000
vt 0.184699 0.000000
vt 0.630602 0.076505
vt 0.554097 0.630602
vt 0.000000 0.445903
vn -1.000000 0.000000 0.000000
vn -1.000000 0.000000 0.000000
vn -1.000000 0.000000 0.000000
vn 0.000000 0.000000 -1.000000
vn 0.000000 0.000000 -1.000000
vn 0.000000 0.000000 -1.000000
vn 0.707107 0.707107 0.000000
vn 0.707107 0.707107 0.000000
vn 0.707107 0.707107 0.000000
vn 0.000000 0.707107 0.707107
vn 0.000000 0.707107 0.707107
vn 0.000000 0.707107 0.707107
vn 0.000000 -1.000000 0.000000
vn 0.000000 -1.000000 0.000000
vn 0.000000 -1.000000 0.000000
vn 0.000000 1.000000 0.000000
vn 0.000000 1.000000 0.000000
vn 0.000000 1.000000 0.000000
vn -1.000000 0.000000 0.000000
vn -1.000000 0.000000 0.000000
vn -1.000000 0.000000 0.000000
vn 0.000000 0.000000 -1.000000
vn 0.000000 0.000000 -1.000000
vn 0.000000 0.000000 -1.000000
vn 0.707107 0.707107 0.000000
vn 0.707107 0.707107 0.000000
vn 0.707107 0.707107 0.000000
vn 0.000000 0.707107 0.707107
vn 0.000000 0.707107 0.707107
vn 0.000000 0.707107 0.707107
vn 0.000000 -1.000000 0.000000
vn 0.000000 -1.000000 0.000000
vn 0.000000 -1.000000 0.000000
vn 0.000000 1.000000 0.000000
vn 0.000000 1.000000 0.000000
vn 0.000000 1.000000 0.000000
s off
g GMFBXASC045Corner
usemtl GMFBXASC045CornerSG
f 1/9/1 4/2/2 3/14/3
f 3/3/4 8/4/5 7/13/6
f 7/5/7 6/6/8 5/12/9
f 5/10/10 2/8/11 1/11/12
f 3/3/13 5/7/14 1/1/15
f 8/4/16 2/8/17 6/6/18
f 1/9/19 2/8/20 4/2/21
f 3/3/22 4/2/23 8/4/24
f 7/5/25 8/4/26 6/6/27
f 5/10/28 6/6/29 2/8/30
f 3/3/31 7/13/32 5/7/33
f 8/4/34 4/2/35 2/8/36
