# This file uses centimeters as units for non-parametric coordinates.

mtllib GM-Curve.mtl
g default
v 100.000000 100.000000 -100.000000
v 0.000000 100.000000 -100.000000
v 0.000000 0.000000 -100.000000
v 0.000000 0.000000 0.000000
v 0.000000 100.000000 0.000000
v 25.881905 100.000000 -3.407419
v 50.000000 100.000000 -13.397461
v 70.710678 100.000000 -29.289324
v 86.602539 100.000000 -50.000000
v 96.592583 100.000000 -74.118095
v 100.000000 0.000000 -100.000000
v 96.592583 0.000000 -74.118095
v 86.602539 0.000000 -50.000000
v 70.710678 0.000000 -29.289324
v 50.000000 0.000000 -13.397461
v 25.881905 0.000000 -3.407419
vt 0.207828 0.551249
vt 0.280402 0.707202
vt 0.280402 0.280402
vt 0.560803 0.634002
vt 0.560803 0.560803
vt 0.560803 0.280401
vt 0.280402 1.000000
vt 0.280402 0.560803
vt 0.560803 0.000000
vt 0.280402 0.926800
vt 0.831650 0.352975
vt 0.280402 0.853601
vt 0.803638 0.420602
vt 0.082128 0.478675
vt 0.759077 0.478675
vt 0.701004 0.523236
vt 0.009554 0.352975
vt 0.140201 0.523237
vt 0.280402 0.780401
vt 0.280402 0.634003
vt 0.037567 0.420602
vt 0.633376 0.551249
vt 0.560803 0.707202
vt 0.560803 0.780401
vt 0.560803 0.853601
vt 0.560803 0.926800
vt 0.000000 0.280402
vt 0.560803 1.000000
vt 0.841205 0.280401
vt 0.280401 0.000000
vn 0.000000 -1.000000 0.000000
vn 0.000000 -1.000000 0.000000
vn 0.000000 -1.000000 0.000000
vn 0.000000 1.000000 0.000000
vn 0.000000 1.000000 0.000000
vn 0.000000 1.000000 0.000000
vn -1.000000 0.000000 0.000000
vn -1.000000 0.000000 0.000000
vn -1.000000 0.000000 0.000000
vn 0.000000 0.000000 -1.000000
vn 0.000000 0.000000 -1.000000
vn 0.000000 0.000000 -1.000000
vn 0.130526 0.000000 0.991445
vn 0.258819 0.000000 0.965926
vn 0.258819 0.000000 0.965926
vn 0.258819 0.000000 0.965926
vn 0.500000 0.000000 0.866025
vn 0.500000 0.000000 0.866025
vn 0.500000 0.000000 0.866025
vn 0.707107 0.000000 0.707107
vn 0.707107 0.000000 0.707107
vn 0.707107 0.000000 0.707107
vn 0.866025 0.000000 0.500000
vn 0.866025 0.000000 0.500000
vn 0.866025 0.000000 0.500000
vn 0.965926 0.000000 0.258819
vn 0.965926 0.000000 0.258819
vn 0.965926 0.000000 0.258819
vn 0.991445 0.000000 0.130526
vn 0.991445 0.000000 0.130526
vn 0.000000 1.000000 0.000000
vn 0.000000 1.000000 0.000000
vn 0.000000 1.000000 0.000000
vn 0.000000 1.000000 0.000000
vn 0.000000 1.000000 0.000000
vn 0.000000 1.000000 0.000000
vn 0.000000 -1.000000 0.000000
vn 0.000000 -1.000000 0.000000
vn 0.000000 -1.000000 0.000000
vn 0.000000 -1.000000 0.000000
vn 0.000000 -1.000000 0.000000
vn 0.000000 -1.000000 0.000000
vn 0.000000 1.000000 0.000000
vn 0.000000 1.000000 0.000000
vn 0.000000 1.000000 0.000000
vn 0.000000 1.000000 0.000000
vn 0.000000 1.000000 0.000000
vn 0.000000 1.000000 0.000000
vn 0.000000 1.000000 0.000000
vn 0.000000 1.000000 0.000000
vn 0.000000 1.000000 0.000000
vn 0.000000 -1.000000 0.000000
vn 0.000000 -1.000000 0.000000
vn 0.000000 -1.000000 0.000000
vn 0.000000 -1.000000 0.000000
vn 0.000000 -1.000000 0.000000
vn 0.000000 -1.000000 0.000000
vn 0.000000 -1.000000 0.000000
vn 0.000000 -1.000000 0.000000
vn 0.000000 -1.000000 0.000000
vn -1.000000 0.000000 0.000000
vn -1.000000 0.000000 0.000000
vn -1.000000 0.000000 0.000000
vn 0.000000 0.000000 -1.000000
vn 0.000000 0.000000 -1.000000
vn 0.000000 0.000000 -1.000000
vn 0.130526 0.000000 0.991445
vn 0.130526 0.000000 0.991445
vn 0.258819 0.000000 0.965926
vn 0.258819 0.000000 0.965926
vn 0.258819 0.000000 0.965926
vn 0.500000 0.000000 0.866025
vn 0.500000 0.000000 0.866025
vn 0.500000 0.000000 0.866025
vn 0.707107 0.000000 0.707107
vn 0.707107 0.000000 0.707107
vn 0.707107 0.000000 0.707107
vn 0.866025 0.000000 0.500000
vn 0.866025 0.000000 0.500000
vn 0.866025 0.000000 0.500000
vn 0.965926 0.000000 0.258819
vn 0.965926 0.000000 0.258819
vn 0.965926 0.000000 0.258819
vn 0.991445 0.000000 0.130526
s off
g GMFBXASC045Curve
usemtl GMFBXASC045CurveSG
f 12/1/1 13/18/2 3/3/3
f 10/22/4 1/5/5 2/6/6
f 4/30/7 2/6/8 3/3/9
f 3/3/10 1/5/11 11/8/12
f 5/28/13 16/10/14 6/26/15
f 6/26/16 15/12/17 7/25/18
f 7/25/19 14/19/20 8/24/21
f 8/24/22 13/2/23 9/23/24
f 9/23/25 12/20/26 10/4/27
f 10/4/28 11/8/29 1/5/30
f 8/15/31 9/16/32 2/6/33
f 6/11/34 7/13/35 2/6/36
f 14/14/37 15/21/38 3/3/39
f 3/3/40 15/21/41 16/17/42
f 5/29/43 6/11/44 2/6/45
f 7/13/46 8/15/47 2/6/48
f 9/16/49 10/22/50 2/6/51
f 11/8/52 12/1/53 3/3/54
f 13/18/55 14/14/56 3/3/57
f 4/27/58 3/3/59 16/17/60
f 4/30/61 5/9/62 2/6/63
f 3/3/64 2/6/65 1/5/66
f 5/28/67 4/7/68 16/10/69
f 6/26/70 16/10/71 15/12/72
f 7/25/73 15/12/74 14/19/75
f 8/24/76 14/19/77 13/2/78
f 9/23/79 13/2/80 12/20/81
f 10/4/82 12/20/83 11/8/84
