# This file uses centimeters as units for non-parametric coordinates.

mtllib GM-Edge.mtl
g default
v 0.000006 49.999992 -50.000000
v 100.000000 49.999992 -50.000000
v 0.000000 0.000000 0.000000
v 99.999985 -0.000004 0.000000
v 100.000000 49.999992 -100.000000
v 99.999985 -0.000004 -100.000000
v 0.000006 49.999992 -100.000000
v 0.000000 0.000000 -100.000000
vt 0.666667 0.333333
vt 0.333333 0.333333
vt 0.902369 0.333333
vt 0.333334 0.666667
vt 0.333334 1.000000
vt 0.666667 0.666666
vt 0.500000 0.333333
vt 0.500000 0.666667
vt 0.500000 0.833333
vt 0.500000 0.166667
vt 0.000000 0.666667
vt 0.902369 0.666666
vt 0.000000 0.333334
vt 0.333333 0.000000
vn -1.000000 0.000000 0.000000
vn -1.000000 0.000000 0.000000
vn -1.000000 0.000000 0.000000
vn -0.000000 -1.000000 0.000000
vn -0.000000 -1.000000 0.000000
vn -0.000000 -1.000000 0.000000
vn 0.000000 0.707107 0.707107
vn 0.000000 0.707107 0.707107
vn 0.000000 0.707107 0.707107
vn 0.000000 0.000000 -1.000000
vn 0.000000 0.000000 -1.000000
vn 0.000000 0.000000 -1.000000
vn 0.000000 1.000000 0.000000
vn 0.000000 1.000000 0.000000
vn 0.000000 1.000000 0.000000
vn 1.000000 -0.000000 0.000000
vn 1.000000 -0.000000 0.000000
vn 1.000000 -0.000000 0.000000
vn -1.000000 0.000000 0.000000
vn -1.000000 0.000000 0.000000
vn -1.000000 0.000000 0.000000
vn -0.000000 -1.000000 0.000000
vn -0.000000 -1.000000 0.000000
vn -0.000000 -1.000000 0.000000
vn 0.000000 0.707107 0.707107
vn 0.000000 0.707107 0.707107
vn 0.000000 0.707107 0.707107
vn 0.000000 0.000000 -1.000000
vn 0.000000 0.000000 -1.000000
vn 0.000000 0.000000 -1.000000
vn 0.000000 1.000000 0.000000
vn 0.000000 1.000000 0.000000
vn 0.000000 1.000000 0.000000
vn 1.000000 -0.000000 0.000000
vn 1.000000 -0.000000 0.000000
vn 1.000000 -0.000000 0.000000
s off
g GMFBXASC045Edge
usemtl GMFBXASC045EdgeSG
f 1/10/1 8/2/2 3/14/3
f 3/13/4 6/4/5 4/11/6
f 2/6/7 3/3/8 4/12/9
f 6/4/10 7/7/11 5/8/12
f 1/1/13 5/8/14 7/7/15
f 4/5/16 5/8/17 2/9/18
f 1/10/19 7/7/20 8/2/21
f 3/13/22 8/2/23 6/4/24
f 2/6/25 1/1/26 3/3/27
f 6/4/28 8/2/29 7/7/30
f 1/1/31 2/6/32 5/8/33
f 4/5/34 6/4/35 5/8/36
