# This file uses centimeters as units for non-parametric coordinates.

mtllib GM-Hex.mtl
g default
v 0.000000 0.000000 -50.000000
v 0.000000 10.000000 -50.000000
v 49.999996 0.000000 -25.000000
v 49.999996 10.000000 -25.000000
v 49.999996 0.000000 25.000000
v 49.999996 10.000000 25.000000
v 0.000000 0.000000 50.000000
v 0.000000 10.000000 50.000000
v -49.999996 0.000000 25.000000
v -49.999996 10.000000 25.000000
v -49.999996 0.000000 -25.000000
v -49.999996 10.000000 -25.000000
vt 0.154509 0.577254
vt 0.339919 0.845492
vt 0.309017 0.845492
vt 0.339919 1.000000
vt -0.000000 0.345492
vt 0.494427 0.268237
vt 0.154508 0.268237
vt 0.339919 0.345492
vt 0.309017 0.345492
vt 0.339919 0.500000
vt 0.309017 0.500000
vt 0.494427 0.577254
vt 0.339919 0.172746
vt 0.339919 0.672746
vt 0.648936 0.500000
vt 0.309017 0.672746
vt 0.648936 0.345491
vt 0.309017 0.172746
vt 0.309017 0.000000
vt 0.000000 0.500000
vt 0.339918 0.000000
vt 0.309017 1.000000
vn 0.447214 0.000000 -0.894427
vn 0.447214 0.000000 -0.894427
vn 0.447214 0.000000 -0.894427
vn 1.000000 0.000000 0.000000
vn 1.000000 0.000000 0.000000
vn 1.000000 0.000000 0.000000
vn 0.447214 0.000000 0.894427
vn 0.447214 0.000000 0.894427
vn 0.447214 0.000000 0.894427
vn -0.447214 0.000000 0.894427
vn -0.447214 0.000000 0.894427
vn -0.447214 0.000000 0.894427
vn 0.000000 1.000000 0.000000
vn 0.000000 1.000000 0.000000
vn 0.000000 1.000000 0.000000
vn -1.000000 0.000000 0.000000
vn -1.000000 0.000000 0.000000
vn -1.000000 0.000000 0.000000
vn -0.447214 0.000000 -0.894427
vn -0.447214 0.000000 -0.894427
vn -0.447214 0.000000 -0.894427
vn -0.000000 1.000000 0.000000
vn -0.000000 1.000000 0.000000
vn -0.000000 1.000000 0.000000
vn 0.000000 -1.000000 0.000000
vn 0.000000 -1.000000 0.000000
vn 0.000000 -1.000000 0.000000
vn 0.000000 -1.000000 0.000000
vn 0.000000 -1.000000 0.000000
vn 0.000000 -1.000000 0.000000
vn 0.447214 0.000000 -0.894427
vn 0.447214 0.000000 -0.894427
vn 0.447214 0.000000 -0.894427
vn 1.000000 0.000000 0.000000
vn 1.000000 0.000000 0.000000
vn 1.000000 0.000000 0.000000
vn 0.447214 0.000000 0.894427
vn 0.447214 0.000000 0.894427
vn 0.447214 0.000000 0.894427
vn -0.447214 0.000000 0.894427
vn -0.447214 0.000000 0.894427
vn -0.447214 0.000000 0.894427
vn 0.000000 1.000000 0.000000
vn 0.000000 1.000000 0.000000
vn 0.000000 1.000000 0.000000
vn -1.000000 0.000000 0.000000
vn -1.000000 0.000000 0.000000
vn -1.000000 0.000000 0.000000
vn -0.447214 0.000000 -0.894427
vn -0.447214 0.000000 -0.894427
vn -0.447214 0.000000 -0.894427
vn 0.000000 1.000000 0.000000
vn 0.000000 1.000000 0.000000
vn 0.000000 1.000000 0.000000
vn 0.000000 -1.000000 0.000000
vn 0.000000 -1.000000 0.000000
vn 0.000000 -1.000000 0.000000
vn 0.000000 -1.000000 0.000000
vn 0.000000 -1.000000 0.000000
vn 0.000000 -1.000000 0.000000
s off
g GMFBXASC045Hex
usemtl GMFBXASC045HexSG
f 1/16/1 4/2/2 3/3/3
f 3/3/4 6/4/5 5/22/6
f 5/19/7 8/13/8 7/18/9
f 7/18/10 10/8/11 9/9/12
f 4/15/13 8/6/14 6/17/15
f 9/9/16 12/10/17 11/11/18
f 11/11/19 2/14/20 1/16/21
f 10/8/22 2/12/23 12/10/24
f 1/1/25 5/5/26 7/7/27
f 7/7/28 11/11/29 1/1/30
f 1/16/31 2/14/32 4/2/33
f 3/3/34 4/2/35 6/4/36
f 5/19/37 6/21/38 8/13/39
f 7/18/40 8/13/41 10/8/42
f 4/15/43 2/12/44 8/6/45
f 9/9/46 10/8/47 12/10/48
f 11/11/49 12/10/50 2/14/51
f 10/8/52 8/6/53 2/12/54
f 1/1/55 3/20/56 5/5/57
f 7/7/58 9/9/59 11/11/60
