# This file uses centimeters as units for non-parametric coordinates.

mtllib GM-Link.mtl
g default
v 39.005386 0.000000 -0.000000
v 36.219288 4.825665 -0.000000
v 30.647087 4.825665 -0.000000
v 27.860985 0.000000 -0.000000
v 30.647087 -4.825665 -0.000000
v 36.219288 -4.825665 -0.000000
v 25.074884 0.000000 -24.128334
v 23.681835 4.825665 -21.715502
v 20.895737 4.825665 -16.889835
v 19.502686 0.000000 -14.477001
v 20.895737 -4.825666 -16.889835
v 23.681835 -4.825666 -21.715502
v -25.074907 0.000000 -24.128338
v -23.681858 4.825665 -21.715502
v -20.895758 4.825665 -16.889835
v -19.502708 0.000000 -14.477001
v -20.895758 -4.825666 -16.889835
v -23.681858 -4.825666 -21.715502
v -39.005409 0.000000 -0.000003
v -36.219307 4.825665 -0.000002
v -30.647108 4.825665 -0.000002
v -27.861008 0.000000 -0.000002
v -30.647108 -4.825665 -0.000002
v -36.219307 -4.825665 -0.000002
v -25.074907 0.000000 24.128338
v -23.681858 4.825666 21.715502
v -20.895758 4.825666 16.889835
v -19.502708 0.000000 14.477001
v -20.895758 -4.825665 16.889835
v -23.681858 -4.825665 21.715502
v 25.074884 0.000000 24.128334
v 23.681835 4.825666 21.715502
v 20.895737 4.825666 16.889835
v 19.502686 0.000000 14.477001
v 20.895737 -4.825665 16.889835
v 23.681835 -4.825665 21.715502
vt 0.000000 0.497416
vt 0.107541 0.358043
vt 0.032244 0.488460
vt 0.124274 0.387024
vt 0.584978 0.637717
vt 0.566775 0.525701
vt 0.870473 0.901883
vt 0.124274 0.264256
vt 0.065710 0.162821
vt 0.107541 0.293238
vt 0.032245 0.162821
vt 0.099175 0.325640
vt 0.400361 0.325641
vt 0.467291 0.488460
vt 0.391995 0.358043
vt 0.609914 0.182437
vt 0.547689 0.281670
vt 0.892892 0.492549
vt 0.936619 0.582921
vt 0.433826 0.162821
vt 0.375262 0.264257
vt 0.467291 0.162821
vt 0.391995 0.293238
vt 0.499536 0.171777
vt 0.391994 0.618878
vt 0.712401 0.125733
vt 0.548371 0.950486
vt 0.822735 0.403347
vt 0.391995 0.032403
vt 0.415873 0.008957
vt 0.107541 0.032403
vt 0.107541 0.618878
vt 0.680659 0.705275
vt 0.782627 0.950486
vt 0.124274 0.061385
vt 0.099175 0.651280
vt 0.083663 0.008957
vt 0.415873 0.642325
vt 0.000000 0.171776
vt 0.499535 0.479505
vt 0.579586 0.291796
vt 0.923808 0.816826
vt 0.610502 0.616073
vt 0.692514 0.673980
vt 0.720767 0.158136
vt 0.632921 0.206739
vt 0.375262 0.387025
vt 0.533963 0.532283
vt 0.065710 0.488460
vt 0.124273 0.589896
vt 0.375262 0.589896
vt 0.433826 0.488460
vt 0.499535 0.497416
vt 0.083663 0.642324
vt 0.400361 0.651280
vt 0.083663 0.334596
vt 0.415873 0.334596
vt 0.000000 0.479504
vt 0.400361 0.000001
vt 0.099175 0.000001
vt 0.499536 0.153865
vt 0.415873 0.316685
vt 0.083663 0.316685
vt 0.000000 0.153865
vt 0.969430 0.576339
vt 0.955704 0.826952
vt 0.893480 0.926185
vt 0.790993 0.982889
vt 0.375262 0.061385
vt 0.918416 0.470905
vt 0.955023 0.158136
vt 0.963389 0.125733
vt 0.540005 0.982889
vt 0.810880 0.434642
vn 0.774597 0.447214 -0.447214
vn 0.774597 0.447214 -0.447214
vn 0.774597 0.447214 -0.447214
vn 0.000000 1.000000 0.000000
vn 0.000000 1.000000 0.000000
vn 0.000000 1.000000 0.000000
vn -0.774597 0.447214 0.447213
vn -0.774597 0.447214 0.447213
vn -0.774597 0.447214 0.447213
vn -0.774596 -0.447214 0.447214
vn -0.774596 -0.447214 0.447214
vn -0.774596 -0.447214 0.447214
vn 0.000000 -1.000000 0.000000
vn 0.000000 -1.000000 0.000000
vn 0.000000 -1.000000 0.000000
vn 0.774597 -0.447214 -0.447214
vn 0.774597 -0.447214 -0.447214
vn 0.774597 -0.447214 -0.447214
vn 0.000000 -0.447214 -0.894427
vn 0.000000 -0.447214 -0.894427
vn 0.000000 -0.447214 -0.894427
vn -0.774597 0.447214 -0.447214
vn -0.774597 0.447214 -0.447214
vn -0.774597 0.447214 -0.447214
vn 0.000000 1.000000 0.000000
vn 0.000000 1.000000 0.000000
vn 0.000000 1.000000 0.000000
vn 0.774597 0.447214 0.447214
vn 0.774597 0.447214 0.447214
vn 0.774597 0.447214 0.447214
vn 0.774597 -0.447214 0.447213
vn 0.774597 -0.447214 0.447213
vn 0.774597 -0.447214 0.447213
vn 0.000000 -1.000000 0.000000
vn 0.000000 -1.000000 0.000000
vn 0.000000 -1.000000 0.000000
vn -0.774597 -0.447214 -0.447214
vn -0.774597 -0.447214 -0.447214
vn -0.774597 -0.447214 -0.447214
vn -0.774597 0.447214 0.447213
vn -0.774597 0.447214 0.447213
vn -0.774597 0.447214 0.447213
vn 0.000000 1.000000 -0.000000
vn 0.000000 1.000000 -0.000000
vn 0.000000 1.000000 -0.000000
vn 0.774597 0.447214 -0.447214
vn 0.774597 0.447214 -0.447214
vn 0.774597 0.447214 -0.447214
vn 0.774597 -0.447214 -0.447213
vn 0.774597 -0.447214 -0.447213
vn 0.774597 -0.447214 -0.447213
vn 0.000000 -1.000000 0.000000
vn 0.000000 -1.000000 0.000000
vn 0.000000 -1.000000 0.000000
vn -0.774597 -0.447214 0.447213
vn -0.774597 -0.447214 0.447213
vn -0.774597 -0.447214 0.447213
vn -0.000000 -1.000000 0.000000
vn -0.000000 -1.000000 0.000000
vn -0.000000 -1.000000 0.000000
vn 0.000000 0.447214 0.894427
vn 0.000000 0.447214 0.894427
vn 0.000000 0.447214 0.894427
vn 0.000000 1.000000 0.000000
vn 0.000000 1.000000 0.000000
vn 0.000000 1.000000 0.000000
vn 0.000000 0.447214 -0.894427
vn 0.000000 0.447214 -0.894427
vn 0.000000 0.447214 -0.894427
vn -0.000000 -0.447214 -0.894427
vn -0.000000 -0.447214 -0.894427
vn -0.000000 -0.447214 -0.894427
vn 0.774597 0.447213 0.447214
vn 0.774597 0.447213 0.447214
vn 0.774597 0.447213 0.447214
vn 0.000000 1.000000 -0.000000
vn 0.000000 1.000000 -0.000000
vn 0.000000 1.000000 -0.000000
vn -0.774597 0.447214 -0.447213
vn -0.774597 0.447214 -0.447213
vn -0.774597 0.447214 -0.447213
vn -0.774597 -0.447214 -0.447214
vn -0.774597 -0.447214 -0.447214
vn -0.774597 -0.447214 -0.447214
vn -0.000000 -1.000000 0.000000
vn -0.000000 -1.000000 0.000000
vn -0.000000 -1.000000 0.000000
vn 0.774597 -0.447214 0.447214
vn 0.774597 -0.447214 0.447214
vn 0.774597 -0.447214 0.447214
vn 0.000000 -0.447214 0.894427
vn 0.000000 -0.447214 0.894427
vn 0.000000 -0.447214 0.894427
vn 0.000000 0.447214 -0.894427
vn 0.000000 0.447214 -0.894427
vn 0.000000 0.447214 -0.894427
vn -0.000000 -0.447213 0.894427
vn -0.000000 -0.447213 0.894427
vn -0.000000 -0.447213 0.894427
vn 0.000000 0.447214 0.894427
vn 0.000000 0.447214 0.894427
vn 0.000000 0.447214 0.894427
vn 0.000000 1.000000 0.000000
vn 0.000000 1.000000 0.000000
vn 0.000000 1.000000 0.000000
vn -0.000000 -1.000000 0.000000
vn -0.000000 -1.000000 0.000000
vn -0.000000 -1.000000 0.000000
vn 0.774597 0.447214 -0.447214
vn 0.774597 0.447214 -0.447214
vn 0.774597 0.447214 -0.447214
vn -0.000000 1.000000 0.000000
vn -0.000000 1.000000 0.000000
vn -0.000000 1.000000 0.000000
vn -0.774597 0.447214 0.447214
vn -0.774597 0.447214 0.447214
vn -0.774597 0.447214 0.447214
vn -0.774597 -0.447214 0.447213
vn -0.774597 -0.447214 0.447213
vn -0.774597 -0.447214 0.447213
vn -0.000000 -1.000000 0.000000
vn -0.000000 -1.000000 0.000000
vn -0.000000 -1.000000 0.000000
vn 0.774597 -0.447213 -0.447214
vn 0.774597 -0.447213 -0.447214
vn 0.774597 -0.447213 -0.447214
vn 0.000000 -0.447214 -0.894427
vn 0.000000 -0.447214 -0.894427
vn 0.000000 -0.447214 -0.894427
vn -0.774597 0.447214 -0.447214
vn -0.774597 0.447214 -0.447214
vn -0.774597 0.447214 -0.447214
vn -0.000000 1.000000 0.000000
vn -0.000000 1.000000 0.000000
vn -0.000000 1.000000 0.000000
vn 0.774597 0.447214 0.447214
vn 0.774597 0.447214 0.447214
vn 0.774597 0.447214 0.447214
vn 0.774597 -0.447214 0.447214
vn 0.774597 -0.447214 0.447214
vn 0.774597 -0.447214 0.447214
vn -0.000000 -1.000000 0.000000
vn -0.000000 -1.000000 0.000000
vn -0.000000 -1.000000 0.000000
vn -0.774597 -0.447214 -0.447214
vn -0.774597 -0.447214 -0.447214
vn -0.774597 -0.447214 -0.447214
vn -0.774597 0.447214 0.447214
vn -0.774597 0.447214 0.447214
vn -0.774597 0.447214 0.447214
vn 0.000000 1.000000 -0.000000
vn 0.000000 1.000000 -0.000000
vn 0.000000 1.000000 -0.000000
vn 0.774597 0.447214 -0.447213
vn 0.774597 0.447214 -0.447213
vn 0.774597 0.447214 -0.447213
vn 0.774597 -0.447214 -0.447213
vn 0.774597 -0.447214 -0.447213
vn 0.774597 -0.447214 -0.447213
vn -0.000000 -1.000000 0.000000
vn -0.000000 -1.000000 0.000000
vn -0.000000 -1.000000 0.000000
vn -0.774597 -0.447214 0.447214
vn -0.774597 -0.447214 0.447214
vn -0.774597 -0.447214 0.447214
vn 0.000000 -1.000000 0.000000
vn 0.000000 -1.000000 0.000000
vn 0.000000 -1.000000 0.000000
vn 0.000000 0.447214 0.894427
vn 0.000000 0.447214 0.894427
vn 0.000000 0.447214 0.894427
vn 0.000000 1.000000 0.000000
vn 0.000000 1.000000 0.000000
vn 0.000000 1.000000 0.000000
vn -0.000000 0.447213 -0.894427
vn -0.000000 0.447213 -0.894427
vn -0.000000 0.447213 -0.894427
vn 0.000000 -0.447214 -0.894427
vn 0.000000 -0.447214 -0.894427
vn 0.000000 -0.447214 -0.894427
vn 0.774597 0.447214 0.447214
vn 0.774597 0.447214 0.447214
vn 0.774597 0.447214 0.447214
vn 0.000000 1.000000 -0.000000
vn 0.000000 1.000000 -0.000000
vn 0.000000 1.000000 -0.000000
vn -0.774596 0.447214 -0.447214
vn -0.774596 0.447214 -0.447214
vn -0.774596 0.447214 -0.447214
vn -0.774597 -0.447214 -0.447213
vn -0.774597 -0.447214 -0.447213
vn -0.774597 -0.447214 -0.447213
vn 0.000000 -1.000000 0.000000
vn 0.000000 -1.000000 0.000000
vn 0.000000 -1.000000 0.000000
vn 0.774597 -0.447214 0.447214
vn 0.774597 -0.447214 0.447214
vn 0.774597 -0.447214 0.447214
vn 0.000000 -0.447214 0.894427
vn 0.000000 -0.447214 0.894427
vn 0.000000 -0.447214 0.894427
vn 0.000000 0.447214 -0.894427
vn 0.000000 0.447214 -0.894427
vn 0.000000 0.447214 -0.894427
vn 0.000000 -0.447214 0.894427
vn 0.000000 -0.447214 0.894427
vn 0.000000 -0.447214 0.894427
vn -0.000000 0.447214 0.894427
vn -0.000000 0.447214 0.894427
vn -0.000000 0.447214 0.894427
vn 0.000000 1.000000 0.000000
vn 0.000000 1.000000 0.000000
vn 0.000000 1.000000 0.000000
vn 0.000000 -1.000000 0.000000
vn 0.000000 -1.000000 0.000000
vn 0.000000 -1.000000 0.000000
s off
g GMFBXASC045Link
usemtl GMFBXASC045LinkSG
f 1/58/1 8/2/2 2/3/3
f 2/3/4 9/4/5 3/49/6
f 3/5/7 10/6/8 4/43/9
f 4/7/10 11/66/11 5/67/12
f 5/9/13 12/10/14 6/11/15
f 6/11/16 7/63/17 1/39/18
f 12/10/19 13/13/20 7/12/21
f 13/57/22 20/14/23 14/15/24
f 14/15/25 21/52/26 15/47/27
f 15/17/28 22/46/29 16/41/30
f 16/19/31 23/70/32 17/65/33
f 17/21/34 24/22/35 18/23/36
f 18/23/37 19/24/38 13/62/39
f 19/53/40 26/25/41 20/14/42
f 20/14/43 27/51/44 21/52/45
f 21/16/46 28/45/47 22/46/48
f 22/18/49 29/28/50 23/70/51
f 23/20/52 30/29/53 24/22/54
f 24/22/55 25/30/56 19/61/57
f 29/69/58 36/31/59 30/29/60
f 25/55/61 32/32/62 26/25/63
f 26/25/64 33/50/65 27/51/66
f 27/26/67 34/71/68 28/45/69
f 28/27/70 35/68/71 29/73/72
f 31/54/73 2/3/74 32/32/75
f 32/32/76 3/49/77 33/50/78
f 33/33/79 4/43/80 34/44/81
f 34/34/82 5/67/83 35/68/84
f 35/35/85 6/11/86 36/31/87
f 36/31/88 1/64/89 31/37/90
f 30/29/91 31/60/92 25/59/93
f 7/12/94 14/15/95 8/2/96
f 10/42/97 17/65/98 11/66/99
f 9/48/100 16/41/101 10/6/102
f 8/2/103 15/47/104 9/4/105
f 11/8/106 18/23/107 12/10/108
f 1/58/109 7/56/110 8/2/111
f 2/3/112 8/2/113 9/4/114
f 3/5/115 9/48/116 10/6/117
f 4/7/118 10/42/119 11/66/120
f 5/9/121 11/8/122 12/10/123
f 6/11/124 12/10/125 7/63/126
f 12/10/127 18/23/128 13/13/129
f 13/57/130 19/40/131 20/14/132
f 14/15/133 20/14/134 21/52/135
f 15/17/136 21/16/137 22/46/138
f 16/19/139 22/18/140 23/70/141
f 17/21/142 23/20/143 24/22/144
f 18/23/145 24/22/146 19/24/147
f 19/53/148 25/38/149 26/25/150
f 20/14/151 26/25/152 27/51/153
f 21/16/154 27/26/155 28/45/156
f 22/18/157 28/74/158 29/28/159
f 23/20/160 29/69/161 30/29/162
f 24/22/163 30/29/164 25/30/165
f 29/69/166 35/35/167 36/31/168
f 25/55/169 31/36/170 32/32/171
f 26/25/172 32/32/173 33/50/174
f 27/26/175 33/72/176 34/71/177
f 28/27/178 34/34/179 35/68/180
f 31/54/181 1/1/182 2/3/183
f 32/32/184 2/3/185 3/49/186
f 33/33/187 3/5/188 4/43/189
f 34/34/190 4/7/191 5/67/192
f 35/35/193 5/9/194 6/11/195
f 36/31/196 6/11/197 1/64/198
f 30/29/199 36/31/200 31/60/201
f 7/12/202 13/13/203 14/15/204
f 10/42/205 16/19/206 17/65/207
f 9/48/208 15/17/209 16/41/210
f 8/2/211 14/15/212 15/47/213
f 11/8/214 17/21/215 18/23/216
