# This file uses centimeters as units for non-parametric coordinates.

mtllib GM-Plinth.mtl
g default
v 100.000000 0.000000 -100.000000
v 100.000000 0.000000 0.000000
v 0.000000 0.000000 -100.000000
v 0.000000 0.000000 0.000000
v 72.559883 83.136353 -72.559883
v 74.463303 65.390182 -74.463303
v 78.083580 47.792809 -78.083580
v 83.210312 31.366941 -83.210312
v 89.545555 17.067183 -89.545555
v 10.454446 17.067183 -10.454446
v 16.789688 31.366941 -16.789688
v 21.916418 47.792809 -21.916418
v 25.536697 65.390182 -25.536697
v 27.440119 83.136353 -27.440119
v 72.559883 83.136353 -27.440119
v 74.463303 65.390182 -25.536697
v 78.083580 47.792809 -21.916418
v 83.210312 31.366941 -16.789688
v 89.545555 17.067183 -10.454446
v 10.454446 17.067183 -89.545555
v 16.789688 31.366941 -83.210312
v 21.916418 47.792809 -78.083580
v 25.536697 65.390182 -74.463303
v 27.440119 83.136353 -72.559883
v 72.483932 100.000000 -72.483932
v 27.516068 100.000000 -72.483932
v 72.483932 100.000000 -27.516068
v 27.516068 100.000000 -27.516068
vt 0.719139 0.219139
vt 0.719139 0.500000
vt 0.500000 0.719139
vt 0.219139 0.719139
vt 0.219139 0.000000
vt 0.000000 0.500000
vt 0.000000 0.219139
vt 0.500000 0.000000
vt 0.470637 0.662925
vt 0.248501 0.662925
vt 0.248502 0.056213
vt 0.056213 0.470637
vt 0.662925 0.470638
vt 0.056213 0.248501
vt 0.662925 0.248501
vt 0.470638 0.056213
vt 0.296421 0.296421
vt 0.296421 0.422718
vt 0.452844 0.618998
vt 0.100141 0.452844
vt 0.266295 0.100141
vt 0.618998 0.266295
vt 0.100141 0.266294
vt 0.618998 0.452844
vt 0.266294 0.618998
vt 0.452844 0.100141
vt 0.438445 0.570669
vt 0.280693 0.570669
vt 0.280694 0.148470
vt 0.438445 0.148470
vt 0.570669 0.438445
vt 0.570669 0.280694
vt 0.148470 0.438445
vt 0.148470 0.280693
vt 0.428277 0.520210
vt 0.290861 0.520210
vt 0.520210 0.428277
vt 0.198929 0.428277
vt 0.520210 0.290862
vt 0.198929 0.290861
vt 0.290862 0.198929
vt 0.428277 0.198929
vt 0.422718 0.296421
vt 0.422718 0.422718
vt 0.422931 0.470082
vt 0.296207 0.470082
vt 0.470082 0.296208
vt 0.470082 0.422931
vt 0.296208 0.249057
vt 0.422931 0.249057
vt 0.249057 0.422931
vt 0.249057 0.296207
vt 1.000000 0.500000
vt 1.000000 0.219139
vn 0.000000 -1.000000 0.000000
vn 0.000000 -1.000000 0.000000
vn 0.000000 -1.000000 0.000000
vn 0.000000 -1.000000 0.000000
vn 0.852737 0.522341 0.000000
vn 0.852737 0.522341 0.000000
vn 0.852737 0.522341 0.000000
vn 0.852737 0.522341 0.000000
vn 0.000000 0.522341 0.852737
vn 0.000000 0.522341 0.852737
vn 0.000000 0.522341 0.852737
vn 0.000000 0.522341 0.852737
vn 0.999990 0.004504 0.000000
vn 0.999990 0.004504 0.000000
vn 0.999990 0.004504 0.000000
vn 0.999990 0.004504 0.000000
vn 0.994297 0.106646 0.000000
vn 0.994297 0.106646 0.000000
vn 0.994297 0.106646 0.000000
vn 0.994297 0.106646 0.000000
vn 0.979487 0.201508 0.000000
vn 0.979487 0.201508 0.000000
vn 0.979487 0.201508 0.000000
vn 0.979487 0.201508 0.000000
vn 0.954585 0.297939 0.000000
vn 0.954585 0.297939 0.000000
vn 0.954585 0.297939 0.000000
vn 0.954585 0.297939 0.000000
vn 0.914290 0.405059 0.000000
vn 0.914290 0.405059 0.000000
vn 0.914290 0.405059 0.000000
vn 0.914290 0.405059 0.000000
vn -0.999990 0.004504 0.000000
vn -0.999990 0.004504 0.000000
vn -0.999990 0.004504 0.000000
vn -0.999990 0.004504 0.000000
vn -0.994297 0.106646 0.000000
vn -0.994297 0.106646 0.000000
vn -0.994297 0.106646 0.000000
vn -0.994297 0.106646 0.000000
vn -0.979487 0.201508 0.000000
vn -0.979487 0.201508 0.000000
vn -0.979487 0.201508 0.000000
vn -0.979487 0.201508 0.000000
vn -0.954585 0.297939 0.000000
vn -0.954585 0.297939 0.000000
vn -0.954585 0.297939 0.000000
vn -0.954585 0.297939 0.000000
vn -0.914290 0.405059 0.000000
vn -0.914290 0.405059 0.000000
vn -0.914290 0.405059 0.000000
vn -0.914290 0.405059 0.000000
vn -0.852737 0.522341 0.000000
vn -0.852737 0.522341 0.000000
vn -0.852737 0.522341 0.000000
vn -0.852737 0.522341 0.000000
vn 0.000000 0.004504 0.999990
vn 0.000000 0.004504 0.999990
vn 0.000000 0.004504 0.999990
vn 0.000000 0.004504 0.999990
vn 0.000000 0.106646 0.994297
vn 0.000000 0.106646 0.994297
vn 0.000000 0.106646 0.994297
vn 0.000000 0.106646 0.994297
vn 0.000000 0.201508 0.979487
vn 0.000000 0.201508 0.979487
vn 0.000000 0.201508 0.979487
vn 0.000000 0.201508 0.979487
vn 0.000000 0.297939 0.954585
vn 0.000000 0.297939 0.954585
vn 0.000000 0.297939 0.954585
vn 0.000000 0.297939 0.954585
vn 0.000000 0.405059 0.914290
vn 0.000000 0.405059 0.914290
vn 0.000000 0.405059 0.914290
vn 0.000000 0.405059 0.914290
vn 0.000000 0.106646 -0.994297
vn 0.000000 0.106646 -0.994297
vn 0.000000 0.106646 -0.994297
vn 0.000000 0.106646 -0.994297
vn 0.000000 0.201508 -0.979487
vn 0.000000 0.201508 -0.979487
vn 0.000000 0.201508 -0.979487
vn 0.000000 0.201508 -0.979487
vn 0.000000 0.297939 -0.954585
vn 0.000000 0.297939 -0.954585
vn 0.000000 0.297939 -0.954585
vn 0.000000 0.297939 -0.954585
vn 0.000000 0.405059 -0.914290
vn 0.000000 0.405059 -0.914290
vn 0.000000 0.405059 -0.914290
vn 0.000000 0.405059 -0.914290
vn 0.000000 0.522341 -0.852737
vn 0.000000 0.522341 -0.852737
vn 0.000000 0.522341 -0.852737
vn 0.000000 0.522341 -0.852737
vn 0.000000 1.000000 0.000000
vn 0.000000 1.000000 0.000000
vn 0.000000 1.000000 0.000000
vn 0.000000 1.000000 0.000000
vn 0.000000 0.004504 -0.999990
vn 0.000000 0.004504 -0.999990
vn 0.000000 0.004504 -0.999990
vn 0.000000 0.004504 -0.999990
s off
g GMFBXASC045Plinth
usemtl GMFBXASC045PlinthSG
f 3/2/1 1/1/2 2/54/3 4/53/4
f 1/8/5 9/16/6 19/11/7 2/5/8
f 19/14/9 10/12/10 4/6/11 2/7/12
f 27/17/13 15/49/14 5/50/15 25/43/16
f 15/49/17 16/41/18 6/42/19 5/50/20
f 16/41/21 17/29/22 7/30/23 6/42/24
f 17/29/25 18/21/26 8/26/27 7/30/28
f 18/21/29 19/11/30 9/16/31 8/26/32
f 26/44/33 24/45/34 14/46/35 28/18/36
f 24/45/37 23/35/38 13/36/39 14/46/40
f 23/35/41 22/27/42 12/28/43 13/36/44
f 22/27/45 21/19/46 11/25/47 12/28/48
f 21/19/49 20/9/50 10/10/51 11/25/52
f 10/10/53 20/9/54 3/3/55 4/4/56
f 28/18/57 14/51/58 15/52/59 27/17/60
f 14/51/61 13/38/62 16/40/63 15/52/64
f 13/38/65 12/33/66 17/34/67 16/40/68
f 12/33/69 11/20/70 18/23/71 17/34/72
f 11/20/73 10/12/74 19/14/75 18/23/76
f 5/47/77 6/39/78 23/37/79 24/48/80
f 6/39/81 7/32/82 22/31/83 23/37/84
f 7/32/85 8/22/86 21/24/87 22/31/88
f 8/22/89 9/15/90 20/13/91 21/24/92
f 20/13/93 9/15/94 1/1/95 3/2/96
f 25/43/97 26/44/98 28/18/99 27/17/100
f 25/43/101 5/47/102 24/48/103 26/44/104
