# This file uses centimeters as units for non-parametric coordinates.

mtllib GM-Ramp.mtl
g default
v 0.000006 100.000000 -100.000000
v 100.000015 99.999992 -100.000000
v 0.000000 0.000000 -100.000000
v 100.000000 -0.000008 -100.000000
v 0.000000 0.000000 0.000000
v 100.000000 -0.000008 0.000000
vt -0.000000 0.500000
vt 0.207017 0.292983
vt 0.499784 0.292983
vt 0.499784 0.999784
vt 0.207017 0.999784
vt 0.706801 0.500000
vt 0.207017 0.707017
vt 0.499784 0.707017
vt 0.499784 0.000216
vt 0.207017 0.000216
vn -1.000000 0.000000 0.000000
vn -1.000000 0.000000 0.000000
vn -1.000000 0.000000 0.000000
vn -0.000000 -1.000000 0.000000
vn -0.000000 -1.000000 0.000000
vn -0.000000 -1.000000 0.000000
vn 1.000000 -0.000000 0.000000
vn 1.000000 -0.000000 0.000000
vn 1.000000 -0.000000 0.000000
vn 0.000000 0.000000 -1.000000
vn 0.000000 0.000000 -1.000000
vn 0.000000 0.000000 -1.000000
vn 0.000000 0.707107 0.707107
vn 0.000000 0.707107 0.707107
vn 0.000000 0.707107 0.707107
vn -0.000000 -1.000000 0.000000
vn -0.000000 -1.000000 0.000000
vn -0.000000 -1.000000 0.000000
vn 0.000000 0.000000 -1.000000
vn 0.000000 0.000000 -1.000000
vn 0.000000 0.000000 -1.000000
vn 0.000000 0.707107 0.707107
vn 0.000000 0.707107 0.707107
vn 0.000000 0.707107 0.707107
s off
g GMFBXASC045Ramp
usemtl GMFBXASC045RampSG
f 1/7/1 3/1/2 5/2/3
f 6/3/4 3/10/5 4/9/6
f 4/6/7 2/8/8 6/3/9
f 4/4/10 1/7/11 2/8/12
f 2/8/13 5/2/14 6/3/15
f 6/3/16 5/2/17 3/10/18
f 4/4/19 3/5/20 1/7/21
f 2/8/22 1/7/23 5/2/24
