# This file uses centimeters as units for non-parametric coordinates.

mtllib GM-Ring.mtl
g default
v 0.000000 -10.000000 -37.059048
v 0.000000 10.000000 -37.059048
v 18.529522 -10.000000 -32.094078
v 18.529522 10.000000 -32.094078
v 32.094078 -10.000000 -18.529524
v 32.094078 10.000000 -18.529524
v 37.059048 -10.000000 0.000000
v 37.059048 10.000000 0.000000
v 32.094078 -10.000000 18.529522
v 32.094078 10.000000 18.529522
v 18.529524 -10.000000 32.094078
v 18.529524 10.000000 32.094078
v 0.000000 -10.000000 37.059048
v 0.000000 10.000000 37.059048
v -18.529522 -10.000000 32.094078
v -18.529522 10.000000 32.094078
v -32.094078 -10.000000 18.529524
v -32.094078 10.000000 18.529524
v -37.059048 -10.000000 0.000000
v -37.059048 10.000000 0.000000
v -32.094078 -10.000000 -18.529522
v -32.094078 10.000000 -18.529522
v -18.529524 -10.000000 -32.094078
v -18.529524 10.000000 -32.094078
v 0.000000 -10.000000 -50.000000
v 25.000000 -10.000000 -43.301270
v 25.000000 10.000000 -43.301270
v 0.000000 10.000000 -50.000000
v 43.301270 -10.000000 -25.000000
v 43.301270 10.000000 -25.000000
v 50.000000 -10.000000 0.000000
v 50.000000 10.000000 0.000000
v 43.301270 -10.000000 25.000000
v 43.301270 10.000000 25.000000
v 25.000000 -10.000000 43.301270
v 25.000000 10.000000 43.301270
v 0.000000 -10.000000 50.000000
v 0.000000 10.000000 50.000000
v -25.000000 -10.000000 43.301270
v -25.000000 10.000000 43.301270
v -43.301270 -10.000000 25.000000
v -43.301270 10.000000 25.000000
v -50.000000 -10.000000 0.000000
v -50.000000 10.000000 0.000000
v -43.301270 -10.000000 -25.000000
v -43.301270 10.000000 -25.000000
v -25.000000 -10.000000 -43.301270
v -25.000000 10.000000 -43.301270
vt 0.613836 0.572568
vt 0.613835 0.197169
vt 0.572168 0.041667
vt 0.572169 0.644737
vt 0.613836 0.489235
vt 0.573588 0.124620
vt 0.573589 0.561784
vt 0.573588 0.186385
vt 0.542706 0.071130
vt 0.542706 0.615274
vt 0.573589 0.500019
vt 0.572169 0.269338
vt 0.499999 0.000000
vt 0.500000 0.686404
vt 0.572169 0.417066
vt 0.542706 0.239875
vt 0.489215 0.040247
vt 0.489216 0.646157
vt 0.542706 0.446529
vt 0.416667 0.686404
vt 0.427451 0.646157
vt 0.489216 0.270757
vt 0.500000 0.311004
vt 0.427450 0.040247
vt 0.416666 0.000000
vt 0.489216 0.415646
vt 0.500000 0.375399
vt 0.373961 0.615274
vt 0.427451 0.415646
vt 0.427451 0.270758
vt 0.373960 0.071130
vt 0.344498 0.644737
vt 0.416667 0.375399
vt 0.416667 0.311004
vt 0.344497 0.041667
vt 0.000000 0.311005
vt 0.583333 0.311004
vt 0.666667 0.311004
vt 0.750000 0.311004
vt 0.833333 0.311004
vt 0.480851 0.686404
vt 0.542616 0.686404
vt 0.604382 0.686404
vt 0.666147 0.686404
vt 0.727912 0.686404
vt 0.789677 0.686404
vt 0.851442 0.686404
vt 0.913207 0.686404
vt 0.916667 0.311004
vt 1.000000 0.311004
vt 0.172026 0.686404
vt 0.233791 0.686404
vt 0.295556 0.686404
vt 0.166667 0.311005
vt 0.357321 0.686404
vt 0.419086 0.686404
vt 0.250000 0.311005
vt 0.083333 0.311005
vt 0.333333 0.311005
vt 0.343078 0.561784
vt 0.373961 0.446529
vt 0.373960 0.239875
vt 0.343078 0.124620
vt 0.343078 0.500019
vt 0.343078 0.186385
vt 0.302832 0.572568
vt 0.344498 0.417066
vt 0.344498 0.269338
vt 0.302831 0.113836
vt 0.302831 0.489235
vt 0.000000 0.375400
vt 0.851442 0.750799
vt 0.913207 0.750799
vt 0.166667 0.375400
vt 0.250000 0.375400
vt 0.789677 0.750799
vt 0.083333 0.375400
vt 0.480851 0.750799
vt 0.333333 0.375400
vt 0.542616 0.750799
vt 0.604382 0.750799
vt 0.666147 0.750799
vt 0.727912 0.750799
vt 0.583333 0.375399
vt 0.666667 0.375399
vt 0.916667 0.375399
vt 1.000000 0.375399
vt 0.295556 0.750799
vt 0.357321 0.750799
vt 0.419086 0.750799
vt 0.750000 0.375399
vt 0.172026 0.750799
vt 0.233791 0.750799
vt 0.833333 0.375399
vt 0.302831 0.197169
vt 0.613835 0.113835
vn 0.258819 0.000000 -0.965926
vn 0.258819 0.000000 -0.965926
vn 0.258819 0.000000 -0.965926
vn 0.707107 0.000000 -0.707107
vn 0.707107 0.000000 -0.707107
vn 0.707107 0.000000 -0.707107
vn 0.965926 0.000000 -0.258819
vn 0.965926 0.000000 -0.258819
vn 0.965926 0.000000 -0.258819
vn 0.965926 0.000000 0.258819
vn 0.965926 0.000000 0.258819
vn 0.965926 0.000000 0.258819
vn 0.707107 0.000000 0.707107
vn 0.707107 0.000000 0.707107
vn 0.707107 0.000000 0.707107
vn 0.258819 0.000000 0.965926
vn 0.258819 0.000000 0.965926
vn 0.258819 0.000000 0.965926
vn -0.258819 0.000000 0.965926
vn -0.258819 0.000000 0.965926
vn -0.258819 0.000000 0.965926
vn -0.707107 0.000000 0.707107
vn -0.707107 0.000000 0.707107
vn -0.707107 0.000000 0.707107
vn -0.965926 0.000000 0.258819
vn -0.965926 0.000000 0.258819
vn -0.965926 0.000000 0.258819
vn -0.965926 0.000000 -0.258819
vn -0.965926 0.000000 -0.258819
vn -0.965926 0.000000 -0.258819
vn 0.707107 0.000000 0.707107
vn 0.707107 0.000000 0.707107
vn 0.707107 0.000000 0.707107
vn -0.707107 0.000000 -0.707107
vn -0.707107 0.000000 -0.707107
vn -0.707107 0.000000 -0.707107
vn -0.258819 0.000000 -0.965926
vn -0.258819 0.000000 -0.965926
vn -0.258819 0.000000 -0.965926
vn 0.258819 0.000000 0.965926
vn 0.258819 0.000000 0.965926
vn 0.258819 0.000000 0.965926
vn 0.000000 -1.000000 0.000000
vn 0.000000 -1.000000 0.000000
vn 0.000000 -1.000000 0.000000
vn 0.000000 1.000000 0.000000
vn 0.000000 1.000000 0.000000
vn 0.000000 1.000000 0.000000
vn 0.000000 -1.000000 0.000000
vn 0.000000 -1.000000 0.000000
vn 0.000000 -1.000000 0.000000
vn 0.000000 1.000000 0.000000
vn 0.000000 1.000000 0.000000
vn 0.000000 1.000000 0.000000
vn 0.000000 -1.000000 0.000000
vn 0.000000 -1.000000 0.000000
vn 0.000000 -1.000000 0.000000
vn 0.000000 1.000000 0.000000
vn 0.000000 1.000000 0.000000
vn 0.000000 1.000000 0.000000
vn 0.000000 -1.000000 0.000000
vn 0.000000 -1.000000 0.000000
vn 0.000000 -1.000000 0.000000
vn 0.000000 1.000000 0.000000
vn 0.000000 1.000000 0.000000
vn 0.000000 1.000000 0.000000
vn 0.000000 -1.000000 0.000000
vn 0.000000 -1.000000 0.000000
vn 0.000000 -1.000000 0.000000
vn 0.000000 1.000000 0.000000
vn 0.000000 1.000000 0.000000
vn 0.000000 1.000000 0.000000
vn 0.000000 -1.000000 0.000000
vn 0.000000 -1.000000 0.000000
vn 0.000000 -1.000000 0.000000
vn 0.000000 1.000000 0.000000
vn 0.000000 1.000000 0.000000
vn 0.000000 1.000000 0.000000
vn -0.000000 -1.000000 0.000000
vn -0.000000 -1.000000 0.000000
vn -0.000000 -1.000000 0.000000
vn 0.000000 1.000000 0.000000
vn 0.000000 1.000000 0.000000
vn 0.000000 1.000000 0.000000
vn -0.000000 -1.000000 0.000000
vn -0.000000 -1.000000 0.000000
vn -0.000000 -1.000000 0.000000
vn 0.000000 1.000000 0.000000
vn 0.000000 1.000000 0.000000
vn 0.000000 1.000000 0.000000
vn 0.000000 -1.000000 0.000000
vn 0.000000 -1.000000 0.000000
vn 0.000000 -1.000000 0.000000
vn -0.000000 1.000000 0.000000
vn -0.000000 1.000000 0.000000
vn -0.000000 1.000000 0.000000
vn 0.000000 -1.000000 0.000000
vn 0.000000 -1.000000 0.000000
vn 0.000000 -1.000000 0.000000
vn 0.000000 1.000000 0.000000
vn 0.000000 1.000000 0.000000
vn 0.000000 1.000000 0.000000
vn 0.000000 -1.000000 0.000000
vn 0.000000 -1.000000 0.000000
vn 0.000000 -1.000000 0.000000
vn -0.000000 1.000000 0.000000
vn -0.000000 1.000000 0.000000
vn -0.000000 1.000000 0.000000
vn 0.000000 -1.000000 0.000000
vn 0.000000 -1.000000 0.000000
vn 0.000000 -1.000000 0.000000
vn -0.000000 1.000000 0.000000
vn -0.000000 1.000000 0.000000
vn -0.000000 1.000000 0.000000
vn 0.965926 0.000000 0.258819
vn 0.965926 0.000000 0.258819
vn 0.965926 0.000000 0.258819
vn 0.965926 0.000000 -0.258819
vn 0.965926 0.000000 -0.258819
vn 0.965926 0.000000 -0.258819
vn 0.707107 0.000000 -0.707107
vn 0.707107 0.000000 -0.707107
vn 0.707107 0.000000 -0.707107
vn 0.258819 0.000000 -0.965926
vn 0.258819 0.000000 -0.965926
vn 0.258819 0.000000 -0.965926
vn -0.258819 0.000000 -0.965926
vn -0.258819 0.000000 -0.965926
vn -0.258819 0.000000 -0.965926
vn -0.707107 0.000000 -0.707107
vn -0.707107 0.000000 -0.707107
vn -0.707107 0.000000 -0.707107
vn -0.965926 0.000000 -0.258819
vn -0.965926 0.000000 -0.258819
vn -0.965926 0.000000 -0.258819
vn -0.965926 0.000000 0.258819
vn -0.965926 0.000000 0.258819
vn -0.965926 0.000000 0.258819
vn -0.707107 0.000000 0.707107
vn -0.707107 0.000000 0.707107
vn -0.707107 0.000000 0.707107
vn -0.258819 0.000000 0.965926
vn -0.258819 0.000000 0.965926
vn -0.258819 0.000000 0.965926
vn 0.258819 0.000000 -0.965926
vn 0.258819 0.000000 -0.965926
vn 0.258819 0.000000 -0.965926
vn 0.707107 0.000000 -0.707107
vn 0.707107 0.000000 -0.707107
vn 0.707107 0.000000 -0.707107
vn 0.965926 0.000000 -0.258819
vn 0.965926 0.000000 -0.258819
vn 0.965926 0.000000 -0.258819
vn 0.965926 0.000000 0.258819
vn 0.965926 0.000000 0.258819
vn 0.965926 0.000000 0.258819
vn 0.707107 0.000000 0.707107
vn 0.707107 0.000000 0.707107
vn 0.707107 0.000000 0.707107
vn 0.258819 0.000000 0.965926
vn 0.258819 0.000000 0.965926
vn 0.258819 0.000000 0.965926
vn -0.258819 0.000000 0.965926
vn -0.258819 0.000000 0.965926
vn -0.258819 0.000000 0.965926
vn -0.707107 0.000000 0.707107
vn -0.707107 0.000000 0.707107
vn -0.707107 0.000000 0.707107
vn -0.965926 0.000000 0.258819
vn -0.965926 0.000000 0.258819
vn -0.965926 0.000000 0.258819
vn -0.965926 0.000000 -0.258819
vn -0.965926 0.000000 -0.258819
vn -0.965926 0.000000 -0.258819
vn 0.707107 0.000000 0.707107
vn 0.707107 0.000000 0.707107
vn 0.707107 0.000000 0.707107
vn -0.707107 0.000000 -0.707107
vn -0.707107 0.000000 -0.707107
vn -0.707107 0.000000 -0.707107
vn -0.258819 0.000000 -0.965926
vn -0.258819 0.000000 -0.965926
vn -0.258819 0.000000 -0.965926
vn 0.258819 0.000000 0.965926
vn 0.258819 0.000000 0.965926
vn 0.258819 0.000000 0.965926
vn 0.000000 -1.000000 0.000000
vn 0.000000 -1.000000 0.000000
vn 0.000000 -1.000000 0.000000
vn 0.000000 1.000000 0.000000
vn 0.000000 1.000000 0.000000
vn 0.000000 1.000000 0.000000
vn -0.000000 -1.000000 0.000000
vn -0.000000 -1.000000 0.000000
vn -0.000000 -1.000000 0.000000
vn -0.000000 1.000000 0.000000
vn -0.000000 1.000000 0.000000
vn -0.000000 1.000000 0.000000
vn 0.000000 -1.000000 0.000000
vn 0.000000 -1.000000 0.000000
vn 0.000000 -1.000000 0.000000
vn 0.000000 1.000000 0.000000
vn 0.000000 1.000000 0.000000
vn 0.000000 1.000000 0.000000
vn 0.000000 -1.000000 0.000000
vn 0.000000 -1.000000 0.000000
vn 0.000000 -1.000000 0.000000
vn 0.000000 1.000000 0.000000
vn 0.000000 1.000000 0.000000
vn 0.000000 1.000000 0.000000
vn 0.000000 -1.000000 0.000000
vn 0.000000 -1.000000 0.000000
vn 0.000000 -1.000000 0.000000
vn -0.000000 1.000000 0.000000
vn -0.000000 1.000000 0.000000
vn -0.000000 1.000000 0.000000
vn 0.000000 -1.000000 0.000000
vn 0.000000 -1.000000 0.000000
vn 0.000000 -1.000000 0.000000
vn 0.000000 1.000000 0.000000
vn 0.000000 1.000000 0.000000
vn 0.000000 1.000000 0.000000
vn 0.000000 -1.000000 0.000000
vn 0.000000 -1.000000 0.000000
vn 0.000000 -1.000000 0.000000
vn 0.000000 1.000000 0.000000
vn 0.000000 1.000000 0.000000
vn 0.000000 1.000000 0.000000
vn 0.000000 -1.000000 0.000000
vn 0.000000 -1.000000 0.000000
vn 0.000000 -1.000000 0.000000
vn 0.000000 1.000000 0.000000
vn 0.000000 1.000000 0.000000
vn 0.000000 1.000000 0.000000
vn -0.000000 -1.000000 0.000000
vn -0.000000 -1.000000 0.000000
vn -0.000000 -1.000000 0.000000
vn 0.000000 1.000000 0.000000
vn 0.000000 1.000000 0.000000
vn 0.000000 1.000000 0.000000
vn 0.000000 -1.000000 0.000000
vn 0.000000 -1.000000 0.000000
vn 0.000000 -1.000000 0.000000
vn -0.000000 1.000000 0.000000
vn -0.000000 1.000000 0.000000
vn -0.000000 1.000000 0.000000
vn 0.000000 -1.000000 0.000000
vn 0.000000 -1.000000 0.000000
vn 0.000000 -1.000000 0.000000
vn 0.000000 1.000000 0.000000
vn 0.000000 1.000000 0.000000
vn 0.000000 1.000000 0.000000
vn 0.000000 -1.000000 0.000000
vn 0.000000 -1.000000 0.000000
vn 0.000000 -1.000000 0.000000
vn 0.000000 1.000000 0.000000
vn 0.000000 1.000000 0.000000
vn 0.000000 1.000000 0.000000
vn 0.965926 0.000000 0.258819
vn 0.965926 0.000000 0.258819
vn 0.965926 0.000000 0.258819
vn 0.965926 0.000000 -0.258819
vn 0.965926 0.000000 -0.258819
vn 0.965926 0.000000 -0.258819
vn 0.707107 0.000000 -0.707107
vn 0.707107 0.000000 -0.707107
vn 0.707107 0.000000 -0.707107
vn 0.258819 0.000000 -0.965926
vn 0.258819 0.000000 -0.965926
vn 0.258819 0.000000 -0.965926
vn -0.258819 0.000000 -0.965926
vn -0.258819 0.000000 -0.965926
vn -0.258819 0.000000 -0.965926
vn -0.707107 0.000000 -0.707107
vn -0.707107 0.000000 -0.707107
vn -0.707107 0.000000 -0.707107
vn -0.965926 0.000000 -0.258819
vn -0.965926 0.000000 -0.258819
vn -0.965926 0.000000 -0.258819
vn -0.965926 0.000000 0.258819
vn -0.965926 0.000000 0.258819
vn -0.965926 0.000000 0.258819
vn -0.707107 0.000000 0.707107
vn -0.707107 0.000000 0.707107
vn -0.707107 0.000000 0.707107
vn -0.258819 0.000000 0.965926
vn -0.258819 0.000000 0.965926
vn -0.258819 0.000000 0.965926
s off
g GMFBXASC045Ring
usemtl GMFBXASC045RingSG
f 25/57/1 27/74/2 26/54/3
f 26/54/4 30/77/5 29/58/6
f 29/58/7 32/71/8 31/36/9
f 31/50/10 34/86/11 33/49/12
f 33/49/13 36/94/14 35/40/15
f 35/40/16 38/91/17 37/39/18
f 37/39/19 40/85/20 39/38/21
f 39/38/22 42/84/23 41/37/24
f 41/37/25 44/27/26 43/23/27
f 43/23/28 46/33/29 45/34/30
f 24/73/31 21/47/32 23/48/33
f 45/34/34 48/79/35 47/59/36
f 47/59/37 28/75/38 25/57/39
f 2/93/40 23/51/41 1/52/42
f 3/63/43 25/95/44 26/69/45
f 2/64/46 27/66/47 28/70/48
f 5/31/49 26/69/50 29/35/51
f 4/60/52 30/32/53 27/66/54
f 7/24/55 29/35/56 31/25/57
f 6/28/58 32/20/59 30/32/60
f 9/17/61 31/25/62 33/13/63
f 8/21/64 34/14/65 32/20/66
f 11/9/67 33/13/68 35/3/69
f 10/18/70 36/4/71 34/14/72
f 13/6/73 35/3/74 37/96/75
f 12/10/76 38/1/77 36/4/78
f 15/8/79 37/96/80 39/2/81
f 14/7/82 40/5/83 38/1/84
f 17/16/85 39/2/86 41/12/87
f 16/11/88 42/15/89 40/5/90
f 19/22/91 41/12/92 43/23/93
f 18/19/94 44/27/95 42/15/96
f 21/30/97 43/23/98 45/34/99
f 20/26/100 46/33/101 44/27/102
f 23/62/103 45/34/104 47/68/105
f 22/29/106 48/67/107 46/33/108
f 1/65/109 47/68/110 25/95/111
f 24/61/112 28/70/113 48/67/114
f 22/72/115 19/46/116 21/47/117
f 20/76/118 17/45/119 19/46/120
f 18/83/121 15/44/122 17/45/123
f 16/82/124 13/43/125 15/44/126
f 14/81/127 11/42/128 13/43/129
f 12/80/130 9/41/131 11/42/132
f 10/78/133 7/56/134 9/41/135
f 8/90/136 5/55/137 7/56/138
f 6/89/139 3/53/140 5/55/141
f 4/88/142 1/52/143 3/53/144
f 25/57/145 28/75/146 27/74/147
f 26/54/148 27/74/149 30/77/150
f 29/58/151 30/77/152 32/71/153
f 31/50/154 32/87/155 34/86/156
f 33/49/157 34/86/158 36/94/159
f 35/40/160 36/94/161 38/91/162
f 37/39/163 38/91/164 40/85/165
f 39/38/166 40/85/167 42/84/168
f 41/37/169 42/84/170 44/27/171
f 43/23/172 44/27/173 46/33/174
f 24/73/175 22/72/176 21/47/177
f 45/34/178 46/33/179 48/79/180
f 47/59/181 48/79/182 28/75/183
f 2/93/184 24/92/185 23/51/186
f 3/63/187 1/65/188 25/95/189
f 2/64/190 4/60/191 27/66/192
f 5/31/193 3/63/194 26/69/195
f 4/60/196 6/28/197 30/32/198
f 7/24/199 5/31/200 29/35/201
f 6/28/202 8/21/203 32/20/204
f 9/17/205 7/24/206 31/25/207
f 8/21/208 10/18/209 34/14/210
f 11/9/211 9/17/212 33/13/213
f 10/18/214 12/10/215 36/4/216
f 13/6/217 11/9/218 35/3/219
f 12/10/220 14/7/221 38/1/222
f 15/8/223 13/6/224 37/96/225
f 14/7/226 16/11/227 40/5/228
f 17/16/229 15/8/230 39/2/231
f 16/11/232 18/19/233 42/15/234
f 19/22/235 17/16/236 41/12/237
f 18/19/238 20/26/239 44/27/240
f 21/30/241 19/22/242 43/23/243
f 20/26/244 22/29/245 46/33/246
f 23/62/247 21/30/248 45/34/249
f 22/29/250 24/61/251 48/67/252
f 1/65/253 23/62/254 47/68/255
f 24/61/256 2/64/257 28/70/258
f 22/72/259 20/76/260 19/46/261
f 20/76/262 18/83/263 17/45/264
f 18/83/265 16/82/266 15/44/267
f 16/82/268 14/81/269 13/43/270
f 14/81/271 12/80/272 11/42/273
f 12/80/274 10/78/275 9/41/276
f 10/78/277 8/90/278 7/56/279
f 8/90/280 6/89/281 5/55/282
f 6/89/283 4/88/284 3/53/285
f 4/88/286 2/93/287 1/52/288
