# This file uses centimeters as units for non-parametric coordinates.

mtllib GM-Slope.mtl
g default
v 0.000000 0.000000 -100.000000
v 100.000000 0.000004 -100.000000
v 100.000000 0.000004 0.000000
v 0.000000 0.000000 0.000000
v -0.000004 100.000000 -100.000000
v -0.000000 9.026039 -20.263285
v -0.000001 22.548098 -40.849365
v -0.000002 39.644665 -60.355335
v -0.000003 59.150635 -77.451904
v -0.000003 79.736717 -90.973961
v 99.999992 100.000000 -100.000000
v 99.999992 79.736725 -90.973961
v 100.000000 59.150642 -77.451904
v 100.000000 39.644669 -60.355335
v 100.000000 22.548101 -40.849365
v 100.000000 9.026043 -20.263285
v 100.000000 0.000004 -100.000000
v 100.000000 39.644669 -60.355335
vt 0.289060 0.289242
vt 0.578295 0.289242
vt 0.289060 0.578477
vt 0.578295 0.578477
vt 0.581399 0.579748
vt 0.581399 0.290513
vt 0.262954 0.519868
vt 0.607505 0.521139
vt 0.289060 0.642637
vt 0.578295 0.642637
vt 0.223843 0.460326
vt 0.646616 0.461597
vt 0.289060 0.788896
vt 0.578295 0.788896
vt 0.174394 0.403908
vt 0.696065 0.405179
vt 0.289060 0.713875
vt 0.578295 0.713875
vt 0.289060 0.863918
vt 0.578295 0.863917
vt 0.117976 0.354459
vt 0.752483 0.355730
vt 0.289060 0.935156
vt 0.578295 0.935156
vt 0.058434 0.315349
vt 0.812025 0.316620
vt 0.289060 0.000008
vt 0.578294 0.000008
vt 0.289060 0.999316
vt 0.578295 0.999316
vt 0.870633 0.290513
vt -0.000174 0.289242
vn 0.000000 -1.000000 0.000000
vn 0.000000 -1.000000 0.000000
vn 0.000000 -1.000000 0.000000
vn 0.000000 -0.000000 -1.000000
vn 0.000000 -0.000000 -1.000000
vn 0.000000 -0.000000 -1.000000
vn -1.000000 -0.000000 0.000000
vn -1.000000 -0.000000 0.000000
vn -1.000000 -0.000000 0.000000
vn -1.000000 -0.000000 0.000000
vn -1.000000 -0.000000 0.000000
vn -1.000000 -0.000000 0.000000
vn -0.000000 0.913474 0.406896
vn -0.000000 0.877527 0.479528
vn -0.000000 0.877527 0.479528
vn -0.000000 0.877527 0.479528
vn -0.000000 0.795828 0.605523
vn -0.000000 0.795828 0.605523
vn -0.000000 0.795828 0.605523
vn -0.000000 0.707107 0.707107
vn -0.000000 0.707107 0.707107
vn -0.000000 0.707107 0.707107
vn -0.000000 0.605523 0.795828
vn -0.000000 0.605523 0.795828
vn -0.000000 0.605523 0.795828
vn -0.000000 0.479528 0.877527
vn -0.000000 0.479528 0.877527
vn -0.000000 0.479528 0.877527
vn -0.000000 0.406896 0.913474
vn 0.000000 0.406896 0.913474
vn -1.000000 -0.000000 0.000000
vn -1.000000 -0.000000 0.000000
vn -1.000000 -0.000000 0.000000
vn 1.000000 0.000000 0.000000
vn 1.000000 0.000000 0.000000
vn 1.000000 0.000000 0.000000
vn 1.000000 0.000000 0.000000
vn 1.000000 0.000000 0.000000
vn 1.000000 0.000000 0.000000
vn 1.000000 0.000000 0.000000
vn 1.000000 0.000000 0.000000
vn 1.000000 0.000000 0.000000
vn -1.000000 -0.000000 0.000000
vn -1.000000 -0.000000 0.000000
vn -1.000000 -0.000000 0.000000
vn -1.000000 -0.000000 0.000000
vn -1.000000 -0.000000 0.000000
vn -1.000000 -0.000000 0.000000
vn -1.000000 -0.000000 0.000000
vn -1.000000 -0.000000 0.000000
vn -1.000000 -0.000000 0.000000
vn 1.000000 0.000000 0.000000
vn 1.000000 0.000000 0.000000
vn 1.000000 0.000000 0.000000
vn 1.000000 0.000000 0.000000
vn 1.000000 0.000000 0.000000
vn 1.000000 0.000000 0.000000
vn 1.000000 0.000000 0.000000
vn 1.000000 0.000000 0.000000
vn 1.000000 0.000000 0.000000
vn 0.000000 -1.000000 0.000000
vn 0.000000 -1.000000 0.000000
vn 0.000000 -1.000000 0.000000
vn 0.000000 -0.000000 -1.000000
vn 0.000000 0.000000 -1.000000
vn 0.000000 -0.000000 -1.000000
vn -0.000000 0.913474 0.406896
vn -0.000000 0.913474 0.406896
vn -0.000000 0.877527 0.479528
vn -0.000000 0.877527 0.479528
vn -0.000000 0.877527 0.479528
vn -0.000000 0.795828 0.605523
vn -0.000000 0.795828 0.605523
vn -0.000000 0.795828 0.605523
vn -0.000000 0.707107 0.707107
vn -0.000000 0.707107 0.707107
vn -0.000000 0.707107 0.707107
vn -0.000000 0.605523 0.795828
vn -0.000000 0.605523 0.795828
vn -0.000000 0.605523 0.795828
vn -0.000000 0.479528 0.877527
vn -0.000000 0.479528 0.877527
vn -0.000000 0.479528 0.877527
vn -0.000000 0.406896 0.913474
s off
g GMFBXASC045Slope
usemtl GMFBXASC045SlopeSG
f 3/4/1 1/1/2 2/2/3
f 2/2/4 5/27/5 11/28/6
f 7/11/7 8/15/8 1/1/9
f 6/7/10 7/11/11 1/1/12
f 4/3/13 16/10/14 6/9/15
f 6/9/16 15/18/17 7/17/18
f 7/17/19 14/14/20 8/13/21
f 8/13/22 13/20/23 9/19/24
f 9/19/25 12/24/26 10/23/27
f 10/23/28 11/30/29 5/29/30
f 4/3/31 6/7/32 1/1/33
f 17/6/34 18/16/35 15/12/36
f 18/16/37 17/6/38 13/22/39
f 16/8/40 17/6/41 15/12/42
f 8/15/43 9/21/44 1/1/45
f 9/21/46 10/25/47 1/1/48
f 10/25/49 5/32/50 1/1/51
f 3/5/52 17/6/53 16/8/54
f 13/22/55 17/6/56 12/26/57
f 11/31/58 12/26/59 17/6/60
f 3/4/61 4/3/62 1/1/63
f 2/2/64 1/1/65 5/27/66
f 4/3/67 3/4/68 16/10/69
f 6/9/70 16/10/71 15/18/72
f 7/17/73 15/18/74 14/14/75
f 8/13/76 14/14/77 13/20/78
f 9/19/79 13/20/80 12/24/81
f 10/23/82 12/24/83 11/30/84
