# This file uses centimeters as units for non-parametric coordinates.

mtllib GM-Stud.mtl
g default
v 0.000000 0.000000 -42.894424
v 49.999996 0.000000 -17.872677
v 49.999996 0.000000 32.170822
v 0.000000 0.000000 57.192577
v -49.999996 0.000000 32.170822
v -49.999996 0.000000 -17.872677
v 0.000000 0.000000 32.170822
v 0.000000 24.999998 22.255648
v 0.000000 25.000000 -7.957500
v 0.000000 0.000000 -17.872677
v -30.186882 25.000000 -7.957500
v 0.000000 24.999998 -23.064074
v 30.186882 24.999998 -7.957500
v 30.186882 24.999998 22.255648
v 0.000000 24.999998 37.362221
v -30.186882 24.999998 22.255648
vt 0.507963 0.078237
vt 0.626173 0.845239
vt 0.776651 0.685956
vt 0.628947 0.291066
vt 0.617505 0.535613
vt 0.299229 0.476643
vt 0.486158 0.471246
vt 0.395310 0.567414
vt 0.248298 0.582690
vt 0.785307 0.995587
vt 0.467025 0.694896
vt 0.295470 0.150543
vt 0.390080 0.380481
vt 0.435515 0.332397
vt 0.420026 0.195116
vt 0.550932 0.924885
vt 0.004167 0.611486
vt 0.301654 0.004409
vt 0.935793 0.836307
vt 0.223520 0.720196
vt 0.851889 0.606315
vt 0.493069 0.323609
vt 0.294011 0.289704
vt 0.115867 0.517058
vt 0.203154 0.385863
vt 0.253803 0.524723
vn 0.000000 -1.000000 0.000000
vn 0.000000 -1.000000 0.000000
vn 0.000000 -1.000000 0.000000
vn 0.000000 -1.000000 0.000000
vn 0.000000 -1.000000 0.000000
vn 0.000000 -1.000000 0.000000
vn 0.000000 1.000000 0.000000
vn 0.000000 1.000000 0.000000
vn 0.000000 1.000000 0.000000
vn 0.000000 1.000000 0.000000
vn 0.000000 1.000000 0.000000
vn 0.000000 1.000000 0.000000
vn 0.000000 1.000000 0.000000
vn 0.000000 1.000000 0.000000
vn 0.000000 1.000000 0.000000
vn 0.000000 -1.000000 0.000000
vn 0.000000 -1.000000 0.000000
vn 0.000000 -1.000000 0.000000
vn 0.000000 1.000000 0.000000
vn 0.000000 1.000000 0.000000
vn 0.000000 1.000000 0.000000
vn -0.365016 0.578569 -0.729398
vn -0.365016 0.578569 -0.729398
vn -0.365016 0.578569 -0.729398
vn 0.365016 0.578569 -0.729398
vn 0.365016 0.578569 -0.729398
vn 0.365016 0.578569 -0.729398
vn -0.783719 0.621116 0.000000
vn -0.783719 0.621116 0.000000
vn -0.783719 0.621116 0.000000
vn -0.365016 0.578569 0.729398
vn -0.365016 0.578569 0.729398
vn -0.365016 0.578569 0.729398
vn 0.365016 0.578569 0.729398
vn 0.365016 0.578569 0.729398
vn 0.365016 0.578569 0.729398
vn 0.783719 0.621116 0.000000
vn 0.783719 0.621116 0.000000
vn 0.783719 0.621116 0.000000
vn 0.000000 0.000000 -1.000000
vn 0.000000 0.000000 -1.000000
vn 0.000000 0.000000 -1.000000
vn 0.000000 -1.000000 0.000000
vn 0.000000 -1.000000 0.000000
vn 0.000000 -1.000000 0.000000
vn 0.000000 -1.000000 0.000000
vn 0.000000 -1.000000 0.000000
vn 0.000000 -1.000000 0.000000
vn 0.000000 1.000000 0.000000
vn 0.000000 1.000000 0.000000
vn 0.000000 1.000000 0.000000
vn 0.000000 1.000000 0.000000
vn 0.000000 1.000000 0.000000
vn 0.000000 1.000000 0.000000
vn 0.000000 -1.000000 0.000000
vn 0.000000 -1.000000 0.000000
vn 0.000000 -1.000000 0.000000
vn 0.000000 -1.000000 0.000000
vn 0.000000 -1.000000 0.000000
vn 0.000000 -1.000000 0.000000
vn 0.000000 1.000000 0.000000
vn 0.000000 1.000000 0.000000
vn 0.000000 1.000000 0.000000
vn -0.365016 0.578569 -0.729398
vn -0.365016 0.578569 -0.729398
vn -0.365016 0.578569 -0.729398
vn 0.365016 0.578569 -0.729398
vn 0.365016 0.578569 -0.729398
vn 0.365016 0.578569 -0.729398
vn -0.783719 0.621116 0.000000
vn -0.783719 0.621116 0.000000
vn -0.783719 0.621116 0.000000
vn -0.365016 0.578569 0.729398
vn -0.365016 0.578569 0.729398
vn -0.365016 0.578569 0.729398
vn 0.365016 0.578569 0.729398
vn 0.365016 0.578569 0.729398
vn 0.365016 0.578569 0.729398
vn 0.783718 0.621116 0.000000
vn 0.783718 0.621116 0.000000
vn 0.783718 0.621116 0.000000
vn 0.000000 1.000000 -0.000000
vn 0.000000 1.000000 -0.000000
vn 0.000000 1.000000 -0.000000
s off
g GMFBXASC045Stud
usemtl GMFBXASC045StudSG
f 2/19/1 7/2/2 10/3/3
f 1/21/4 10/3/5 6/5/6
f 8/6/7 11/7/8 16/8/9
f 15/26/10 8/6/11 16/8/12
f 3/10/13 5/11/14 7/2/15
f 10/3/16 5/11/17 6/5/18
f 14/25/19 9/13/20 8/6/21
f 6/5/22 12/22/23 1/4/24
f 1/4/25 13/15/26 2/1/27
f 5/11/28 11/7/29 6/5/30
f 4/20/31 16/8/32 5/11/33
f 3/17/34 15/9/35 4/20/36
f 2/1/37 14/12/38 3/18/39
f 13/23/40 11/7/41 9/13/42
f 2/19/43 3/10/44 7/2/45
f 1/21/46 2/19/47 10/3/48
f 8/6/49 9/13/50 11/7/51
f 15/26/52 14/25/53 8/6/54
f 3/10/55 4/16/56 5/11/57
f 10/3/58 7/2/59 5/11/60
f 14/25/61 13/23/62 9/13/63
f 6/5/64 11/7/65 12/22/66
f 1/4/67 12/22/68 13/15/69
f 5/11/70 16/8/71 11/7/72
f 4/20/73 15/9/74 16/8/75
f 3/17/76 14/24/77 15/9/78
f 2/1/79 13/15/80 14/12/81
f 13/23/82 12/14/83 11/7/84
