# This file uses centimeters as units for non-parametric coordinates.

mtllib GM-Wedge.mtl
g default
v 99.999992 0.000000 -0.000004
v 0.000000 0.000000 0.000000
v 99.999985 0.000000 -200.000000
v -0.000009 0.000000 -200.000000
v -0.000004 100.000015 -100.000000
v 99.999985 100.000015 -100.000000
vt 0.811995 0.995585
vt 0.411545 0.245730
vt 0.240909 0.412998
vt 0.575444 0.754269
vt 0.746079 0.587002
vt 0.174993 0.004415
vt 0.749448 0.249099
vt 0.982631 0.828318
vt 0.237540 0.750901
vt 0.004358 0.171682
vn 0.000000 0.707107 -0.707107
vn 0.000000 0.707107 -0.707107
vn 0.000000 0.707107 -0.707107
vn 0.000000 -1.000000 0.000000
vn 0.000000 -1.000000 0.000000
vn 0.000000 -1.000000 0.000000
vn -1.000000 0.000000 0.000000
vn -1.000000 0.000000 0.000000
vn -1.000000 0.000000 0.000000
vn 1.000000 0.000000 0.000000
vn 1.000000 0.000000 0.000000
vn 1.000000 0.000000 0.000000
vn 0.000000 0.707107 0.707107
vn 0.000000 0.707107 0.707107
vn 0.000000 0.707107 0.707107
vn 0.000000 0.707107 -0.707107
vn 0.000000 0.707107 -0.707107
vn 0.000000 0.707107 -0.707107
vn 0.000000 -1.000000 0.000000
vn 0.000000 -1.000000 0.000000
vn 0.000000 -1.000000 0.000000
vn 0.000000 0.707107 0.707107
vn 0.000000 0.707107 0.707107
vn 0.000000 0.707107 0.707107
s off
g GMFBXASC045Wedge
usemtl GMFBXASC045WedgeSG
f 5/10/1 3/2/2 4/3/3
f 2/4/4 3/2/5 1/5/6
f 2/4/7 5/9/8 4/3/9
f 3/2/10 6/7/11 1/5/12
f 5/1/13 1/5/14 6/8/15
f 5/10/16 6/6/17 3/2/18
f 2/4/19 4/3/20 3/2/21
f 5/1/22 2/4/23 1/5/24
